SplineFontDB: 3.0
FontName: Vaigai-Bold
FullName: Vaigai Bold
FamilyName: Vaigai
Weight: Bold
Copyright: Copyright (c) 1995-2015, NLCI (http://www.nlci.in/fonts/) Derived from SAU Vaigai Bold by ttfbuilder v0.33
Version: 1.0 Sat Jul 20 09:50:26 1996
ItalicAngle: 0
UnderlinePosition: -260
UnderlineWidth: 20
Ascent: 800
Descent: 200
InvalidEm: 0
sfntRevision: 0x00010000
LayerCount: 2
Layer: 0 1 "Back" 1
Layer: 1 1 "Fore" 0
XUID: [1021 20 -669258686 1150522]
StyleMap: 0x0020
FSType: 0
OS2Version: 1
OS2_WeightWidthSlopeOnly: 0
OS2_UseTypoMetrics: 0
CreationTime: 1534550735
ModificationTime: 1534550775
PfmFamily: 17
TTFWeight: 700
TTFWidth: 5
LineGap: 0
VLineGap: 0
Panose: 2 0 0 3 0 0 0 0 0 0
OS2TypoAscent: 1052
OS2TypoAOffset: 0
OS2TypoDescent: -367
OS2TypoDOffset: 0
OS2TypoLinegap: 0
OS2WinAscent: 1052
OS2WinAOffset: 0
OS2WinDescent: 367
OS2WinDOffset: 0
HheadAscent: 1052
HheadAOffset: 0
HheadDescent: -367
HheadDOffset: 0
OS2SubXSize: 700
OS2SubYSize: 650
OS2SubXOff: 0
OS2SubYOff: 143
OS2SupXSize: 700
OS2SupYSize: 650
OS2SupXOff: 0
OS2SupYOff: 453
OS2StrikeYSize: 50
OS2StrikeYPos: 259
OS2Vendor: 'Alts'
OS2CodePages: 20000001.00000000
OS2UnicodeRanges: a01080ff.520021cb.08000028.00000000
Lookup: 260 0 0 "_holdAnchorsbase" { "_someAnchorsbase"  } []
DEI: 91125
ShortTable: maxp 16
  1
  0
  339
  183
  12
  288
  16
  1
  0
  0
  0
  0
  3
  0
  3
  2
EndShort

StartChar: .notdef
Encoding: 0 -1 0
Width: 500
Flags: W
LayerCount: 2
Fore
SplineSet
31 0 m 1,0,-1
 31 750 l 1,1,-1
 469 750 l 1,2,-1
 469 0 l 1,3,-1
 31 0 l 1,0,-1
438 31 m 1,4,-1
 438 719 l 1,5,-1
 62 719 l 1,6,-1
 62 31 l 1,7,-1
 438 31 l 1,4,-1
EndSplineSet
EndChar

StartChar: exclam
Encoding: 4 33 4
Width: 321
VWidth: 488
Flags: W
LayerCount: 2
Fore
SplineSet
192.3828125 204.58984375 m 0,0,1
 187.98828125 201.171875 187.98828125 201.171875 180.908203125 198.486328125 c 0,2,3
 173.828125 195.80078125 173.828125 195.80078125 166.015625 193.603515625 c 0,4,5
 158.203125 191.40625 158.203125 191.40625 150.390625 189.453125 c 0,6,7
 142.578125 187.5 142.578125 187.5 136.71875 185.546875 c 0,8,-1
 122.55859375 195.80078125 l 0,9,-1
 80.078125 663.0859375 l 0,10,11
 91.30859375 668.9453125 91.30859375 668.9453125 109.130859375 677.734375 c 0,12,13
 126.953125 686.5234375 126.953125 686.5234375 145.99609375 695.3125 c 0,14,15
 165.0390625 704.1015625 165.0390625 704.1015625 182.373046875 711.669921875 c 0,16,17
 199.70703125 719.23828125 199.70703125 719.23828125 209.9609375 722.65625 c 0,18,-1
 235.83984375 705.56640625 l 0,19,-1
 192.3828125 204.58984375 l 0,0,1
246.09375 64.94140625 m 0,20,21
 246.09375 44.43359375 246.09375 44.43359375 238.28125 28.564453125 c 0,22,23
 230.46875 12.6953125 230.46875 12.6953125 217.28515625 2.197265625 c 0,24,25
 204.1015625 -8.30078125 204.1015625 -8.30078125 186.5234375 -13.916015625 c 0,26,27
 168.9453125 -19.53125 168.9453125 -19.53125 149.4140625 -19.53125 c 0,28,29
 134.765625 -19.53125 134.765625 -19.53125 120.60546875 -15.625 c 0,30,31
 106.4453125 -11.71875 106.4453125 -11.71875 95.458984375 -3.41796875 c 0,32,33
 84.47265625 4.8828125 84.47265625 4.8828125 77.880859375 18.06640625 c 0,34,35
 71.2890625 31.25 71.2890625 31.25 71.2890625 49.8046875 c 0,36,37
 71.2890625 69.82421875 71.2890625 69.82421875 79.345703125 85.693359375 c 0,38,39
 87.40234375 101.5625 87.40234375 101.5625 100.830078125 112.548828125 c 0,40,41
 114.2578125 123.53515625 114.2578125 123.53515625 131.8359375 129.150390625 c 0,42,43
 149.4140625 134.765625 149.4140625 134.765625 168.45703125 134.765625 c 0,44,45
 182.12890625 134.765625 182.12890625 134.765625 196.044921875 130.859375 c 0,46,47
 209.9609375 126.953125 209.9609375 126.953125 221.19140625 118.408203125 c 0,48,49
 232.421875 109.86328125 232.421875 109.86328125 239.2578125 96.6796875 c 0,50,51
 246.09375 83.49609375 246.09375 83.49609375 246.09375 64.94140625 c 0,20,21
EndSplineSet
EndChar

StartChar: quotedbl
Encoding: 5 34 5
Width: 483
VWidth: 488
Flags: W
LayerCount: 2
Fore
SplineSet
379.39453125 407.2265625 m 0,0,1
 375.48828125 405.2734375 375.48828125 405.2734375 366.943359375 403.3203125 c 0,2,3
 358.3984375 401.3671875 358.3984375 401.3671875 348.14453125 399.90234375 c 0,4,5
 337.890625 398.4375 337.890625 398.4375 328.369140625 397.705078125 c 0,6,7
 318.84765625 396.97265625 318.84765625 396.97265625 312.98828125 396.97265625 c 0,8,-1
 267.578125 676.7578125 l 0,9,10
 270.99609375 678.7109375 270.99609375 678.7109375 281.005859375 682.861328125 c 0,11,12
 291.015625 687.01171875 291.015625 687.01171875 303.955078125 691.89453125 c 0,13,14
 316.89453125 696.77734375 316.89453125 696.77734375 331.298828125 701.904296875 c 0,15,16
 345.703125 707.03125 345.703125 707.03125 358.3984375 711.42578125 c 0,17,18
 371.09375 715.8203125 371.09375 715.8203125 380.859375 718.75 c 0,19,20
 390.625 721.6796875 390.625 721.6796875 394.04296875 722.65625 c 0,21,-1
 419.921875 707.51953125 l 0,22,-1
 379.39453125 407.2265625 l 0,0,1
175.29296875 407.2265625 m 0,23,24
 171.38671875 405.2734375 171.38671875 405.2734375 162.841796875 403.3203125 c 0,25,26
 154.296875 401.3671875 154.296875 401.3671875 144.04296875 399.90234375 c 0,27,28
 133.7890625 398.4375 133.7890625 398.4375 124.267578125 397.705078125 c 0,29,30
 114.74609375 396.97265625 114.74609375 396.97265625 108.88671875 396.97265625 c 0,31,-1
 63.4765625 676.7578125 l 0,32,33
 66.89453125 678.7109375 66.89453125 678.7109375 76.904296875 682.861328125 c 0,34,35
 86.9140625 687.01171875 86.9140625 687.01171875 99.853515625 691.89453125 c 0,36,37
 112.79296875 696.77734375 112.79296875 696.77734375 127.197265625 701.904296875 c 0,38,39
 141.6015625 707.03125 141.6015625 707.03125 154.296875 711.42578125 c 0,40,41
 166.9921875 715.8203125 166.9921875 715.8203125 176.7578125 718.75 c 0,42,43
 186.5234375 721.6796875 186.5234375 721.6796875 189.94140625 722.65625 c 0,44,-1
 215.8203125 707.51953125 l 0,45,-1
 175.29296875 407.2265625 l 0,23,24
EndSplineSet
EndChar

StartChar: numbersign
Encoding: 6 35 6
Width: 518
VWidth: 488
Flags: W
LayerCount: 2
Fore
SplineSet
222.16796875 297.8515625 m 0,0,-1
 304.6875 297.8515625 l 0,1,-1
 334.47265625 403.3203125 l 0,2,-1
 252.44140625 403.3203125 l 0,3,-1
 222.16796875 297.8515625 l 0,0,-1
430.17578125 479.00390625 m 0,4,-1
 506.34765625 479.00390625 l 0,5,-1
 518.5546875 466.796875 l 0,6,7
 517.578125 461.42578125 517.578125 461.42578125 514.16015625 452.392578125 c 0,8,9
 510.7421875 443.359375 510.7421875 443.359375 506.8359375 433.837890625 c 0,10,11
 502.9296875 424.31640625 502.9296875 424.31640625 499.267578125 415.771484375 c 0,12,13
 495.60546875 407.2265625 495.60546875 407.2265625 493.65234375 403.3203125 c 0,14,-1
 408.69140625 403.3203125 l 0,15,-1
 378.41796875 297.8515625 l 0,16,-1
 454.58984375 297.8515625 l 0,17,-1
 465.33203125 284.66796875 l 0,18,19
 464.35546875 279.78515625 464.35546875 279.78515625 461.181640625 270.99609375 c 0,20,21
 458.0078125 262.20703125 458.0078125 262.20703125 454.345703125 252.685546875 c 0,22,23
 450.68359375 243.1640625 450.68359375 243.1640625 447.265625 234.86328125 c 0,24,25
 443.84765625 226.5625 443.84765625 226.5625 441.89453125 222.16796875 c 0,26,-1
 356.93359375 222.16796875 l 0,27,-1
 317.3828125 83.0078125 l 0,28,29
 312.98828125 79.58984375 312.98828125 79.58984375 304.6875 76.66015625 c 0,30,31
 296.38671875 73.73046875 296.38671875 73.73046875 287.109375 71.2890625 c 0,32,-1
 268.5546875 66.40625 l 0,33,34
 259.27734375 63.96484375 259.27734375 63.96484375 252.9296875 62.01171875 c 0,35,-1
 240.234375 71.77734375 l 0,36,-1
 283.203125 222.16796875 l 0,37,-1
 200.68359375 222.16796875 l 0,38,-1
 160.64453125 83.0078125 l 0,39,40
 156.25 79.58984375 156.25 79.58984375 148.193359375 76.66015625 c 0,41,42
 140.13671875 73.73046875 140.13671875 73.73046875 130.859375 71.2890625 c 0,43,44
 121.58203125 68.84765625 121.58203125 68.84765625 112.548828125 66.40625 c 0,45,46
 103.515625 63.96484375 103.515625 63.96484375 97.16796875 62.01171875 c 0,47,-1
 84.47265625 71.77734375 l 0,48,-1
 127.44140625 222.16796875 l 0,49,-1
 43.45703125 222.16796875 l 0,50,-1
 32.71484375 234.375 l 0,51,52
 33.69140625 239.2578125 33.69140625 239.2578125 36.865234375 247.802734375 c 0,53,54
 40.0390625 256.34765625 40.0390625 256.34765625 43.701171875 265.869140625 c 0,55,56
 47.36328125 275.390625 47.36328125 275.390625 51.025390625 284.1796875 c 0,57,58
 54.6875 292.96875 54.6875 292.96875 57.12890625 297.8515625 c 0,59,-1
 148.92578125 297.8515625 l 0,60,-1
 178.7109375 403.3203125 l 0,61,-1
 96.6796875 403.3203125 l 0,62,-1
 84.47265625 415.0390625 l 0,63,64
 85.44921875 420.41015625 85.44921875 420.41015625 88.8671875 429.19921875 c 0,65,66
 92.28515625 437.98828125 92.28515625 437.98828125 96.19140625 447.509765625 c 0,67,68
 100.09765625 457.03125 100.09765625 457.03125 103.759765625 465.576171875 c 0,69,70
 107.421875 474.12109375 107.421875 474.12109375 109.375 479.00390625 c 0,71,-1
 200.68359375 479.00390625 l 0,72,-1
 238.28125 610.83984375 l 0,73,74
 243.65234375 614.74609375 243.65234375 614.74609375 251.953125 617.431640625 c 0,75,76
 260.25390625 620.1171875 260.25390625 620.1171875 269.53125 622.314453125 c 0,77,78
 278.80859375 624.51171875 278.80859375 624.51171875 287.109375 626.46484375 c 0,79,80
 295.41015625 628.41796875 295.41015625 628.41796875 300.78125 630.859375 c 0,81,-1
 314.94140625 620.1171875 l 0,82,-1
 274.4140625 479.00390625 l 0,83,-1
 356.4453125 479.00390625 l 0,84,-1
 394.04296875 610.83984375 l 0,85,86
 399.4140625 614.74609375 399.4140625 614.74609375 407.71484375 617.431640625 c 0,87,88
 416.015625 620.1171875 416.015625 620.1171875 425.29296875 622.314453125 c 0,89,90
 434.5703125 624.51171875 434.5703125 624.51171875 443.115234375 626.46484375 c 0,91,92
 451.66015625 628.41796875 451.66015625 628.41796875 457.51953125 630.859375 c 0,93,-1
 470.703125 620.1171875 l 0,94,-1
 430.17578125 479.00390625 l 0,4,-1
EndSplineSet
EndChar

StartChar: dollar
Encoding: 7 36 7
Width: 518
VWidth: 488
Flags: W
LayerCount: 2
Fore
SplineSet
289.0625 -60.05859375 m 0,0,1
 280.2734375 -67.87109375 280.2734375 -67.87109375 268.06640625 -74.951171875 c 0,2,3
 255.859375 -82.03125 255.859375 -82.03125 243.65234375 -84.9609375 c 0,4,-1
 225.5859375 -69.3359375 l 0,5,-1
 225.5859375 -4.39453125 l 0,6,7
 205.56640625 -3.41796875 205.56640625 -3.41796875 181.884765625 1.220703125 c 0,8,9
 158.203125 5.859375 158.203125 5.859375 133.7890625 13.916015625 c 0,10,11
 109.375 21.97265625 109.375 21.97265625 85.205078125 32.71484375 c 0,12,13
 61.03515625 43.45703125 61.03515625 43.45703125 40.0390625 56.640625 c 0,14,15
 37.59765625 58.10546875 37.59765625 58.10546875 36.62109375 67.626953125 c 0,16,17
 35.64453125 77.1484375 35.64453125 77.1484375 35.400390625 91.064453125 c 0,18,19
 35.15625 104.98046875 35.15625 104.98046875 35.64453125 122.0703125 c 0,20,21
 36.1328125 139.16015625 36.1328125 139.16015625 37.353515625 155.517578125 c 0,22,23
 38.57421875 171.875 38.57421875 171.875 40.52734375 186.5234375 c 0,24,25
 42.48046875 201.171875 42.48046875 201.171875 44.921875 209.9609375 c 0,26,-1
 85.44921875 208.0078125 l 0,27,28
 97.16796875 183.10546875 97.16796875 183.10546875 110.83984375 160.888671875 c 0,29,30
 124.51171875 138.671875 124.51171875 138.671875 141.6015625 120.849609375 c 0,31,32
 158.69140625 103.02734375 158.69140625 103.02734375 179.443359375 90.33203125 c 0,33,34
 200.1953125 77.63671875 200.1953125 77.63671875 225.5859375 72.265625 c 0,35,-1
 225.5859375 273.92578125 l 0,36,37
 192.3828125 285.64453125 192.3828125 285.64453125 158.935546875 298.33984375 c 0,38,39
 125.48828125 311.03515625 125.48828125 311.03515625 98.6328125 329.345703125 c 0,40,41
 71.77734375 347.65625 71.77734375 347.65625 54.931640625 374.0234375 c 0,42,43
 38.0859375 400.390625 38.0859375 400.390625 38.0859375 439.94140625 c 0,44,45
 38.0859375 460.9375 38.0859375 460.9375 47.119140625 485.3515625 c 0,46,47
 56.15234375 509.765625 56.15234375 509.765625 77.880859375 531.73828125 c 0,48,49
 99.609375 553.7109375 99.609375 553.7109375 135.7421875 569.82421875 c 0,50,51
 171.875 585.9375 171.875 585.9375 225.5859375 590.8203125 c 0,52,-1
 225.5859375 652.34375 l 0,53,54
 232.421875 656.25 232.421875 656.25 237.79296875 659.66796875 c 0,55,56
 243.1640625 663.0859375 243.1640625 663.0859375 248.291015625 666.015625 c 0,57,58
 253.41796875 668.9453125 253.41796875 668.9453125 258.7890625 671.38671875 c 0,59,60
 264.16015625 673.828125 264.16015625 673.828125 271.484375 675.78125 c 0,61,-1
 289.0625 660.15625 l 0,62,-1
 289.0625 591.796875 l 0,63,64
 315.91796875 589.84375 315.91796875 589.84375 342.529296875 584.716796875 c 0,65,66
 369.140625 579.58984375 369.140625 579.58984375 392.08984375 572.265625 c 0,67,68
 415.0390625 564.94140625 415.0390625 564.94140625 432.861328125 556.396484375 c 0,69,70
 450.68359375 547.8515625 450.68359375 547.8515625 459.47265625 539.0625 c 0,71,72
 461.42578125 536.62109375 461.42578125 536.62109375 460.44921875 528.3203125 c 0,73,74
 459.47265625 520.01953125 459.47265625 520.01953125 456.298828125 508.056640625 c 0,75,76
 453.125 496.09375 453.125 496.09375 448.486328125 482.666015625 c 0,77,78
 443.84765625 469.23828125 443.84765625 469.23828125 438.4765625 456.787109375 c 0,79,80
 433.10546875 444.3359375 433.10546875 444.3359375 427.978515625 434.814453125 c 0,81,82
 422.8515625 425.29296875 422.8515625 425.29296875 418.45703125 421.38671875 c 0,83,-1
 379.8828125 425.29296875 l 0,84,85
 364.74609375 463.37890625 364.74609375 463.37890625 343.017578125 488.525390625 c 0,86,87
 321.2890625 513.671875 321.2890625 513.671875 289.0625 523.92578125 c 0,88,-1
 289.0625 360.83984375 l 0,89,90
 322.75390625 349.12109375 322.75390625 349.12109375 356.689453125 335.205078125 c 0,91,92
 390.625 321.2890625 390.625 321.2890625 417.96875 300.78125 c 0,93,94
 445.3125 280.2734375 445.3125 280.2734375 462.40234375 250.9765625 c 0,95,96
 479.4921875 221.6796875 479.4921875 221.6796875 479.4921875 179.19921875 c 0,97,98
 479.4921875 149.90234375 479.4921875 149.90234375 469.23828125 120.60546875 c 0,99,100
 458.984375 91.30859375 458.984375 91.30859375 436.279296875 66.40625 c 0,101,102
 413.57421875 41.50390625 413.57421875 41.50390625 377.197265625 23.193359375 c 0,103,104
 340.8203125 4.8828125 340.8203125 4.8828125 289.0625 -1.46484375 c 0,105,-1
 289.0625 -60.05859375 l 0,0,1
364.74609375 153.3203125 m 0,106,107
 364.74609375 171.38671875 364.74609375 171.38671875 359.130859375 185.546875 c 0,108,109
 353.515625 199.70703125 353.515625 199.70703125 343.26171875 211.42578125 c 0,110,111
 333.0078125 223.14453125 333.0078125 223.14453125 319.091796875 232.177734375 c 0,112,113
 305.17578125 241.2109375 305.17578125 241.2109375 289.0625 249.0234375 c 0,114,-1
 289.0625 70.80078125 l 0,115,116
 304.19921875 73.2421875 304.19921875 73.2421875 317.87109375 79.345703125 c 0,117,118
 331.54296875 85.44921875 331.54296875 85.44921875 342.041015625 95.458984375 c 0,119,120
 352.5390625 105.46875 352.5390625 105.46875 358.642578125 119.873046875 c 0,121,122
 364.74609375 134.27734375 364.74609375 134.27734375 364.74609375 153.3203125 c 0,106,107
148.92578125 462.890625 m 0,123,124
 148.92578125 448.73046875 148.92578125 448.73046875 154.541015625 437.255859375 c 0,125,126
 160.15625 425.78125 160.15625 425.78125 170.41015625 416.259765625 c 0,127,128
 180.6640625 406.73828125 180.6640625 406.73828125 194.82421875 398.92578125 c 0,129,130
 208.984375 391.11328125 208.984375 391.11328125 225.5859375 384.27734375 c 0,131,-1
 225.5859375 528.80859375 l 0,132,133
 190.91796875 524.4140625 190.91796875 524.4140625 169.921875 506.103515625 c 0,134,135
 148.92578125 487.79296875 148.92578125 487.79296875 148.92578125 462.890625 c 0,123,124
EndSplineSet
EndChar

StartChar: percent
Encoding: 8 37 8
Width: 740
VWidth: 488
Flags: W
LayerCount: 2
Fore
SplineSet
347.16796875 437.98828125 m 0,0,1
 347.16796875 403.80859375 347.16796875 403.80859375 335.205078125 373.53515625 c 0,2,3
 323.2421875 343.26171875 323.2421875 343.26171875 301.513671875 320.556640625 c 0,4,5
 279.78515625 297.8515625 279.78515625 297.8515625 249.267578125 284.66796875 c 0,6,7
 218.75 271.484375 218.75 271.484375 181.640625 271.484375 c 0,8,9
 144.53125 271.484375 144.53125 271.484375 114.990234375 284.66796875 c 0,10,11
 85.44921875 297.8515625 85.44921875 297.8515625 64.94140625 320.556640625 c 0,12,13
 44.43359375 343.26171875 44.43359375 343.26171875 33.447265625 373.53515625 c 0,14,15
 22.4609375 403.80859375 22.4609375 403.80859375 22.4609375 437.98828125 c 0,16,17
 22.4609375 472.16796875 22.4609375 472.16796875 33.447265625 502.44140625 c 0,18,19
 44.43359375 532.71484375 44.43359375 532.71484375 65.673828125 555.419921875 c 0,20,21
 86.9140625 578.125 86.9140625 578.125 117.67578125 591.552734375 c 0,22,23
 148.4375 604.98046875 148.4375 604.98046875 187.98828125 604.98046875 c 0,24,25
 226.5625 604.98046875 226.5625 604.98046875 256.103515625 591.796875 c 0,26,27
 285.64453125 578.61328125 285.64453125 578.61328125 305.908203125 555.908203125 c 0,28,29
 326.171875 533.203125 326.171875 533.203125 336.669921875 502.685546875 c 0,30,31
 347.16796875 472.16796875 347.16796875 472.16796875 347.16796875 437.98828125 c 0,0,1
237.3046875 428.22265625 m 0,32,33
 237.3046875 500.48828125 237.3046875 500.48828125 221.923828125 534.912109375 c 0,34,35
 206.54296875 569.3359375 206.54296875 569.3359375 181.640625 569.3359375 c 0,36,37
 168.9453125 569.3359375 168.9453125 569.3359375 159.66796875 562.98828125 c 0,38,39
 150.390625 556.640625 150.390625 556.640625 144.287109375 542.48046875 c 0,40,41
 138.18359375 528.3203125 138.18359375 528.3203125 135.25390625 505.37109375 c 0,42,43
 132.32421875 482.421875 132.32421875 482.421875 132.32421875 449.21875 c 0,44,45
 132.32421875 376.46484375 132.32421875 376.46484375 145.99609375 341.796875 c 0,46,47
 159.66796875 307.12890625 159.66796875 307.12890625 187.98828125 307.12890625 c 0,48,49
 201.171875 307.12890625 201.171875 307.12890625 210.44921875 313.4765625 c 0,50,51
 219.7265625 319.82421875 219.7265625 319.82421875 225.5859375 334.228515625 c 0,52,53
 231.4453125 348.6328125 231.4453125 348.6328125 234.375 371.826171875 c 0,54,55
 237.3046875 395.01953125 237.3046875 395.01953125 237.3046875 428.22265625 c 0,32,33
185.05859375 1.46484375 m 0,56,57
 179.19921875 -1.46484375 179.19921875 -1.46484375 169.43359375 -3.662109375 c 0,58,59
 159.66796875 -5.859375 159.66796875 -5.859375 148.681640625 -7.8125 c 0,60,61
 137.6953125 -9.765625 137.6953125 -9.765625 127.197265625 -11.474609375 c 0,62,63
 116.69921875 -13.18359375 116.69921875 -13.18359375 110.3515625 -14.6484375 c 0,64,-1
 98.14453125 0 l 0,65,-1
 553.22265625 587.40234375 l 0,66,67
 558.10546875 589.35546875 558.10546875 589.35546875 568.115234375 591.552734375 c 0,68,69
 578.125 593.75 578.125 593.75 589.111328125 595.947265625 c 0,70,71
 600.09765625 598.14453125 600.09765625 598.14453125 610.3515625 600.09765625 c 0,72,73
 620.60546875 602.05078125 620.60546875 602.05078125 625.9765625 603.02734375 c 0,74,-1
 638.18359375 589.35546875 l 0,75,-1
 185.05859375 1.46484375 l 0,56,57
718.26171875 151.3671875 m 0,76,77
 718.26171875 117.1875 718.26171875 117.1875 706.298828125 86.9140625 c 0,78,79
 694.3359375 56.640625 694.3359375 56.640625 672.607421875 33.935546875 c 0,80,81
 650.87890625 11.23046875 650.87890625 11.23046875 620.361328125 -1.953125 c 0,82,83
 589.84375 -15.13671875 589.84375 -15.13671875 552.734375 -15.13671875 c 0,84,85
 515.625 -15.13671875 515.625 -15.13671875 486.083984375 -1.953125 c 0,86,87
 456.54296875 11.23046875 456.54296875 11.23046875 436.03515625 33.935546875 c 0,88,89
 415.52734375 56.640625 415.52734375 56.640625 404.541015625 86.9140625 c 0,90,91
 393.5546875 117.1875 393.5546875 117.1875 393.5546875 151.3671875 c 0,92,93
 393.5546875 185.546875 393.5546875 185.546875 404.541015625 215.8203125 c 0,94,95
 415.52734375 246.09375 415.52734375 246.09375 436.767578125 268.798828125 c 0,96,97
 458.0078125 291.50390625 458.0078125 291.50390625 488.76953125 304.931640625 c 0,98,99
 519.53125 318.359375 519.53125 318.359375 559.08203125 318.359375 c 0,100,101
 597.65625 318.359375 597.65625 318.359375 627.197265625 305.17578125 c 0,102,103
 656.73828125 291.9921875 656.73828125 291.9921875 677.001953125 269.287109375 c 0,104,105
 697.265625 246.58203125 697.265625 246.58203125 707.763671875 216.064453125 c 0,106,107
 718.26171875 185.546875 718.26171875 185.546875 718.26171875 151.3671875 c 0,76,77
608.3984375 141.6015625 m 0,108,109
 608.3984375 213.8671875 608.3984375 213.8671875 593.017578125 248.291015625 c 0,110,111
 577.63671875 282.71484375 577.63671875 282.71484375 552.734375 282.71484375 c 0,112,113
 540.0390625 282.71484375 540.0390625 282.71484375 530.76171875 276.3671875 c 0,114,115
 521.484375 270.01953125 521.484375 270.01953125 515.380859375 255.859375 c 0,116,117
 509.27734375 241.69921875 509.27734375 241.69921875 506.34765625 218.75 c 0,118,119
 503.41796875 195.80078125 503.41796875 195.80078125 503.41796875 162.59765625 c 0,120,121
 503.41796875 89.84375 503.41796875 89.84375 517.08984375 55.17578125 c 0,122,123
 530.76171875 20.5078125 530.76171875 20.5078125 559.08203125 20.5078125 c 0,124,125
 572.265625 20.5078125 572.265625 20.5078125 581.54296875 26.85546875 c 0,126,127
 590.8203125 33.203125 590.8203125 33.203125 596.6796875 47.607421875 c 0,128,129
 602.5390625 62.01171875 602.5390625 62.01171875 605.46875 85.205078125 c 0,130,131
 608.3984375 108.3984375 608.3984375 108.3984375 608.3984375 141.6015625 c 0,108,109
EndSplineSet
EndChar

StartChar: ampersand
Encoding: 9 38 9
Width: 701
VWidth: 488
Flags: W
LayerCount: 2
Fore
SplineSet
701.171875 365.234375 m 0,0,1
 695.3125 357.91015625 695.3125 357.91015625 687.744140625 347.900390625 c 0,2,3
 680.17578125 337.890625 680.17578125 337.890625 672.119140625 328.125 c 0,4,5
 664.0625 318.359375 664.0625 318.359375 656.494140625 310.05859375 c 0,6,7
 648.92578125 301.7578125 648.92578125 301.7578125 643.06640625 297.36328125 c 0,8,9
 625 305.6640625 625 305.6640625 605.224609375 313.4765625 c 0,10,11
 585.44921875 321.2890625 585.44921875 321.2890625 568.84765625 322.265625 c 0,12,13
 579.1015625 309.5703125 579.1015625 309.5703125 582.03125 294.677734375 c 0,14,15
 584.9609375 279.78515625 584.9609375 279.78515625 584.9609375 265.13671875 c 0,16,17
 584.9609375 232.91015625 584.9609375 232.91015625 570.3125 197.509765625 c 0,18,19
 555.6640625 162.109375 555.6640625 162.109375 529.296875 127.44140625 c 0,20,21
 544.921875 113.28125 544.921875 113.28125 560.546875 100.5859375 c 0,22,23
 587.890625 77.63671875 587.890625 77.63671875 616.69921875 72.265625 c 0,24,25
 645.5078125 66.89453125 645.5078125 66.89453125 668.9453125 72.265625 c 0,26,-1
 678.22265625 31.73828125 l 0,27,28
 657.2265625 22.4609375 657.2265625 22.4609375 632.32421875 13.916015625 c 0,29,30
 607.421875 5.37109375 607.421875 5.37109375 584.9609375 -0.9765625 c 0,31,32
 562.5 -7.32421875 562.5 -7.32421875 545.41015625 -10.986328125 c 0,33,34
 528.3203125 -14.6484375 528.3203125 -14.6484375 522.94921875 -14.6484375 c 0,35,36
 510.25390625 -14.6484375 510.25390625 -14.6484375 486.083984375 -0.732421875 c 0,37,38
 461.9140625 13.18359375 461.9140625 13.18359375 430.6640625 38.57421875 c 0,39,40
 392.08984375 14.16015625 392.08984375 14.16015625 347.16796875 -0.244140625 c 0,41,42
 302.24609375 -14.6484375 302.24609375 -14.6484375 252.9296875 -14.6484375 c 0,43,44
 199.70703125 -14.6484375 199.70703125 -14.6484375 157.958984375 -2.685546875 c 0,45,46
 116.2109375 9.27734375 116.2109375 9.27734375 87.646484375 32.71484375 c 0,47,48
 59.08203125 56.15234375 59.08203125 56.15234375 44.189453125 91.064453125 c 0,49,50
 29.296875 125.9765625 29.296875 125.9765625 29.296875 171.875 c 0,51,52
 29.296875 222.16796875 29.296875 222.16796875 60.546875 272.4609375 c 0,53,54
 91.796875 322.75390625 91.796875 322.75390625 161.62109375 375 c 0,55,56
 144.53125 413.0859375 144.53125 413.0859375 135.009765625 450.439453125 c 0,57,58
 125.48828125 487.79296875 125.48828125 487.79296875 125.48828125 523.92578125 c 0,59,60
 125.48828125 563.4765625 125.48828125 563.4765625 141.357421875 597.16796875 c 0,61,62
 157.2265625 630.859375 157.2265625 630.859375 184.5703125 655.517578125 c 0,63,64
 211.9140625 680.17578125 211.9140625 680.17578125 248.779296875 694.091796875 c 0,65,66
 285.64453125 708.0078125 285.64453125 708.0078125 327.63671875 708.0078125 c 0,67,68
 366.69921875 708.0078125 366.69921875 708.0078125 395.01953125 697.998046875 c 0,69,70
 423.33984375 687.98828125 423.33984375 687.98828125 441.650390625 671.38671875 c 0,71,72
 459.9609375 654.78515625 459.9609375 654.78515625 468.75 633.056640625 c 0,73,74
 477.5390625 611.328125 477.5390625 611.328125 477.5390625 587.890625 c 0,75,76
 477.5390625 562.5 477.5390625 562.5 463.134765625 535.400390625 c 0,77,78
 448.73046875 508.30078125 448.73046875 508.30078125 425.78125 482.421875 c 0,79,80
 402.83203125 456.54296875 402.83203125 456.54296875 374.0234375 433.10546875 c 0,81,82
 345.21484375 409.66796875 345.21484375 409.66796875 316.40625 391.6015625 c 0,83,-1
 308.10546875 386.23046875 l 0,84,85
 324.21875 359.375 324.21875 359.375 343.26171875 332.763671875 c 0,86,87
 362.3046875 306.15234375 362.3046875 306.15234375 383.30078125 280.517578125 c 0,88,89
 404.296875 254.8828125 404.296875 254.8828125 426.513671875 230.46875 c 0,90,91
 448.73046875 206.0546875 448.73046875 206.0546875 470.703125 183.59375 c 0,92,93
 478.515625 199.21875 478.515625 199.21875 482.666015625 214.599609375 c 0,94,95
 486.81640625 229.98046875 486.81640625 229.98046875 486.81640625 245.1171875 c 0,96,97
 486.81640625 265.625 486.81640625 265.625 480.712890625 281.494140625 c 0,98,99
 474.609375 297.36328125 474.609375 297.36328125 464.35546875 307.861328125 c 0,100,101
 454.1015625 318.359375 454.1015625 318.359375 440.91796875 323.974609375 c 0,102,103
 427.734375 329.58984375 427.734375 329.58984375 413.57421875 329.58984375 c 0,104,-1
 397.94921875 348.14453125 l 0,105,106
 400.390625 351.07421875 400.390625 351.07421875 406.005859375 356.93359375 c 0,107,108
 411.62109375 362.79296875 411.62109375 362.79296875 418.45703125 369.140625 c 0,109,110
 425.29296875 375.48828125 425.29296875 375.48828125 432.12890625 380.615234375 c 0,111,112
 438.96484375 385.7421875 438.96484375 385.7421875 443.84765625 387.6953125 c 0,113,-1
 685.05859375 387.6953125 l 0,114,-1
 701.171875 365.234375 l 0,0,1
287.109375 60.546875 m 0,115,116
 310.546875 60.546875 310.546875 60.546875 333.0078125 67.3828125 c 0,117,118
 355.46875 74.21875 355.46875 74.21875 376.46484375 85.9375 c 0,119,120
 354.4921875 106.93359375 354.4921875 106.93359375 331.787109375 130.859375 c 0,121,122
 309.08203125 154.78515625 309.08203125 154.78515625 286.865234375 181.396484375 c 0,123,124
 264.6484375 208.0078125 264.6484375 208.0078125 243.65234375 236.328125 c 0,125,126
 222.65625 264.6484375 222.65625 264.6484375 204.58984375 294.43359375 c 0,127,128
 185.546875 267.08984375 185.546875 267.08984375 178.7109375 239.990234375 c 0,129,130
 171.875 212.890625 171.875 212.890625 171.875 182.12890625 c 0,131,132
 171.875 147.94921875 171.875 147.94921875 182.373046875 124.755859375 c 0,133,134
 192.87109375 101.5625 192.87109375 101.5625 209.47265625 87.158203125 c 0,135,136
 226.07421875 72.75390625 226.07421875 72.75390625 246.58203125 66.650390625 c 0,137,138
 267.08984375 60.546875 267.08984375 60.546875 287.109375 60.546875 c 0,115,116
250.9765625 551.7578125 m 0,139,140
 250.9765625 526.85546875 250.9765625 526.85546875 257.568359375 500.9765625 c 0,141,142
 264.16015625 475.09765625 264.16015625 475.09765625 275.87890625 447.265625 c 0,143,144
 295.41015625 459.9609375 295.41015625 459.9609375 309.08203125 475.341796875 c 0,145,146
 322.75390625 490.72265625 322.75390625 490.72265625 330.810546875 507.080078125 c 0,147,148
 338.8671875 523.4375 338.8671875 523.4375 342.529296875 540.0390625 c 0,149,150
 346.19140625 556.640625 346.19140625 556.640625 346.19140625 571.77734375 c 0,151,152
 346.19140625 588.8671875 346.19140625 588.8671875 341.796875 601.806640625 c 0,153,154
 337.40234375 614.74609375 337.40234375 614.74609375 330.56640625 623.53515625 c 0,155,156
 323.73046875 632.32421875 323.73046875 632.32421875 314.94140625 636.71875 c 0,157,158
 306.15234375 641.11328125 306.15234375 641.11328125 296.875 641.11328125 c 0,159,160
 284.66796875 641.11328125 284.66796875 641.11328125 276.123046875 634.27734375 c 0,161,162
 267.578125 627.44140625 267.578125 627.44140625 261.962890625 615.478515625 c 0,163,164
 256.34765625 603.515625 256.34765625 603.515625 253.662109375 587.158203125 c 0,165,166
 250.9765625 570.80078125 250.9765625 570.80078125 250.9765625 551.7578125 c 0,139,140
EndSplineSet
EndChar

StartChar: quotesingle
Encoding: 10 39 10
Width: 279
VWidth: 488
Flags: W
LayerCount: 2
Fore
SplineSet
175.29296875 407.2265625 m 0,0,1
 171.38671875 405.2734375 171.38671875 405.2734375 162.841796875 403.3203125 c 0,2,3
 154.296875 401.3671875 154.296875 401.3671875 144.04296875 399.90234375 c 0,4,5
 133.7890625 398.4375 133.7890625 398.4375 124.267578125 397.705078125 c 0,6,7
 114.74609375 396.97265625 114.74609375 396.97265625 108.88671875 396.97265625 c 0,8,-1
 63.4765625 676.7578125 l 0,9,10
 66.89453125 678.7109375 66.89453125 678.7109375 76.904296875 682.861328125 c 0,11,12
 86.9140625 687.01171875 86.9140625 687.01171875 99.853515625 691.89453125 c 0,13,14
 112.79296875 696.77734375 112.79296875 696.77734375 127.197265625 701.904296875 c 0,15,16
 141.6015625 707.03125 141.6015625 707.03125 154.296875 711.42578125 c 0,17,18
 166.9921875 715.8203125 166.9921875 715.8203125 176.7578125 718.75 c 0,19,20
 186.5234375 721.6796875 186.5234375 721.6796875 189.94140625 722.65625 c 0,21,-1
 215.8203125 707.51953125 l 0,22,-1
 175.29296875 407.2265625 l 0,0,1
EndSplineSet
EndChar

StartChar: parenleft
Encoding: 11 40 11
Width: 336
VWidth: 488
Flags: W
LayerCount: 2
Fore
SplineSet
296.875 -153.80859375 m 0,0,1
 171.38671875 -84.47265625 171.38671875 -84.47265625 110.3515625 32.2265625 c 0,2,3
 49.31640625 148.92578125 49.31640625 148.92578125 49.31640625 304.19921875 c 0,4,5
 49.31640625 384.27734375 49.31640625 384.27734375 66.40625 455.56640625 c 0,6,7
 83.49609375 526.85546875 83.49609375 526.85546875 115.478515625 587.40234375 c 0,8,9
 147.4609375 647.94921875 147.4609375 647.94921875 193.359375 697.021484375 c 0,10,11
 239.2578125 746.09375 239.2578125 746.09375 296.875 781.25 c 0,12,-1
 327.1484375 739.74609375 l 0,13,14
 298.828125 709.47265625 298.828125 709.47265625 274.169921875 669.189453125 c 0,15,16
 249.51171875 628.90625 249.51171875 628.90625 230.95703125 576.904296875 c 0,17,18
 212.40234375 524.90234375 212.40234375 524.90234375 201.66015625 460.44921875 c 0,19,20
 190.91796875 395.99609375 190.91796875 395.99609375 190.91796875 317.87109375 c 0,21,22
 190.91796875 174.31640625 190.91796875 174.31640625 225.09765625 65.673828125 c 0,23,24
 259.27734375 -42.96875 259.27734375 -42.96875 327.1484375 -112.3046875 c 0,25,-1
 296.875 -153.80859375 l 0,0,1
EndSplineSet
EndChar

StartChar: parenright
Encoding: 12 41 12
Width: 336
VWidth: 488
Flags: W
LayerCount: 2
Fore
SplineSet
288.0859375 322.75390625 m 0,0,1
 288.0859375 242.67578125 288.0859375 242.67578125 270.99609375 171.38671875 c 0,2,3
 253.90625 100.09765625 253.90625 100.09765625 221.923828125 39.55078125 c 0,4,5
 189.94140625 -20.99609375 189.94140625 -20.99609375 144.04296875 -70.068359375 c 0,6,7
 98.14453125 -119.140625 98.14453125 -119.140625 40.52734375 -154.296875 c 0,8,-1
 10.25390625 -112.79296875 l 0,9,10
 38.57421875 -82.51953125 38.57421875 -82.51953125 63.232421875 -42.236328125 c 0,11,12
 87.890625 -1.953125 87.890625 -1.953125 106.4453125 50.048828125 c 0,13,14
 125 102.05078125 125 102.05078125 135.7421875 166.259765625 c 0,15,16
 146.484375 230.46875 146.484375 230.46875 146.484375 309.08203125 c 0,17,18
 146.484375 452.63671875 146.484375 452.63671875 112.3046875 561.279296875 c 0,19,20
 78.125 669.921875 78.125 669.921875 10.25390625 739.2578125 c 0,21,-1
 40.52734375 780.76171875 l 0,22,23
 165.52734375 711.42578125 165.52734375 711.42578125 226.806640625 594.7265625 c 0,24,25
 288.0859375 478.02734375 288.0859375 478.02734375 288.0859375 322.75390625 c 0,0,1
EndSplineSet
EndChar

StartChar: asterisk
Encoding: 13 42 13
Width: 441
VWidth: 488
Flags: W
LayerCount: 2
Fore
SplineSet
246.58203125 600.5859375 m 0,0,-1
 345.21484375 688.4765625 l 0,1,2
 350.09765625 685.546875 350.09765625 685.546875 360.595703125 677.490234375 c 0,3,4
 371.09375 669.43359375 371.09375 669.43359375 382.32421875 660.400390625 c 0,5,6
 393.5546875 651.3671875 393.5546875 651.3671875 403.3203125 642.822265625 c 0,7,8
 413.0859375 634.27734375 413.0859375 634.27734375 416.9921875 630.37109375 c 0,9,-1
 411.1328125 601.07421875 l 0,10,-1
 274.90234375 554.6875 l 0,11,-1
 399.90234375 513.18359375 l 0,12,13
 399.4140625 507.32421875 399.4140625 507.32421875 397.705078125 494.384765625 c 0,14,15
 395.99609375 481.4453125 395.99609375 481.4453125 393.798828125 467.041015625 c 0,16,17
 391.6015625 452.63671875 391.6015625 452.63671875 389.16015625 439.94140625 c 0,18,19
 386.71875 427.24609375 386.71875 427.24609375 385.25390625 421.875 c 0,20,-1
 356.93359375 412.59765625 l 0,21,-1
 249.0234375 506.8359375 l 0,22,-1
 275.390625 378.41796875 l 0,23,24
 270.01953125 375.48828125 270.01953125 375.48828125 257.8125 370.60546875 c 0,25,-1
 231.93359375 360.3515625 l 0,26,27
 218.75 354.98046875 218.75 354.98046875 206.54296875 350.830078125 c 0,28,29
 194.3359375 346.6796875 194.3359375 346.6796875 188.96484375 345.21484375 c 0,30,-1
 166.50390625 365.234375 l 0,31,-1
 194.3359375 506.34765625 l 0,32,-1
 96.19140625 418.9453125 l 0,33,34
 91.30859375 421.875 91.30859375 421.875 80.810546875 429.931640625 c 0,35,36
 70.3125 437.98828125 70.3125 437.98828125 59.08203125 447.021484375 c 0,37,38
 47.8515625 456.0546875 47.8515625 456.0546875 37.841796875 464.599609375 c 0,39,40
 27.83203125 473.14453125 27.83203125 473.14453125 24.4140625 477.05078125 c 0,41,-1
 30.2734375 506.34765625 l 0,42,-1
 166.9921875 552.734375 l 0,43,-1
 41.50390625 594.23828125 l 0,44,45
 41.9921875 600.09765625 41.9921875 600.09765625 43.701171875 613.037109375 c 0,46,47
 45.41015625 625.9765625 45.41015625 625.9765625 47.607421875 640.380859375 c 0,48,49
 49.8046875 654.78515625 49.8046875 654.78515625 52.24609375 667.48046875 c 0,50,51
 54.6875 680.17578125 54.6875 680.17578125 56.15234375 685.546875 c 0,52,-1
 84.47265625 694.82421875 l 0,53,-1
 192.3828125 600.09765625 l 0,54,-1
 166.015625 729.00390625 l 0,55,56
 171.38671875 731.93359375 171.38671875 731.93359375 183.59375 736.81640625 c 0,57,-1
 208.984375 747.0703125 l 0,58,59
 222.65625 752.44140625 222.65625 752.44140625 234.86328125 756.591796875 c 0,60,61
 247.0703125 760.7421875 247.0703125 760.7421875 252.44140625 762.20703125 c 0,62,-1
 274.90234375 742.1875 l 0,63,-1
 246.58203125 600.5859375 l 0,0,-1
EndSplineSet
EndChar

StartChar: plus
Encoding: 14 43 14
Width: 424
VWidth: 488
Flags: W
LayerCount: 2
Fore
SplineSet
251.46484375 107.91015625 m 0,0,1
 246.58203125 105.46875 246.58203125 105.46875 238.76953125 102.5390625 c 0,2,3
 230.95703125 99.609375 230.95703125 99.609375 222.65625 96.6796875 c 0,4,5
 214.35546875 93.75 214.35546875 93.75 206.298828125 91.30859375 c 0,6,7
 198.2421875 88.8671875 198.2421875 88.8671875 192.87109375 87.890625 c 0,8,-1
 175.78125 103.515625 l 0,9,-1
 175.78125 236.81640625 l 0,10,-1
 41.50390625 236.81640625 l 0,11,-1
 24.4140625 253.41796875 l 0,12,13
 25.87890625 258.7890625 25.87890625 258.7890625 29.052734375 266.845703125 c 0,14,15
 32.2265625 274.90234375 32.2265625 274.90234375 35.888671875 283.447265625 c 0,16,17
 39.55078125 291.9921875 39.55078125 291.9921875 43.212890625 299.8046875 c 0,18,19
 46.875 307.6171875 46.875 307.6171875 49.31640625 312.5 c 0,20,-1
 175.78125 312.5 l 0,21,-1
 175.78125 442.3828125 l 0,22,23
 180.17578125 443.84765625 180.17578125 443.84765625 187.98828125 446.533203125 c 0,24,25
 195.80078125 449.21875 195.80078125 449.21875 204.58984375 452.1484375 c 0,26,27
 213.37890625 455.078125 213.37890625 455.078125 221.435546875 457.51953125 c 0,28,29
 229.4921875 459.9609375 229.4921875 459.9609375 234.86328125 461.42578125 c 0,30,-1
 251.46484375 445.3125 l 0,31,-1
 251.46484375 312.5 l 0,32,-1
 383.30078125 312.5 l 0,33,-1
 400.390625 295.8984375 l 0,34,35
 398.92578125 290.52734375 398.92578125 290.52734375 395.5078125 282.2265625 c 0,36,37
 392.08984375 273.92578125 392.08984375 273.92578125 388.18359375 265.13671875 c 0,38,39
 384.27734375 256.34765625 384.27734375 256.34765625 380.859375 248.53515625 c 0,40,41
 377.44140625 240.72265625 377.44140625 240.72265625 375.48828125 236.81640625 c 0,42,-1
 251.46484375 236.81640625 l 0,43,-1
 251.46484375 107.91015625 l 0,0,1
EndSplineSet
EndChar

StartChar: comma
Encoding: 15 44 15
Width: 282
VWidth: 488
Flags: W
LayerCount: 2
Fore
SplineSet
249.0234375 34.1796875 m 0,0,1
 249.0234375 5.859375 249.0234375 5.859375 236.572265625 -26.85546875 c 0,2,3
 224.12109375 -59.5703125 224.12109375 -59.5703125 203.125 -91.064453125 c 0,4,5
 182.12890625 -122.55859375 182.12890625 -122.55859375 154.296875 -150.634765625 c 0,6,7
 126.46484375 -178.7109375 126.46484375 -178.7109375 95.703125 -197.75390625 c 0,8,-1
 59.08203125 -170.8984375 l 0,9,10
 86.42578125 -139.16015625 86.42578125 -139.16015625 103.271484375 -103.02734375 c 0,11,12
 120.1171875 -66.89453125 120.1171875 -66.89453125 120.1171875 -24.4140625 c 0,13,14
 120.1171875 -13.671875 120.1171875 -13.671875 115.234375 -2.685546875 c 0,15,16
 110.3515625 8.30078125 110.3515625 8.30078125 101.318359375 17.08984375 c 0,17,18
 92.28515625 25.87890625 92.28515625 25.87890625 79.345703125 31.005859375 c 0,19,20
 66.40625 36.1328125 66.40625 36.1328125 50.78125 35.15625 c 0,21,-1
 42.96875 77.63671875 l 0,22,23
 45.8984375 81.54296875 45.8984375 81.54296875 55.908203125 86.9140625 c 0,24,25
 65.91796875 92.28515625 65.91796875 92.28515625 80.322265625 98.388671875 c 0,26,27
 94.7265625 104.4921875 94.7265625 104.4921875 111.572265625 110.595703125 c 0,28,29
 128.41796875 116.69921875 128.41796875 116.69921875 144.775390625 121.337890625 c 0,30,31
 161.1328125 125.9765625 161.1328125 125.9765625 175.78125 128.90625 c 0,32,33
 190.4296875 131.8359375 190.4296875 131.8359375 199.70703125 131.34765625 c 0,34,35
 211.42578125 125.9765625 211.42578125 125.9765625 220.703125 117.919921875 c 0,36,37
 229.98046875 109.86328125 229.98046875 109.86328125 236.083984375 98.388671875 c 0,38,39
 242.1875 86.9140625 242.1875 86.9140625 245.60546875 71.044921875 c 0,40,41
 249.0234375 55.17578125 249.0234375 55.17578125 249.0234375 34.1796875 c 0,0,1
EndSplineSet
EndChar

StartChar: hyphen
Encoding: 16 45 16
Width: 361
Flags: W
LayerCount: 2
Fore
SplineSet
33 187 m 1,0,-1
 33 292 l 1,1,-1
 294 292 l 1,2,-1
 294 187 l 1,3,-1
 33 187 l 1,0,-1
EndSplineSet
Refer: 356 727 N 1 0 0 1 0 0 2
EndChar

StartChar: period
Encoding: 17 46 17
Width: 282
VWidth: 488
Flags: W
LayerCount: 2
Fore
SplineSet
238.76953125 64.94140625 m 0,0,1
 238.76953125 44.43359375 238.76953125 44.43359375 230.95703125 28.564453125 c 0,2,3
 223.14453125 12.6953125 223.14453125 12.6953125 209.9609375 2.197265625 c 0,4,5
 196.77734375 -8.30078125 196.77734375 -8.30078125 179.19921875 -13.916015625 c 0,6,7
 161.62109375 -19.53125 161.62109375 -19.53125 142.08984375 -19.53125 c 0,8,9
 127.44140625 -19.53125 127.44140625 -19.53125 113.28125 -15.625 c 0,10,11
 99.12109375 -11.71875 99.12109375 -11.71875 88.134765625 -3.41796875 c 0,12,13
 77.1484375 4.8828125 77.1484375 4.8828125 70.556640625 18.06640625 c 0,14,15
 63.96484375 31.25 63.96484375 31.25 63.96484375 49.8046875 c 0,16,17
 63.96484375 69.82421875 63.96484375 69.82421875 72.021484375 85.693359375 c 0,18,19
 80.078125 101.5625 80.078125 101.5625 93.505859375 112.548828125 c 0,20,21
 106.93359375 123.53515625 106.93359375 123.53515625 124.51171875 129.150390625 c 0,22,23
 142.08984375 134.765625 142.08984375 134.765625 161.1328125 134.765625 c 0,24,25
 174.8046875 134.765625 174.8046875 134.765625 188.720703125 130.859375 c 0,26,27
 202.63671875 126.953125 202.63671875 126.953125 213.8671875 118.408203125 c 0,28,29
 225.09765625 109.86328125 225.09765625 109.86328125 231.93359375 96.6796875 c 0,30,31
 238.76953125 83.49609375 238.76953125 83.49609375 238.76953125 64.94140625 c 0,0,1
EndSplineSet
EndChar

StartChar: slash
Encoding: 18 47 18
Width: 478
VWidth: 488
Flags: W
LayerCount: 2
Fore
SplineSet
123.046875 -133.7890625 m 0,0,1
 118.1640625 -137.20703125 118.1640625 -137.20703125 106.4453125 -141.6015625 c 0,2,3
 94.7265625 -145.99609375 94.7265625 -145.99609375 81.54296875 -150.146484375 c 0,4,5
 68.359375 -154.296875 68.359375 -154.296875 55.908203125 -157.958984375 c 0,6,7
 43.45703125 -161.62109375 43.45703125 -161.62109375 37.59765625 -163.57421875 c 0,8,-1
 14.6484375 -146.484375 l 0,9,-1
 356.93359375 752.44140625 l 0,10,11
 363.28125 756.8359375 363.28125 756.8359375 374.755859375 760.986328125 c 0,12,13
 386.23046875 765.13671875 386.23046875 765.13671875 398.681640625 769.04296875 c 0,14,15
 411.1328125 772.94921875 411.1328125 772.94921875 422.607421875 776.123046875 c 0,16,17
 434.08203125 779.296875 434.08203125 779.296875 440.91796875 781.25 c 0,18,-1
 463.8671875 765.625 l 0,19,-1
 123.046875 -133.7890625 l 0,0,1
EndSplineSet
EndChar

StartChar: zero
Encoding: 19 48 19
Width: 518
VWidth: 488
Flags: W
LayerCount: 2
Fore
SplineSet
490.72265625 293.9453125 m 0,0,1
 490.72265625 230.95703125 490.72265625 230.95703125 473.388671875 174.8046875 c 0,2,3
 456.0546875 118.65234375 456.0546875 118.65234375 424.560546875 76.66015625 c 0,4,5
 393.06640625 34.66796875 393.06640625 34.66796875 349.609375 10.009765625 c 0,6,7
 306.15234375 -14.6484375 306.15234375 -14.6484375 254.39453125 -14.6484375 c 0,8,9
 202.1484375 -14.6484375 202.1484375 -14.6484375 160.400390625 10.009765625 c 0,10,11
 118.65234375 34.66796875 118.65234375 34.66796875 88.8671875 76.66015625 c 0,12,13
 59.08203125 118.65234375 59.08203125 118.65234375 43.212890625 174.8046875 c 0,14,15
 27.34375 230.95703125 27.34375 230.95703125 27.34375 293.9453125 c 0,16,17
 27.34375 356.93359375 27.34375 356.93359375 43.45703125 413.0859375 c 0,18,19
 59.5703125 469.23828125 59.5703125 469.23828125 90.087890625 511.474609375 c 0,20,21
 120.60546875 553.7109375 120.60546875 553.7109375 164.55078125 578.369140625 c 0,22,23
 208.49609375 603.02734375 208.49609375 603.02734375 263.671875 603.02734375 c 0,24,25
 317.3828125 603.02734375 317.3828125 603.02734375 359.619140625 578.61328125 c 0,26,27
 401.85546875 554.19921875 401.85546875 554.19921875 430.908203125 512.20703125 c 0,28,29
 459.9609375 470.21484375 459.9609375 470.21484375 475.341796875 413.818359375 c 0,30,31
 490.72265625 357.421875 490.72265625 357.421875 490.72265625 293.9453125 c 0,0,1
347.16796875 275.87890625 m 0,32,33
 347.16796875 342.7734375 347.16796875 342.7734375 340.576171875 391.845703125 c 0,34,35
 333.984375 440.91796875 333.984375 440.91796875 321.77734375 473.14453125 c 0,36,37
 309.5703125 505.37109375 309.5703125 505.37109375 292.48046875 521.240234375 c 0,38,39
 275.390625 537.109375 275.390625 537.109375 254.39453125 537.109375 c 0,40,41
 232.91015625 537.109375 232.91015625 537.109375 217.28515625 525.390625 c 0,42,43
 201.66015625 513.671875 201.66015625 513.671875 191.40625 487.3046875 c 0,44,45
 181.15234375 460.9375 181.15234375 460.9375 176.025390625 418.45703125 c 0,46,47
 170.8984375 375.9765625 170.8984375 375.9765625 170.8984375 314.94140625 c 0,48,49
 170.8984375 180.6640625 170.8984375 180.6640625 193.84765625 115.966796875 c 0,50,51
 216.796875 51.26953125 216.796875 51.26953125 263.671875 51.26953125 c 0,52,53
 285.64453125 51.26953125 285.64453125 51.26953125 301.26953125 63.232421875 c 0,54,55
 316.89453125 75.1953125 316.89453125 75.1953125 327.1484375 101.806640625 c 0,56,57
 337.40234375 128.41796875 337.40234375 128.41796875 342.28515625 171.142578125 c 0,58,59
 347.16796875 213.8671875 347.16796875 213.8671875 347.16796875 275.87890625 c 0,32,33
EndSplineSet
EndChar

StartChar: one
Encoding: 20 49 20
Width: 518
VWidth: 488
Flags: W
LayerCount: 2
Fore
SplineSet
73.2421875 0 m 0,0,-1
 73.2421875 45.41015625 l 0,1,2
 111.328125 49.8046875 111.328125 49.8046875 136.71875 55.419921875 c 0,3,4
 162.109375 61.03515625 162.109375 61.03515625 177.24609375 66.89453125 c 0,5,6
 192.3828125 72.75390625 192.3828125 72.75390625 198.73046875 78.369140625 c 0,7,8
 205.078125 83.984375 205.078125 83.984375 205.078125 89.35546875 c 0,9,-1
 205.078125 439.453125 l 0,10,11
 205.078125 458.984375 205.078125 458.984375 203.61328125 469.7265625 c 0,12,13
 202.1484375 480.46875 202.1484375 480.46875 196.2890625 487.3046875 c 0,14,15
 193.359375 490.234375 193.359375 490.234375 185.791015625 492.1875 c 0,16,17
 178.22265625 494.140625 178.22265625 494.140625 164.0625 493.65234375 c 0,18,19
 149.90234375 493.1640625 149.90234375 493.1640625 127.685546875 490.234375 c 0,20,21
 105.46875 487.3046875 105.46875 487.3046875 73.2421875 480.46875 c 0,22,-1
 58.10546875 524.90234375 l 0,23,24
 72.265625 527.34375 72.265625 527.34375 93.26171875 533.203125 c 0,25,26
 114.2578125 539.0625 114.2578125 539.0625 138.671875 546.630859375 c 0,27,28
 163.0859375 554.19921875 163.0859375 554.19921875 188.96484375 562.98828125 c 0,29,30
 214.84375 571.77734375 214.84375 571.77734375 238.525390625 580.078125 c 0,31,32
 262.20703125 588.37890625 262.20703125 588.37890625 281.982421875 595.703125 c 0,33,34
 301.7578125 603.02734375 301.7578125 603.02734375 313.96484375 607.91015625 c 0,35,-1
 336.9140625 585.9375 l 0,36,-1
 336.9140625 89.35546875 l 0,37,38
 336.9140625 84.47265625 336.9140625 84.47265625 342.28515625 78.857421875 c 0,39,40
 347.65625 73.2421875 347.65625 73.2421875 361.328125 67.3828125 c 0,41,42
 375 61.5234375 375 61.5234375 398.681640625 55.6640625 c 0,43,44
 422.36328125 49.8046875 422.36328125 49.8046875 458.984375 45.41015625 c 0,45,-1
 458.984375 0 l 0,46,-1
 73.2421875 0 l 0,0,-1
EndSplineSet
EndChar

StartChar: two
Encoding: 21 50 21
Width: 518
VWidth: 488
Flags: W
LayerCount: 2
Fore
SplineSet
459.47265625 0 m 0,0,-1
 52.24609375 0 l 0,1,-1
 38.0859375 36.1328125 l 0,2,3
 94.7265625 103.02734375 94.7265625 103.02734375 137.939453125 155.029296875 c 0,4,5
 181.15234375 207.03125 181.15234375 207.03125 212.646484375 247.314453125 c 0,6,7
 244.140625 287.59765625 244.140625 287.59765625 265.13671875 318.115234375 c 0,8,9
 286.1328125 348.6328125 286.1328125 348.6328125 298.583984375 372.55859375 c 0,10,11
 311.03515625 396.484375 311.03515625 396.484375 316.162109375 415.283203125 c 0,12,13
 321.2890625 434.08203125 321.2890625 434.08203125 321.2890625 451.171875 c 0,14,15
 321.2890625 471.19140625 321.2890625 471.19140625 317.3828125 488.28125 c 0,16,17
 313.4765625 505.37109375 313.4765625 505.37109375 305.17578125 517.822265625 c 0,18,19
 296.875 530.2734375 296.875 530.2734375 283.69140625 537.353515625 c 0,20,21
 270.5078125 544.43359375 270.5078125 544.43359375 252.44140625 544.43359375 c 0,22,23
 232.421875 544.43359375 232.421875 544.43359375 218.75 536.1328125 c 0,24,25
 205.078125 527.83203125 205.078125 527.83203125 197.509765625 513.916015625 c 0,26,27
 189.94140625 500 189.94140625 500 188.232421875 482.421875 c 0,28,29
 186.5234375 464.84375 186.5234375 464.84375 190.4296875 446.2890625 c 0,30,31
 182.12890625 441.89453125 182.12890625 441.89453125 166.50390625 436.279296875 c 0,32,33
 150.87890625 430.6640625 150.87890625 430.6640625 132.8125 425.78125 c 0,34,35
 114.74609375 420.8984375 114.74609375 420.8984375 97.65625 417.236328125 c 0,36,37
 80.56640625 413.57421875 80.56640625 413.57421875 69.3359375 412.59765625 c 0,38,-1
 51.26953125 451.66015625 l 0,39,40
 51.26953125 468.26171875 51.26953125 468.26171875 59.5703125 486.083984375 c 0,41,42
 67.87109375 503.90625 67.87109375 503.90625 83.251953125 520.751953125 c 0,43,44
 98.6328125 537.59765625 98.6328125 537.59765625 120.1171875 552.490234375 c 0,45,46
 141.6015625 567.3828125 141.6015625 567.3828125 167.724609375 578.61328125 c 0,47,48
 193.84765625 589.84375 193.84765625 589.84375 223.6328125 596.435546875 c 0,49,50
 253.41796875 603.02734375 253.41796875 603.02734375 285.64453125 603.02734375 c 0,51,52
 326.171875 603.02734375 326.171875 603.02734375 358.3984375 595.21484375 c 0,53,54
 390.625 587.40234375 390.625 587.40234375 413.330078125 572.509765625 c 0,55,56
 436.03515625 557.6171875 436.03515625 557.6171875 448.2421875 535.400390625 c 0,57,58
 460.44921875 513.18359375 460.44921875 513.18359375 460.44921875 484.375 c 0,59,60
 460.44921875 462.40234375 460.44921875 462.40234375 454.345703125 440.673828125 c 0,61,62
 448.2421875 418.9453125 448.2421875 418.9453125 434.814453125 394.53125 c 0,63,64
 421.38671875 370.1171875 421.38671875 370.1171875 399.90234375 341.552734375 c 0,65,66
 378.41796875 312.98828125 378.41796875 312.98828125 347.412109375 276.85546875 c 0,67,68
 316.40625 240.72265625 316.40625 240.72265625 275.146484375 195.80078125 c 0,69,70
 233.88671875 150.87890625 233.88671875 150.87890625 181.15234375 93.26171875 c 0,71,-1
 373.046875 93.26171875 l 0,72,73
 381.34765625 93.26171875 381.34765625 93.26171875 387.939453125 97.65625 c 0,74,75
 394.53125 102.05078125 394.53125 102.05078125 399.658203125 109.130859375 c 0,76,77
 404.78515625 116.2109375 404.78515625 116.2109375 408.447265625 125.244140625 c 0,78,79
 412.109375 134.27734375 412.109375 134.27734375 414.55078125 144.04296875 c 0,80,81
 420.41015625 166.50390625 420.41015625 166.50390625 422.8515625 194.82421875 c 0,82,-1
 466.796875 184.08203125 l 0,83,-1
 459.47265625 0 l 0,0,-1
EndSplineSet
EndChar

StartChar: three
Encoding: 22 51 22
Width: 518
VWidth: 488
Flags: W
LayerCount: 2
Fore
SplineSet
461.42578125 186.03515625 m 0,0,1
 461.42578125 145.01953125 461.42578125 145.01953125 444.3359375 108.3984375 c 0,2,3
 427.24609375 71.77734375 427.24609375 71.77734375 396.97265625 44.43359375 c 0,4,5
 366.69921875 17.08984375 366.69921875 17.08984375 324.70703125 1.220703125 c 0,6,7
 282.71484375 -14.6484375 282.71484375 -14.6484375 232.421875 -14.6484375 c 0,8,9
 213.37890625 -14.6484375 213.37890625 -14.6484375 188.720703125 -9.765625 c 0,10,11
 164.0625 -4.8828125 164.0625 -4.8828125 137.939453125 5.37109375 c 0,12,13
 111.81640625 15.625 111.81640625 15.625 85.9375 31.25 c 0,14,15
 60.05859375 46.875 60.05859375 46.875 38.0859375 67.87109375 c 0,16,-1
 59.5703125 120.1171875 l 0,17,18
 104.00390625 86.9140625 104.00390625 86.9140625 141.845703125 72.75390625 c 0,19,20
 179.6875 58.59375 179.6875 58.59375 216.30859375 58.59375 c 0,21,22
 237.3046875 58.59375 237.3046875 58.59375 256.103515625 65.185546875 c 0,23,24
 274.90234375 71.77734375 274.90234375 71.77734375 289.0625 85.693359375 c 0,25,26
 303.22265625 99.609375 303.22265625 99.609375 311.5234375 121.58203125 c 0,27,28
 319.82421875 143.5546875 319.82421875 143.5546875 319.82421875 174.8046875 c 0,29,30
 319.82421875 207.51953125 319.82421875 207.51953125 309.5703125 229.736328125 c 0,31,32
 299.31640625 251.953125 299.31640625 251.953125 284.1796875 265.13671875 c 0,33,34
 269.04296875 278.3203125 269.04296875 278.3203125 251.46484375 283.935546875 c 0,35,36
 233.88671875 289.55078125 233.88671875 289.55078125 219.7265625 289.55078125 c 0,37,-1
 208.0078125 289.55078125 l 0,38,39
 203.61328125 289.55078125 203.61328125 289.55078125 198.974609375 289.0625 c 0,40,41
 194.3359375 288.57421875 194.3359375 288.57421875 189.208984375 288.0859375 c 0,42,43
 184.08203125 287.59765625 184.08203125 287.59765625 176.7578125 286.1328125 c 0,44,-1
 167.48046875 334.9609375 l 0,45,46
 208.49609375 345.703125 208.49609375 345.703125 232.91015625 360.83984375 c 0,47,48
 257.32421875 375.9765625 257.32421875 375.9765625 270.5078125 392.822265625 c 0,49,50
 283.69140625 409.66796875 283.69140625 409.66796875 287.841796875 426.7578125 c 0,51,52
 291.9921875 443.84765625 291.9921875 443.84765625 291.9921875 458.984375 c 0,53,54
 291.9921875 475.5859375 291.9921875 475.5859375 289.0625 491.2109375 c 0,55,56
 286.1328125 506.8359375 286.1328125 506.8359375 279.296875 518.5546875 c 0,57,58
 272.4609375 530.2734375 272.4609375 530.2734375 260.986328125 537.353515625 c 0,59,60
 249.51171875 544.43359375 249.51171875 544.43359375 232.421875 544.43359375 c 0,61,62
 221.6796875 544.43359375 221.6796875 544.43359375 211.9140625 538.330078125 c 0,63,64
 202.1484375 532.2265625 202.1484375 532.2265625 195.556640625 521.728515625 c 0,65,66
 188.96484375 511.23046875 188.96484375 511.23046875 187.01171875 496.58203125 c 0,67,68
 185.05859375 481.93359375 185.05859375 481.93359375 190.4296875 465.33203125 c 0,69,70
 179.6875 458.984375 179.6875 458.984375 164.794921875 452.63671875 c 0,71,72
 149.90234375 446.2890625 149.90234375 446.2890625 133.544921875 440.91796875 c 0,73,74
 117.1875 435.546875 117.1875 435.546875 100.341796875 431.884765625 c 0,75,76
 83.49609375 428.22265625 83.49609375 428.22265625 68.84765625 426.7578125 c 0,77,-1
 51.26953125 461.42578125 l 0,78,79
 51.26953125 481.93359375 51.26953125 481.93359375 66.162109375 506.591796875 c 0,80,81
 81.0546875 531.25 81.0546875 531.25 108.3984375 552.734375 c 0,82,83
 135.7421875 574.21875 135.7421875 574.21875 174.31640625 588.623046875 c 0,84,85
 212.890625 603.02734375 212.890625 603.02734375 260.25390625 603.02734375 c 0,86,87
 307.6171875 603.02734375 307.6171875 603.02734375 340.576171875 591.30859375 c 0,88,89
 373.53515625 579.58984375 373.53515625 579.58984375 394.287109375 560.302734375 c 0,90,91
 415.0390625 541.015625 415.0390625 541.015625 424.31640625 516.845703125 c 0,92,93
 433.59375 492.67578125 433.59375 492.67578125 433.59375 467.7734375 c 0,94,95
 433.59375 449.21875 433.59375 449.21875 426.025390625 429.931640625 c 0,96,97
 418.45703125 410.64453125 418.45703125 410.64453125 404.541015625 393.06640625 c 0,98,99
 390.625 375.48828125 390.625 375.48828125 371.58203125 361.572265625 c 0,100,101
 352.5390625 347.65625 352.5390625 347.65625 329.58984375 340.8203125 c 0,102,103
 360.3515625 337.890625 360.3515625 337.890625 384.765625 324.462890625 c 0,104,105
 409.1796875 311.03515625 409.1796875 311.03515625 426.26953125 290.0390625 c 0,106,107
 443.359375 269.04296875 443.359375 269.04296875 452.392578125 242.431640625 c 0,108,109
 461.42578125 215.8203125 461.42578125 215.8203125 461.42578125 186.03515625 c 0,0,1
EndSplineSet
EndChar

StartChar: four
Encoding: 23 52 23
Width: 518
VWidth: 488
Flags: W
LayerCount: 2
Fore
SplineSet
480.46875 219.7265625 m 0,0,1
 475.09765625 211.9140625 475.09765625 211.9140625 468.26171875 203.369140625 c 0,2,3
 461.42578125 194.82421875 461.42578125 194.82421875 454.1015625 186.767578125 c 0,4,5
 446.77734375 178.7109375 446.77734375 178.7109375 439.697265625 172.119140625 c 0,6,7
 432.6171875 165.52734375 432.6171875 165.52734375 427.24609375 161.1328125 c 0,8,-1
 402.83203125 161.1328125 l 0,9,-1
 402.83203125 70.3125 l 0,10,11
 402.83203125 66.40625 402.83203125 66.40625 405.76171875 63.232421875 c 0,12,13
 408.69140625 60.05859375 408.69140625 60.05859375 416.50390625 56.396484375 c 0,14,15
 424.31640625 52.734375 424.31640625 52.734375 437.5 48.828125 c 0,16,17
 450.68359375 44.921875 450.68359375 44.921875 470.703125 40.52734375 c 0,18,-1
 470.703125 0 l 0,19,-1
 173.33984375 0 l 0,20,-1
 173.33984375 40.52734375 l 0,21,22
 205.078125 45.8984375 205.078125 45.8984375 225.09765625 50.537109375 c 0,23,24
 245.1171875 55.17578125 245.1171875 55.17578125 256.34765625 59.326171875 c 0,25,26
 267.578125 63.4765625 267.578125 63.4765625 271.728515625 67.3828125 c 0,27,28
 275.87890625 71.2890625 275.87890625 71.2890625 275.87890625 75.68359375 c 0,29,-1
 275.87890625 161.1328125 l 0,30,-1
 47.8515625 161.1328125 l 0,31,-1
 26.85546875 182.12890625 l 0,32,-1
 259.27734375 568.359375 l 0,33,34
 271.484375 572.265625 271.484375 572.265625 287.353515625 577.392578125 c 0,35,36
 303.22265625 582.51953125 303.22265625 582.51953125 319.82421875 587.890625 c 0,37,38
 336.42578125 593.26171875 336.42578125 593.26171875 352.294921875 598.388671875 c 0,39,40
 368.1640625 603.515625 368.1640625 603.515625 379.8828125 607.91015625 c 0,41,-1
 402.83203125 585.9375 l 0,42,-1
 402.83203125 234.375 l 0,43,-1
 467.7734375 234.375 l 0,44,-1
 480.46875 219.7265625 l 0,0,1
275.87890625 468.75 m 0,45,-1
 128.41796875 234.375 l 0,46,-1
 275.87890625 234.375 l 0,47,-1
 275.87890625 468.75 l 0,45,-1
EndSplineSet
EndChar

StartChar: five
Encoding: 24 53 24
Width: 518
VWidth: 488
Flags: W
LayerCount: 2
Fore
SplineSet
461.9140625 200.1953125 m 0,0,1
 461.9140625 157.71484375 461.9140625 157.71484375 448.974609375 118.896484375 c 0,2,3
 436.03515625 80.078125 436.03515625 80.078125 408.203125 50.29296875 c 0,4,5
 380.37109375 20.5078125 380.37109375 20.5078125 337.40234375 2.9296875 c 0,6,7
 294.43359375 -14.6484375 294.43359375 -14.6484375 234.375 -14.6484375 c 0,8,9
 211.9140625 -14.6484375 211.9140625 -14.6484375 186.279296875 -9.521484375 c 0,10,11
 160.64453125 -4.39453125 160.64453125 -4.39453125 134.765625 5.859375 c 0,12,13
 108.88671875 16.11328125 108.88671875 16.11328125 83.984375 31.005859375 c 0,14,15
 59.08203125 45.8984375 59.08203125 45.8984375 38.0859375 65.4296875 c 0,16,-1
 64.94140625 112.79296875 l 0,17,18
 90.8203125 94.7265625 90.8203125 94.7265625 113.525390625 83.251953125 c 0,19,20
 136.23046875 71.77734375 136.23046875 71.77734375 156.005859375 65.185546875 c 0,21,22
 175.78125 58.59375 175.78125 58.59375 192.626953125 56.15234375 c 0,23,24
 209.47265625 53.7109375 209.47265625 53.7109375 223.6328125 53.7109375 c 0,25,26
 245.60546875 53.7109375 245.60546875 53.7109375 264.892578125 62.98828125 c 0,27,28
 284.1796875 72.265625 284.1796875 72.265625 298.828125 88.623046875 c 0,29,30
 313.4765625 104.98046875 313.4765625 104.98046875 321.77734375 128.173828125 c 0,31,32
 330.078125 151.3671875 330.078125 151.3671875 330.078125 179.19921875 c 0,33,34
 330.078125 212.40234375 330.078125 212.40234375 321.2890625 237.548828125 c 0,35,36
 312.5 262.6953125 312.5 262.6953125 297.36328125 279.296875 c 0,37,38
 282.2265625 295.8984375 282.2265625 295.8984375 261.23046875 304.19921875 c 0,39,40
 240.234375 312.5 240.234375 312.5 216.30859375 312.5 c 0,41,42
 193.84765625 312.5 193.84765625 312.5 176.025390625 309.326171875 c 0,43,44
 158.203125 306.15234375 158.203125 306.15234375 143.310546875 300.29296875 c 0,45,46
 128.41796875 294.43359375 128.41796875 294.43359375 115.478515625 286.376953125 c 0,47,48
 102.5390625 278.3203125 102.5390625 278.3203125 89.84375 268.5546875 c 0,49,-1
 66.89453125 284.66796875 l 0,50,51
 69.82421875 302.24609375 69.82421875 302.24609375 73.73046875 326.904296875 c 0,52,53
 77.63671875 351.5625 77.63671875 351.5625 81.787109375 379.638671875 c 0,54,55
 85.9375 407.71484375 85.9375 407.71484375 90.087890625 437.255859375 c 0,56,57
 94.23828125 466.796875 94.23828125 466.796875 97.65625 494.62890625 c 0,58,59
 101.07421875 522.4609375 101.07421875 522.4609375 103.515625 546.875 c 0,60,61
 105.95703125 571.2890625 105.95703125 571.2890625 106.93359375 588.37890625 c 0,62,-1
 378.41796875 588.37890625 l 0,63,64
 392.578125 588.37890625 392.578125 588.37890625 403.3203125 589.599609375 c 0,65,66
 414.0625 590.8203125 414.0625 590.8203125 421.875 592.7734375 c 0,67,68
 430.6640625 594.7265625 430.6640625 594.7265625 437.5 597.16796875 c 0,69,-1
 456.54296875 578.125 l 0,70,71
 451.171875 570.3125 451.171875 570.3125 441.650390625 557.12890625 c 0,72,73
 432.12890625 543.9453125 432.12890625 543.9453125 421.630859375 530.76171875 c 0,74,75
 411.1328125 517.578125 411.1328125 517.578125 401.611328125 506.34765625 c 0,76,77
 392.08984375 495.1171875 392.08984375 495.1171875 386.23046875 490.72265625 c 0,78,-1
 167.96875 490.72265625 l 0,79,80
 166.9921875 476.5625 166.9921875 476.5625 165.0390625 459.716796875 c 0,81,82
 163.0859375 442.87109375 163.0859375 442.87109375 160.64453125 426.025390625 c 0,83,84
 158.203125 409.1796875 158.203125 409.1796875 155.2734375 394.04296875 c 0,85,86
 152.34375 378.90625 152.34375 378.90625 150.390625 368.1640625 c 0,87,88
 172.8515625 378.90625 172.8515625 378.90625 199.951171875 384.765625 c 0,89,90
 227.05078125 390.625 227.05078125 390.625 260.25390625 390.625 c 0,91,92
 311.03515625 390.625 311.03515625 390.625 348.876953125 374.267578125 c 0,93,94
 386.71875 357.91015625 386.71875 357.91015625 411.865234375 331.298828125 c 0,95,96
 437.01171875 304.6875 437.01171875 304.6875 449.462890625 270.263671875 c 0,97,98
 461.9140625 235.83984375 461.9140625 235.83984375 461.9140625 200.1953125 c 0,0,1
EndSplineSet
EndChar

StartChar: six
Encoding: 25 54 25
Width: 518
VWidth: 488
Flags: W
LayerCount: 2
Fore
SplineSet
488.76953125 201.171875 m 0,0,1
 488.76953125 178.22265625 488.76953125 178.22265625 482.666015625 153.3203125 c 0,2,3
 476.5625 128.41796875 476.5625 128.41796875 464.84375 104.4921875 c 0,4,5
 453.125 80.56640625 453.125 80.56640625 435.302734375 59.08203125 c 0,6,7
 417.48046875 37.59765625 417.48046875 37.59765625 393.798828125 21.240234375 c 0,8,9
 370.1171875 4.8828125 370.1171875 4.8828125 340.8203125 -4.8828125 c 0,10,11
 311.5234375 -14.6484375 311.5234375 -14.6484375 276.3671875 -14.6484375 c 0,12,13
 228.02734375 -14.6484375 228.02734375 -14.6484375 185.546875 3.173828125 c 0,14,15
 143.06640625 20.99609375 143.06640625 20.99609375 111.572265625 53.22265625 c 0,16,17
 80.078125 85.44921875 80.078125 85.44921875 62.01171875 130.615234375 c 0,18,19
 43.9453125 175.78125 43.9453125 175.78125 43.9453125 230.95703125 c 0,20,21
 43.9453125 299.8046875 43.9453125 299.8046875 68.359375 363.037109375 c 0,22,23
 92.7734375 426.26953125 92.7734375 426.26953125 140.869140625 476.806640625 c 0,24,25
 188.96484375 527.34375 188.96484375 527.34375 259.765625 562.255859375 c 0,26,27
 330.56640625 597.16796875 330.56640625 597.16796875 423.828125 609.86328125 c 0,28,-1
 437.98828125 561.5234375 l 0,29,30
 378.41796875 548.828125 378.41796875 548.828125 335.44921875 526.85546875 c 0,31,32
 292.48046875 504.8828125 292.48046875 504.8828125 263.18359375 475.5859375 c 0,33,34
 233.88671875 446.2890625 233.88671875 446.2890625 216.796875 411.1328125 c 0,35,36
 199.70703125 375.9765625 199.70703125 375.9765625 192.3828125 337.40234375 c 0,37,38
 222.16796875 360.83984375 222.16796875 360.83984375 252.197265625 373.291015625 c 0,39,40
 282.2265625 385.7421875 282.2265625 385.7421875 308.10546875 385.7421875 c 0,41,42
 350.5859375 385.7421875 350.5859375 385.7421875 384.033203125 371.826171875 c 0,43,44
 417.48046875 357.91015625 417.48046875 357.91015625 440.673828125 333.49609375 c 0,45,46
 463.8671875 309.08203125 463.8671875 309.08203125 476.318359375 275.146484375 c 0,47,48
 488.76953125 241.2109375 488.76953125 241.2109375 488.76953125 201.171875 c 0,0,1
273.4375 312.5 m 0,49,50
 253.90625 312.5 253.90625 312.5 230.95703125 298.828125 c 0,51,52
 208.0078125 285.15625 208.0078125 285.15625 185.546875 261.71875 c 0,53,54
 185.546875 204.1015625 185.546875 204.1015625 193.359375 164.0625 c 0,55,56
 201.171875 124.0234375 201.171875 124.0234375 214.84375 98.876953125 c 0,57,58
 228.515625 73.73046875 228.515625 73.73046875 246.826171875 62.5 c 0,59,60
 265.13671875 51.26953125 265.13671875 51.26953125 285.64453125 51.26953125 c 0,61,62
 305.17578125 51.26953125 305.17578125 51.26953125 318.115234375 61.279296875 c 0,63,64
 331.0546875 71.2890625 331.0546875 71.2890625 338.623046875 87.890625 c 0,65,66
 346.19140625 104.4921875 346.19140625 104.4921875 349.12109375 125.9765625 c 0,67,68
 352.05078125 147.4609375 352.05078125 147.4609375 352.05078125 169.921875 c 0,69,70
 352.05078125 215.8203125 352.05078125 215.8203125 345.458984375 243.65234375 c 0,71,72
 338.8671875 271.484375 338.8671875 271.484375 327.880859375 286.865234375 c 0,73,74
 316.89453125 302.24609375 316.89453125 302.24609375 302.734375 307.373046875 c 0,75,76
 288.57421875 312.5 288.57421875 312.5 273.4375 312.5 c 0,49,50
EndSplineSet
EndChar

StartChar: seven
Encoding: 26 55 26
Width: 518
VWidth: 488
Flags: W
LayerCount: 2
Fore
SplineSet
480.95703125 569.82421875 m 0,0,1
 458.49609375 517.08984375 458.49609375 517.08984375 436.767578125 463.8671875 c 0,2,3
 415.0390625 410.64453125 415.0390625 410.64453125 394.775390625 358.88671875 c 0,4,5
 374.51171875 307.12890625 374.51171875 307.12890625 356.4453125 258.30078125 c 0,6,7
 338.37890625 209.47265625 338.37890625 209.47265625 322.998046875 166.748046875 c 0,8,9
 307.6171875 124.0234375 307.6171875 124.0234375 295.166015625 88.134765625 c 0,10,11
 282.71484375 52.24609375 282.71484375 52.24609375 274.4140625 26.3671875 c 0,12,13
 265.625 20.5078125 265.625 20.5078125 250.732421875 14.404296875 c 0,14,15
 235.83984375 8.30078125 235.83984375 8.30078125 218.75 2.9296875 c 0,16,17
 201.66015625 -2.44140625 201.66015625 -2.44140625 185.05859375 -7.080078125 c 0,18,19
 168.45703125 -11.71875 168.45703125 -11.71875 156.25 -14.6484375 c 0,20,-1
 131.34765625 6.34765625 l 0,21,22
 159.66796875 56.15234375 159.66796875 56.15234375 183.59375 99.853515625 c 0,23,24
 207.51953125 143.5546875 207.51953125 143.5546875 228.271484375 183.59375 c 0,25,26
 249.0234375 223.6328125 249.0234375 223.6328125 267.578125 260.986328125 c 0,27,28
 286.1328125 298.33984375 286.1328125 298.33984375 303.466796875 335.693359375 c 0,29,30
 320.80078125 373.046875 320.80078125 373.046875 337.646484375 411.1328125 c 0,31,32
 354.4921875 449.21875 354.4921875 449.21875 372.55859375 490.72265625 c 0,33,-1
 155.76171875 490.72265625 l 0,34,35
 148.4375 490.72265625 148.4375 490.72265625 140.13671875 488.76953125 c 0,36,37
 131.8359375 486.81640625 131.8359375 486.81640625 122.55859375 478.759765625 c 0,38,39
 113.28125 470.703125 113.28125 470.703125 103.271484375 454.58984375 c 0,40,41
 93.26171875 438.4765625 93.26171875 438.4765625 83.0078125 410.15625 c 0,42,-1
 45.8984375 423.828125 l 0,43,44
 46.875 431.15234375 46.875 431.15234375 48.828125 444.3359375 c 0,45,46
 50.78125 457.51953125 50.78125 457.51953125 52.978515625 473.388671875 c 0,47,48
 55.17578125 489.2578125 55.17578125 489.2578125 57.6171875 506.591796875 c 0,49,50
 60.05859375 523.92578125 60.05859375 523.92578125 62.5 539.55078125 c 0,51,52
 64.94140625 555.17578125 64.94140625 555.17578125 67.3828125 568.115234375 c 0,53,54
 69.82421875 581.0546875 69.82421875 581.0546875 71.77734375 588.37890625 c 0,55,-1
 464.84375 588.37890625 l 0,56,-1
 480.95703125 569.82421875 l 0,0,1
EndSplineSet
EndChar

StartChar: eight
Encoding: 27 56 27
Width: 518
VWidth: 488
Flags: W
LayerCount: 2
Fore
SplineSet
481.93359375 171.875 m 0,0,1
 481.93359375 133.7890625 481.93359375 133.7890625 464.111328125 100.09765625 c 0,2,3
 446.2890625 66.40625 446.2890625 66.40625 415.0390625 40.771484375 c 0,4,5
 383.7890625 15.13671875 383.7890625 15.13671875 341.30859375 0.244140625 c 0,6,7
 298.828125 -14.6484375 298.828125 -14.6484375 249.51171875 -14.6484375 c 0,8,9
 196.77734375 -14.6484375 196.77734375 -14.6484375 156.73828125 -1.953125 c 0,10,11
 116.69921875 10.7421875 116.69921875 10.7421875 90.087890625 32.2265625 c 0,12,13
 63.4765625 53.7109375 63.4765625 53.7109375 49.8046875 81.298828125 c 0,14,15
 36.1328125 108.88671875 36.1328125 108.88671875 36.1328125 139.16015625 c 0,16,17
 36.1328125 164.0625 36.1328125 164.0625 46.142578125 187.744140625 c 0,18,19
 56.15234375 211.42578125 56.15234375 211.42578125 73.974609375 232.91015625 c 0,20,21
 91.796875 254.39453125 91.796875 254.39453125 116.69921875 272.94921875 c 0,22,23
 141.6015625 291.50390625 141.6015625 291.50390625 171.38671875 306.640625 c 0,24,25
 149.4140625 316.89453125 149.4140625 316.89453125 129.39453125 328.857421875 c 0,26,27
 109.375 340.8203125 109.375 340.8203125 94.23828125 357.177734375 c 0,28,29
 79.1015625 373.53515625 79.1015625 373.53515625 70.068359375 395.263671875 c 0,30,31
 61.03515625 416.9921875 61.03515625 416.9921875 61.03515625 446.77734375 c 0,32,33
 61.03515625 480.46875 61.03515625 480.46875 76.904296875 509.27734375 c 0,34,35
 92.7734375 538.0859375 92.7734375 538.0859375 120.361328125 558.837890625 c 0,36,37
 147.94921875 579.58984375 147.94921875 579.58984375 185.05859375 591.30859375 c 0,38,39
 222.16796875 603.02734375 222.16796875 603.02734375 264.6484375 603.02734375 c 0,40,41
 313.96484375 603.02734375 313.96484375 603.02734375 350.341796875 593.26171875 c 0,42,43
 386.71875 583.49609375 386.71875 583.49609375 410.400390625 566.40625 c 0,44,45
 434.08203125 549.31640625 434.08203125 549.31640625 445.80078125 525.390625 c 0,46,47
 457.51953125 501.46484375 457.51953125 501.46484375 457.51953125 473.14453125 c 0,48,49
 457.51953125 454.1015625 457.51953125 454.1015625 449.21875 437.01171875 c 0,50,51
 440.91796875 419.921875 440.91796875 419.921875 426.513671875 404.052734375 c 0,52,53
 412.109375 388.18359375 412.109375 388.18359375 392.578125 373.291015625 c 0,54,55
 373.046875 358.3984375 373.046875 358.3984375 350.09765625 344.23828125 c 0,56,57
 375.48828125 332.51953125 375.48828125 332.51953125 399.4140625 317.87109375 c 0,58,59
 423.33984375 303.22265625 423.33984375 303.22265625 441.650390625 282.958984375 c 0,60,61
 459.9609375 262.6953125 459.9609375 262.6953125 470.947265625 235.595703125 c 0,62,63
 481.93359375 208.49609375 481.93359375 208.49609375 481.93359375 171.875 c 0,0,1
340.33203125 150.87890625 m 0,64,65
 340.33203125 177.734375 340.33203125 177.734375 331.787109375 197.75390625 c 0,66,67
 323.2421875 217.7734375 323.2421875 217.7734375 308.59375 232.666015625 c 0,68,69
 293.9453125 247.55859375 293.9453125 247.55859375 274.4140625 258.7890625 c 0,70,71
 254.8828125 270.01953125 254.8828125 270.01953125 233.3984375 279.78515625 c 0,72,73
 206.0546875 250.9765625 206.0546875 250.9765625 191.89453125 221.6796875 c 0,74,75
 177.734375 192.3828125 177.734375 192.3828125 177.734375 153.80859375 c 0,76,77
 177.734375 128.41796875 177.734375 128.41796875 185.546875 108.88671875 c 0,78,79
 193.359375 89.35546875 193.359375 89.35546875 205.810546875 75.927734375 c 0,80,81
 218.26171875 62.5 218.26171875 62.5 233.3984375 55.6640625 c 0,82,83
 248.53515625 48.828125 248.53515625 48.828125 263.671875 48.828125 c 0,84,85
 281.25 48.828125 281.25 48.828125 295.654296875 56.884765625 c 0,86,87
 310.05859375 64.94140625 310.05859375 64.94140625 319.82421875 78.61328125 c 0,88,89
 329.58984375 92.28515625 329.58984375 92.28515625 334.9609375 110.83984375 c 0,90,91
 340.33203125 129.39453125 340.33203125 129.39453125 340.33203125 150.87890625 c 0,64,65
187.98828125 463.8671875 m 0,92,93
 187.98828125 446.2890625 187.98828125 446.2890625 195.556640625 433.10546875 c 0,94,95
 203.125 419.921875 203.125 419.921875 216.30859375 409.1796875 c 0,96,97
 229.4921875 398.4375 229.4921875 398.4375 247.0703125 389.404296875 c 0,98,99
 264.6484375 380.37109375 264.6484375 380.37109375 284.66796875 372.0703125 c 0,100,101
 321.2890625 415.52734375 321.2890625 415.52734375 320.80078125 458.0078125 c 0,102,103
 320.80078125 483.3984375 320.80078125 483.3984375 314.453125 499.755859375 c 0,104,105
 308.10546875 516.11328125 308.10546875 516.11328125 298.095703125 525.634765625 c 0,106,107
 288.0859375 535.15625 288.0859375 535.15625 275.390625 538.818359375 c 0,108,109
 262.6953125 542.48046875 262.6953125 542.48046875 249.51171875 542.48046875 c 0,110,111
 234.86328125 542.48046875 234.86328125 542.48046875 223.6328125 536.376953125 c 0,112,113
 212.40234375 530.2734375 212.40234375 530.2734375 204.345703125 519.53125 c 0,114,115
 196.2890625 508.7890625 196.2890625 508.7890625 192.138671875 494.62890625 c 0,116,117
 187.98828125 480.46875 187.98828125 480.46875 187.98828125 463.8671875 c 0,92,93
EndSplineSet
EndChar

StartChar: nine
Encoding: 28 57 28
Width: 518
VWidth: 488
Flags: W
LayerCount: 2
Fore
SplineSet
483.3984375 356.93359375 m 0,0,1
 483.3984375 282.71484375 483.3984375 282.71484375 459.228515625 218.26171875 c 0,2,3
 435.05859375 153.80859375 435.05859375 153.80859375 387.451171875 104.248046875 c 0,4,5
 339.84375 54.6875 339.84375 54.6875 268.310546875 21.97265625 c 0,6,7
 196.77734375 -10.7421875 196.77734375 -10.7421875 102.5390625 -20.99609375 c 0,8,-1
 88.8671875 27.34375 l 0,9,10
 157.71484375 43.9453125 157.71484375 43.9453125 203.61328125 66.89453125 c 0,11,12
 249.51171875 89.84375 249.51171875 89.84375 278.076171875 118.1640625 c 0,13,14
 306.640625 146.484375 306.640625 146.484375 320.556640625 180.17578125 c 0,15,16
 334.47265625 213.8671875 334.47265625 213.8671875 338.8671875 251.953125 c 0,17,18
 313.96484375 229.00390625 313.96484375 229.00390625 283.447265625 215.8203125 c 0,19,20
 252.9296875 202.63671875 252.9296875 202.63671875 218.75 202.63671875 c 0,21,22
 174.31640625 202.63671875 174.31640625 202.63671875 140.869140625 218.017578125 c 0,23,24
 107.421875 233.3984375 107.421875 233.3984375 84.716796875 259.033203125 c 0,25,26
 62.01171875 284.66796875 62.01171875 284.66796875 50.537109375 318.115234375 c 0,27,28
 39.0625 351.5625 39.0625 351.5625 39.0625 388.18359375 c 0,29,30
 39.0625 425.29296875 39.0625 425.29296875 55.6640625 463.37890625 c 0,31,32
 72.265625 501.46484375 72.265625 501.46484375 102.294921875 532.470703125 c 0,33,34
 132.32421875 563.4765625 132.32421875 563.4765625 174.072265625 583.251953125 c 0,35,36
 215.8203125 603.02734375 215.8203125 603.02734375 266.6015625 603.02734375 c 0,37,38
 315.4296875 603.02734375 315.4296875 603.02734375 355.224609375 588.8671875 c 0,39,40
 395.01953125 574.70703125 395.01953125 574.70703125 423.583984375 544.677734375 c 0,41,42
 452.1484375 514.6484375 452.1484375 514.6484375 467.7734375 468.26171875 c 0,43,44
 483.3984375 421.875 483.3984375 421.875 483.3984375 356.93359375 c 0,0,1
254.39453125 280.76171875 m 0,45,46
 280.2734375 280.76171875 280.2734375 280.76171875 302.001953125 293.212890625 c 0,47,48
 323.73046875 305.6640625 323.73046875 305.6640625 341.796875 325.68359375 c 0,49,50
 340.8203125 393.5546875 340.8203125 393.5546875 333.0078125 435.05859375 c 0,51,52
 325.1953125 476.5625 325.1953125 476.5625 313.4765625 499.267578125 c 0,53,54
 301.7578125 521.97265625 301.7578125 521.97265625 286.865234375 529.541015625 c 0,55,56
 271.97265625 537.109375 271.97265625 537.109375 256.34765625 537.109375 c 0,57,58
 218.26171875 537.109375 218.26171875 537.109375 197.021484375 506.591796875 c 0,59,60
 175.78125 476.07421875 175.78125 476.07421875 175.78125 417.96875 c 0,61,62
 175.78125 378.41796875 175.78125 378.41796875 184.08203125 351.806640625 c 0,63,64
 192.3828125 325.1953125 192.3828125 325.1953125 204.58984375 309.5703125 c 0,65,66
 216.796875 293.9453125 216.796875 293.9453125 230.46875 287.353515625 c 0,67,68
 244.140625 280.76171875 244.140625 280.76171875 254.39453125 280.76171875 c 0,45,46
EndSplineSet
EndChar

StartChar: colon
Encoding: 29 58 29
Width: 282
Flags: W
LayerCount: 2
Fore
SplineSet
229 416 m 256,0,1
 229 399 229 399 223 384 c 128,-1,2
 217 369 217 369 206 358 c 128,-1,3
 195 347 195 347 180 341 c 128,-1,4
 165 335 165 335 148 335 c 256,5,6
 131 335 131 335 116 341 c 128,-1,7
 101 347 101 347 90 358 c 128,-1,8
 79 369 79 369 72.5 384 c 128,-1,9
 66 399 66 399 66 416 c 256,10,11
 66 433 66 433 72.5 448 c 128,-1,12
 79 463 79 463 90 474 c 128,-1,13
 101 485 101 485 116 491.5 c 128,-1,14
 131 498 131 498 148 498 c 256,15,16
 165 498 165 498 180 491.5 c 128,-1,17
 195 485 195 485 206 474 c 128,-1,18
 217 463 217 463 223 448 c 128,-1,19
 229 433 229 433 229 416 c 256,0,1
229 71 m 256,20,21
 229 54 229 54 223 39 c 128,-1,22
 217 24 217 24 206 13 c 128,-1,23
 195 2 195 2 180 -4.5 c 128,-1,24
 165 -11 165 -11 148 -11 c 256,25,26
 131 -11 131 -11 116 -4.5 c 128,-1,27
 101 2 101 2 90 13 c 128,-1,28
 79 24 79 24 72.5 39 c 128,-1,29
 66 54 66 54 66 71 c 256,30,31
 66 88 66 88 72.5 103 c 128,-1,32
 79 118 79 118 90 129 c 128,-1,33
 101 140 101 140 116 146.5 c 128,-1,34
 131 153 131 153 148 153 c 256,35,36
 165 153 165 153 180 146.5 c 128,-1,37
 195 140 195 140 206 129 c 128,-1,38
 217 118 217 118 223 103 c 128,-1,39
 229 88 229 88 229 71 c 256,20,21
EndSplineSet
Refer: 17 46 N 1 0 0 1 0 333.984 2
Refer: 17 46 N 1 0 0 1 0 0 2
EndChar

StartChar: semicolon
Encoding: 30 59 30
Width: 282
Flags: W
LayerCount: 2
Fore
SplineSet
229 416 m 256,0,1
 229 399 229 399 223 384 c 128,-1,2
 217 369 217 369 206 358 c 128,-1,3
 195 347 195 347 180 341 c 128,-1,4
 165 335 165 335 148 335 c 256,5,6
 131 335 131 335 116 341 c 128,-1,7
 101 347 101 347 90 358 c 128,-1,8
 79 369 79 369 72.5 384 c 128,-1,9
 66 399 66 399 66 416 c 256,10,11
 66 433 66 433 72.5 448 c 128,-1,12
 79 463 79 463 90 474 c 128,-1,13
 101 485 101 485 116 491.5 c 128,-1,14
 131 498 131 498 148 498 c 256,15,16
 165 498 165 498 180 491.5 c 128,-1,17
 195 485 195 485 206 474 c 128,-1,18
 217 463 217 463 223 448 c 128,-1,19
 229 433 229 433 229 416 c 256,0,1
241 59 m 0,20,21
 241 28 241 28 232.5 -0.5 c 128,-1,22
 224 -29 224 -29 209.5 -54.5 c 128,-1,23
 195 -80 195 -80 175 -101 c 128,-1,24
 155 -122 155 -122 132.5 -137.5 c 128,-1,25
 110 -153 110 -153 85.5 -162.5 c 128,-1,26
 61 -172 61 -172 38 -173 c 1,27,-1
 38 -125 l 1,28,29
 57 -123 57 -123 78.5 -115 c 128,-1,30
 100 -107 100 -107 118 -91.5 c 128,-1,31
 136 -76 136 -76 147 -52 c 128,-1,32
 158 -28 158 -28 157 7 c 1,33,-1
 97 7 l 1,34,35
 88 14 88 14 82.5 22 c 128,-1,36
 77 30 77 30 73.5 38 c 128,-1,37
 70 46 70 46 69 54 c 128,-1,38
 68 62 68 62 68 69 c 0,39,40
 68 88 68 88 75 103 c 128,-1,41
 82 118 82 118 93.5 128.5 c 128,-1,42
 105 139 105 139 120 145 c 128,-1,43
 135 151 135 151 151 151 c 0,44,45
 196 151 196 151 220.5 125.5 c 128,-1,46
 245 100 245 100 241 59 c 0,20,21
EndSplineSet
Refer: 17 46 N 1 0 0 1 0 333.984 2
Refer: 15 44 N 1 0 0 1 0 0 2
EndChar

StartChar: less
Encoding: 31 60 31
Width: 458
VWidth: 488
Flags: W
LayerCount: 2
Fore
SplineSet
434.5703125 164.0625 m 0,0,1
 429.19921875 159.1796875 429.19921875 159.1796875 422.607421875 152.587890625 c 0,2,3
 416.015625 145.99609375 416.015625 145.99609375 408.935546875 139.16015625 c 0,4,5
 401.85546875 132.32421875 401.85546875 132.32421875 394.04296875 125.9765625 c 0,6,7
 386.23046875 119.62890625 386.23046875 119.62890625 378.90625 115.234375 c 0,8,-1
 41.50390625 234.375 l 0,9,-1
 24.4140625 256.34765625 l 0,10,11
 24.4140625 257.8125 24.4140625 257.8125 24.90234375 258.30078125 c 0,12,13
 24.90234375 259.27734375 24.90234375 259.27734375 25.146484375 259.521484375 c 0,14,15
 25.390625 259.765625 25.390625 259.765625 25.390625 260.7421875 c 0,16,-1
 26.3671875 263.671875 l 0,17,-1
 27.34375 268.06640625 l 0,18,-1
 29.296875 274.90234375 l 0,19,-1
 31.25 280.2734375 l 0,20,-1
 33.203125 287.59765625 l 0,21,-1
 35.15625 293.45703125 l 0,22,23
 35.64453125 295.8984375 35.64453125 295.8984375 37.59765625 300.78125 c 0,24,25
 37.59765625 301.7578125 37.59765625 301.7578125 38.0859375 302.24609375 c 0,26,-1
 39.0625 305.6640625 l 0,27,28
 39.55078125 306.15234375 39.55078125 306.15234375 39.55078125 307.12890625 c 0,29,-1
 41.9921875 313.4765625 l 0,30,-1
 44.43359375 319.3359375 l 0,31,-1
 417.48046875 452.63671875 l 0,32,-1
 434.5703125 435.546875 l 0,33,34
 433.10546875 430.17578125 433.10546875 430.17578125 430.6640625 420.8984375 c 0,35,36
 428.22265625 411.62109375 428.22265625 411.62109375 425.29296875 401.3671875 c 0,37,38
 422.36328125 391.11328125 422.36328125 391.11328125 419.677734375 381.8359375 c 0,39,40
 416.9921875 372.55859375 416.9921875 372.55859375 415.52734375 368.1640625 c 0,41,-1
 162.59765625 277.34375 l 0,42,-1
 421.38671875 186.5234375 l 0,43,-1
 434.5703125 164.0625 l 0,0,1
EndSplineSet
EndChar

StartChar: equal
Encoding: 32 61 32
Width: 458
VWidth: 488
Flags: W
LayerCount: 2
Fore
SplineSet
434.5703125 369.140625 m 0,0,1
 433.10546875 363.76953125 433.10546875 363.76953125 429.6875 355.46875 c 0,2,3
 426.26953125 347.16796875 426.26953125 347.16796875 422.36328125 338.37890625 c 0,4,5
 418.45703125 329.58984375 418.45703125 329.58984375 415.0390625 321.77734375 c 0,6,7
 411.62109375 313.96484375 411.62109375 313.96484375 409.66796875 310.05859375 c 0,8,-1
 41.50390625 310.05859375 l 0,9,-1
 24.4140625 326.66015625 l 0,10,11
 25.87890625 332.03125 25.87890625 332.03125 29.052734375 340.087890625 c 0,12,13
 32.2265625 348.14453125 32.2265625 348.14453125 35.888671875 356.689453125 c 0,14,15
 39.55078125 365.234375 39.55078125 365.234375 43.212890625 373.046875 c 0,16,17
 46.875 380.859375 46.875 380.859375 49.31640625 385.7421875 c 0,18,-1
 417.48046875 385.7421875 l 0,19,-1
 434.5703125 369.140625 l 0,0,1
434.5703125 222.65625 m 0,20,21
 433.10546875 217.28515625 433.10546875 217.28515625 429.6875 208.984375 c 0,22,23
 426.26953125 200.68359375 426.26953125 200.68359375 422.36328125 191.89453125 c 0,24,25
 418.45703125 183.10546875 418.45703125 183.10546875 415.0390625 175.29296875 c 0,26,27
 411.62109375 167.48046875 411.62109375 167.48046875 409.66796875 163.57421875 c 0,28,-1
 41.50390625 163.57421875 l 0,29,-1
 24.4140625 180.17578125 l 0,30,31
 25.87890625 185.546875 25.87890625 185.546875 29.052734375 193.603515625 c 0,32,33
 32.2265625 201.66015625 32.2265625 201.66015625 35.888671875 210.205078125 c 0,34,35
 39.55078125 218.75 39.55078125 218.75 43.212890625 226.5625 c 0,36,37
 46.875 234.375 46.875 234.375 49.31640625 239.2578125 c 0,38,-1
 417.48046875 239.2578125 l 0,39,-1
 434.5703125 222.65625 l 0,20,21
EndSplineSet
EndChar

StartChar: greater
Encoding: 33 62 33
Width: 458
VWidth: 488
Flags: W
LayerCount: 2
Fore
SplineSet
434.5703125 311.5234375 m 0,0,1
 431.15234375 297.36328125 431.15234375 297.36328125 425.29296875 279.296875 c 0,2,3
 419.43359375 261.23046875 419.43359375 261.23046875 414.55078125 248.53515625 c 0,4,-1
 41.50390625 115.234375 l 0,5,-1
 24.4140625 132.32421875 l 0,6,7
 25.87890625 137.20703125 25.87890625 137.20703125 28.3203125 146.728515625 c 0,8,9
 30.76171875 156.25 30.76171875 156.25 33.69140625 166.50390625 c 0,10,11
 36.62109375 176.7578125 36.62109375 176.7578125 39.306640625 186.03515625 c 0,12,13
 41.9921875 195.3125 41.9921875 195.3125 43.45703125 199.70703125 c 0,14,-1
 296.38671875 290.0390625 l 0,15,-1
 37.59765625 381.34765625 l 0,16,-1
 24.4140625 403.80859375 l 0,17,18
 29.78515625 408.69140625 29.78515625 408.69140625 36.376953125 415.283203125 c 0,19,20
 42.96875 421.875 42.96875 421.875 50.048828125 428.7109375 c 0,21,22
 57.12890625 435.546875 57.12890625 435.546875 64.94140625 441.89453125 c 0,23,24
 72.75390625 448.2421875 72.75390625 448.2421875 80.078125 452.63671875 c 0,25,-1
 417.48046875 333.49609375 l 0,26,-1
 434.5703125 311.5234375 l 0,0,1
EndSplineSet
EndChar

StartChar: question
Encoding: 34 63 34
Width: 462
VWidth: 488
Flags: W
LayerCount: 2
Fore
SplineSet
308.10546875 64.94140625 m 0,0,1
 308.10546875 44.43359375 308.10546875 44.43359375 300.29296875 28.564453125 c 0,2,3
 292.48046875 12.6953125 292.48046875 12.6953125 279.296875 2.197265625 c 0,4,5
 266.11328125 -8.30078125 266.11328125 -8.30078125 248.53515625 -13.916015625 c 0,6,7
 230.95703125 -19.53125 230.95703125 -19.53125 211.42578125 -19.53125 c 0,8,9
 196.77734375 -19.53125 196.77734375 -19.53125 182.6171875 -15.625 c 0,10,11
 168.45703125 -11.71875 168.45703125 -11.71875 157.470703125 -3.41796875 c 0,12,13
 146.484375 4.8828125 146.484375 4.8828125 139.892578125 18.06640625 c 0,14,15
 133.30078125 31.25 133.30078125 31.25 133.30078125 49.8046875 c 0,16,17
 133.30078125 69.82421875 133.30078125 69.82421875 141.357421875 85.693359375 c 0,18,19
 149.4140625 101.5625 149.4140625 101.5625 162.841796875 112.548828125 c 0,20,21
 176.26953125 123.53515625 176.26953125 123.53515625 193.84765625 129.150390625 c 0,22,23
 211.42578125 134.765625 211.42578125 134.765625 230.46875 134.765625 c 0,24,25
 244.140625 134.765625 244.140625 134.765625 258.056640625 130.859375 c 0,26,27
 271.97265625 126.953125 271.97265625 126.953125 283.203125 118.408203125 c 0,28,29
 294.43359375 109.86328125 294.43359375 109.86328125 301.26953125 96.6796875 c 0,30,31
 308.10546875 83.49609375 308.10546875 83.49609375 308.10546875 64.94140625 c 0,0,1
432.6171875 568.84765625 m 0,32,33
 432.6171875 532.2265625 432.6171875 532.2265625 419.921875 501.708984375 c 0,34,35
 407.2265625 471.19140625 407.2265625 471.19140625 387.6953125 445.068359375 c 0,36,37
 368.1640625 418.9453125 368.1640625 418.9453125 345.458984375 395.5078125 c 0,38,39
 322.75390625 372.0703125 322.75390625 372.0703125 302.978515625 348.876953125 c 0,40,41
 283.203125 325.68359375 283.203125 325.68359375 269.287109375 302.001953125 c 0,42,43
 255.37109375 278.3203125 255.37109375 278.3203125 253.41796875 251.46484375 c 0,44,-1
 250.48828125 204.58984375 l 0,45,46
 241.2109375 197.75390625 241.2109375 197.75390625 226.806640625 193.115234375 c 0,47,48
 212.40234375 188.4765625 212.40234375 188.4765625 198.73046875 184.5703125 c 0,49,-1
 181.640625 199.70703125 l 0,50,-1
 177.734375 251.46484375 l 0,51,52
 176.26953125 279.296875 176.26953125 279.296875 183.837890625 305.6640625 c 0,53,54
 191.40625 332.03125 191.40625 332.03125 203.857421875 357.177734375 c 0,55,56
 216.30859375 382.32421875 216.30859375 382.32421875 231.201171875 406.494140625 c 0,57,58
 246.09375 430.6640625 246.09375 430.6640625 259.033203125 454.1015625 c 0,59,60
 271.97265625 477.5390625 271.97265625 477.5390625 280.517578125 500.48828125 c 0,61,62
 289.0625 523.4375 289.0625 523.4375 289.0625 546.875 c 0,63,64
 289.0625 606.93359375 289.0625 606.93359375 271.97265625 634.033203125 c 0,65,66
 254.8828125 661.1328125 254.8828125 661.1328125 226.5625 661.1328125 c 0,67,68
 216.30859375 661.1328125 216.30859375 661.1328125 206.54296875 655.517578125 c 0,69,70
 196.77734375 649.90234375 196.77734375 649.90234375 189.208984375 639.16015625 c 0,71,72
 181.640625 628.41796875 181.640625 628.41796875 177.24609375 613.28125 c 0,73,74
 172.8515625 598.14453125 172.8515625 598.14453125 172.8515625 579.1015625 c 0,75,76
 172.8515625 572.265625 172.8515625 572.265625 174.560546875 562.5 c 0,77,78
 176.26953125 552.734375 176.26953125 552.734375 178.7109375 545.8984375 c 0,79,80
 170.8984375 541.9921875 170.8984375 541.9921875 153.564453125 536.62109375 c 0,81,82
 136.23046875 531.25 136.23046875 531.25 116.455078125 526.3671875 c 0,83,84
 96.6796875 521.484375 96.6796875 521.484375 77.880859375 517.578125 c 0,85,86
 59.08203125 513.671875 59.08203125 513.671875 48.33984375 512.6953125 c 0,87,-1
 30.2734375 532.2265625 l 0,88,89
 29.296875 536.1328125 29.296875 536.1328125 29.296875 544.921875 c 0,90,-1
 29.296875 558.10546875 l 0,91,92
 29.296875 592.28515625 29.296875 592.28515625 48.095703125 622.314453125 c 0,93,94
 66.89453125 652.34375 66.89453125 652.34375 98.6328125 674.8046875 c 0,95,96
 130.37109375 697.265625 130.37109375 697.265625 172.119140625 709.9609375 c 0,97,98
 213.8671875 722.65625 213.8671875 722.65625 259.765625 722.65625 c 0,99,100
 301.26953125 722.65625 301.26953125 722.65625 333.49609375 711.42578125 c 0,101,102
 365.72265625 700.1953125 365.72265625 700.1953125 387.6953125 679.931640625 c 0,103,104
 409.66796875 659.66796875 409.66796875 659.66796875 421.142578125 631.34765625 c 0,105,106
 432.6171875 603.02734375 432.6171875 603.02734375 432.6171875 568.84765625 c 0,32,33
EndSplineSet
EndChar

StartChar: at
Encoding: 35 64 35
Width: 899
VWidth: 488
Flags: W
LayerCount: 2
Fore
SplineSet
855.95703125 282.71484375 m 0,0,1
 855.95703125 241.69921875 855.95703125 241.69921875 846.19140625 203.61328125 c 0,2,3
 836.42578125 165.52734375 836.42578125 165.52734375 818.84765625 132.568359375 c 0,4,5
 801.26953125 99.609375 801.26953125 99.609375 777.587890625 72.509765625 c 0,6,7
 753.90625 45.41015625 753.90625 45.41015625 725.830078125 26.123046875 c 0,8,9
 697.75390625 6.8359375 697.75390625 6.8359375 666.748046875 -3.90625 c 0,10,11
 635.7421875 -14.6484375 635.7421875 -14.6484375 604.00390625 -14.6484375 c 0,12,13
 588.37890625 -14.6484375 588.37890625 -14.6484375 574.951171875 -11.23046875 c 0,14,15
 561.5234375 -7.8125 561.5234375 -7.8125 550.537109375 0.732421875 c 0,16,17
 539.55078125 9.27734375 539.55078125 9.27734375 531.005859375 23.4375 c 0,18,19
 522.4609375 37.59765625 522.4609375 37.59765625 517.578125 59.5703125 c 0,20,21
 497.55859375 37.109375 497.55859375 37.109375 482.91015625 22.705078125 c 0,22,23
 468.26171875 8.30078125 468.26171875 8.30078125 454.58984375 0 c 0,24,25
 440.91796875 -8.30078125 440.91796875 -8.30078125 426.513671875 -11.474609375 c 0,26,27
 412.109375 -14.6484375 412.109375 -14.6484375 392.578125 -14.6484375 c 0,28,29
 367.67578125 -14.6484375 367.67578125 -14.6484375 342.041015625 -1.708984375 c 0,30,31
 316.40625 11.23046875 316.40625 11.23046875 295.8984375 38.818359375 c 0,32,33
 275.390625 66.40625 275.390625 66.40625 262.20703125 109.130859375 c 0,34,35
 249.0234375 151.85546875 249.0234375 151.85546875 249.0234375 211.9140625 c 0,36,37
 249.0234375 243.65234375 249.0234375 243.65234375 255.37109375 274.90234375 c 0,38,39
 261.71875 306.15234375 261.71875 306.15234375 274.169921875 334.716796875 c 0,40,41
 286.62109375 363.28125 286.62109375 363.28125 304.931640625 387.939453125 c 0,42,43
 323.2421875 412.59765625 323.2421875 412.59765625 347.16796875 430.419921875 c 0,44,45
 371.09375 448.2421875 371.09375 448.2421875 400.146484375 458.49609375 c 0,46,47
 429.19921875 468.75 429.19921875 468.75 463.37890625 468.75 c 0,48,49
 474.609375 468.75 474.609375 468.75 484.619140625 467.041015625 c 0,50,51
 494.62890625 465.33203125 494.62890625 465.33203125 504.638671875 460.693359375 c 0,52,53
 514.6484375 456.0546875 514.6484375 456.0546875 524.90234375 447.265625 c 0,54,55
 535.15625 438.4765625 535.15625 438.4765625 546.38671875 424.31640625 c 0,56,57
 562.01171875 429.19921875 562.01171875 429.19921875 574.951171875 434.08203125 c 0,58,59
 587.890625 438.96484375 587.890625 438.96484375 599.609375 444.091796875 c 0,60,61
 611.328125 449.21875 611.328125 449.21875 622.55859375 455.322265625 c 0,62,63
 633.7890625 461.42578125 633.7890625 461.42578125 645.99609375 468.75 c 0,64,-1
 661.1328125 454.1015625 l 0,65,66
 656.73828125 436.03515625 656.73828125 436.03515625 653.80859375 416.50390625 c 0,67,68
 650.87890625 399.90234375 650.87890625 399.90234375 648.681640625 379.39453125 c 0,69,70
 646.484375 358.88671875 646.484375 358.88671875 646.484375 338.37890625 c 0,71,-1
 646.484375 139.16015625 l 0,72,73
 646.484375 126.46484375 646.484375 126.46484375 647.216796875 116.943359375 c 0,74,75
 647.94921875 107.421875 647.94921875 107.421875 650.87890625 100.830078125 c 0,76,77
 653.80859375 94.23828125 653.80859375 94.23828125 659.423828125 90.8203125 c 0,78,79
 665.0390625 87.40234375 665.0390625 87.40234375 674.8046875 87.40234375 c 0,80,81
 687.01171875 87.40234375 687.01171875 87.40234375 700.1953125 97.412109375 c 0,82,83
 713.37890625 107.421875 713.37890625 107.421875 724.12109375 127.44140625 c 0,84,85
 734.86328125 147.4609375 734.86328125 147.4609375 741.69921875 178.22265625 c 0,86,87
 748.53515625 208.984375 748.53515625 208.984375 748.53515625 250 c 0,88,89
 748.53515625 333.984375 748.53515625 333.984375 728.271484375 395.751953125 c 0,90,91
 708.0078125 457.51953125 708.0078125 457.51953125 671.142578125 497.802734375 c 0,92,93
 634.27734375 538.0859375 634.27734375 538.0859375 582.03125 557.861328125 c 0,94,95
 529.78515625 577.63671875 529.78515625 577.63671875 466.30859375 577.63671875 c 0,96,97
 391.6015625 577.63671875 391.6015625 577.63671875 335.44921875 552.24609375 c 0,98,99
 279.296875 526.85546875 279.296875 526.85546875 241.455078125 482.91015625 c 0,100,101
 203.61328125 438.96484375 203.61328125 438.96484375 184.814453125 380.37109375 c 0,102,103
 166.015625 321.77734375 166.015625 321.77734375 166.015625 255.859375 c 0,104,105
 166.015625 162.109375 166.015625 162.109375 191.162109375 92.28515625 c 0,106,107
 216.30859375 22.4609375 216.30859375 22.4609375 259.765625 -23.4375 c 0,108,109
 303.22265625 -69.3359375 303.22265625 -69.3359375 362.3046875 -92.041015625 c 0,110,111
 421.38671875 -114.74609375 421.38671875 -114.74609375 489.74609375 -114.74609375 c 0,112,113
 538.0859375 -114.74609375 538.0859375 -114.74609375 579.833984375 -106.201171875 c 0,114,115
 621.58203125 -97.65625 621.58203125 -97.65625 655.2734375 -84.9609375 c 0,116,117
 688.96484375 -72.265625 688.96484375 -72.265625 713.8671875 -57.6171875 c 0,118,119
 738.76953125 -42.96875 738.76953125 -42.96875 753.41796875 -30.2734375 c 0,120,-1
 779.296875 -77.63671875 l 0,121,122
 761.71875 -98.14453125 761.71875 -98.14453125 733.642578125 -120.849609375 c 0,123,124
 705.56640625 -143.5546875 705.56640625 -143.5546875 666.748046875 -162.841796875 c 0,125,126
 627.9296875 -182.12890625 627.9296875 -182.12890625 577.63671875 -194.82421875 c 0,127,128
 527.34375 -207.51953125 527.34375 -207.51953125 465.8203125 -207.51953125 c 0,129,130
 372.55859375 -207.51953125 372.55859375 -207.51953125 294.921875 -178.22265625 c 0,131,132
 217.28515625 -148.92578125 217.28515625 -148.92578125 161.62109375 -93.26171875 c 0,133,134
 105.95703125 -37.59765625 105.95703125 -37.59765625 74.951171875 43.212890625 c 0,135,136
 43.9453125 124.0234375 43.9453125 124.0234375 43.9453125 227.05078125 c 0,137,138
 43.9453125 287.109375 43.9453125 287.109375 59.326171875 343.505859375 c 0,139,140
 74.70703125 399.90234375 74.70703125 399.90234375 103.02734375 448.974609375 c 0,141,142
 131.34765625 498.046875 131.34765625 498.046875 171.38671875 538.818359375 c 0,143,144
 211.42578125 579.58984375 211.42578125 579.58984375 260.498046875 608.88671875 c 0,145,146
 309.5703125 638.18359375 309.5703125 638.18359375 366.455078125 654.296875 c 0,147,148
 423.33984375 670.41015625 423.33984375 670.41015625 485.3515625 670.41015625 c 0,149,150
 567.3828125 670.41015625 567.3828125 670.41015625 635.498046875 646.97265625 c 0,151,152
 703.61328125 623.53515625 703.61328125 623.53515625 752.685546875 575.68359375 c 0,153,154
 801.7578125 527.83203125 801.7578125 527.83203125 828.857421875 454.833984375 c 0,155,156
 855.95703125 381.8359375 855.95703125 381.8359375 855.95703125 282.71484375 c 0,0,1
514.6484375 356.93359375 m 0,157,158
 504.8828125 376.953125 504.8828125 376.953125 492.431640625 388.671875 c 0,159,160
 479.98046875 400.390625 479.98046875 400.390625 458.0078125 400.390625 c 0,161,162
 418.9453125 400.390625 418.9453125 400.390625 399.90234375 359.375 c 0,163,164
 380.859375 318.359375 380.859375 318.359375 380.859375 227.05078125 c 0,165,166
 380.859375 185.546875 380.859375 185.546875 386.71875 158.69140625 c 0,167,168
 392.578125 131.8359375 392.578125 131.8359375 402.099609375 115.966796875 c 0,169,170
 411.62109375 100.09765625 411.62109375 100.09765625 423.33984375 93.994140625 c 0,171,172
 435.05859375 87.890625 435.05859375 87.890625 446.77734375 87.890625 c 0,173,174
 456.0546875 87.890625 456.0546875 87.890625 463.8671875 90.087890625 c 0,175,176
 471.6796875 92.28515625 471.6796875 92.28515625 479.248046875 98.388671875 c 0,177,178
 486.81640625 104.4921875 486.81640625 104.4921875 495.1171875 114.990234375 c 0,179,180
 503.41796875 125.48828125 503.41796875 125.48828125 514.6484375 141.6015625 c 0,181,-1
 514.6484375 356.93359375 l 0,157,158
EndSplineSet
EndChar

StartChar: A
Encoding: 36 65 36
Width: 639
VWidth: 488
Flags: W
LayerCount: 2
Fore
SplineSet
193.359375 207.51953125 m 0,0,-1
 148.92578125 73.73046875 l 0,1,2
 144.04296875 58.59375 144.04296875 58.59375 160.400390625 51.7578125 c 0,3,4
 176.7578125 44.921875 176.7578125 44.921875 216.796875 40.52734375 c 0,5,-1
 216.796875 0 l 0,6,-1
 0 0 l 0,7,-1
 0 40.52734375 l 0,8,9
 33.203125 46.38671875 33.203125 46.38671875 50.29296875 52.734375 c 0,10,11
 67.3828125 59.08203125 67.3828125 59.08203125 72.265625 73.73046875 c 0,12,-1
 239.2578125 584.47265625 l 0,13,14
 252.44140625 595.703125 252.44140625 595.703125 268.310546875 604.736328125 c 0,15,16
 284.1796875 613.76953125 284.1796875 613.76953125 300.78125 621.09375 c 0,17,18
 317.3828125 628.41796875 317.3828125 628.41796875 333.740234375 633.7890625 c 0,19,20
 350.09765625 639.16015625 350.09765625 639.16015625 364.74609375 643.06640625 c 0,21,-1
 569.82421875 73.73046875 l 0,22,23
 572.265625 66.89453125 572.265625 66.89453125 575.927734375 61.5234375 c 0,24,25
 579.58984375 56.15234375 579.58984375 56.15234375 586.181640625 52.24609375 c 0,26,27
 592.7734375 48.33984375 592.7734375 48.33984375 603.02734375 45.41015625 c 0,28,29
 613.28125 42.48046875 613.28125 42.48046875 628.90625 40.52734375 c 0,30,-1
 628.90625 0 l 0,31,-1
 374.0234375 0 l 0,32,-1
 374.0234375 40.52734375 l 0,33,34
 411.62109375 42.48046875 411.62109375 42.48046875 425.048828125 50.048828125 c 0,35,36
 438.4765625 57.6171875 438.4765625 57.6171875 433.10546875 73.73046875 c 0,37,-1
 385.25390625 207.51953125 l 0,38,-1
 193.359375 207.51953125 l 0,0,-1
362.79296875 270.99609375 m 0,39,-1
 284.1796875 489.74609375 l 0,40,-1
 214.35546875 270.99609375 l 0,41,-1
 362.79296875 270.99609375 l 0,39,-1
EndSplineSet
EndChar

StartChar: B
Encoding: 37 66 37
Width: 618
VWidth: 488
Flags: W
LayerCount: 2
Fore
SplineSet
569.3359375 173.828125 m 0,0,1
 569.3359375 132.32421875 569.3359375 132.32421875 551.7578125 98.876953125 c 0,2,3
 534.1796875 65.4296875 534.1796875 65.4296875 500.48828125 41.9921875 c 0,4,5
 466.796875 18.5546875 466.796875 18.5546875 417.96875 5.859375 c 0,6,7
 369.140625 -6.8359375 369.140625 -6.8359375 307.12890625 -6.8359375 c 0,8,9
 296.38671875 -6.8359375 296.38671875 -6.8359375 280.029296875 -6.591796875 c 0,10,11
 263.671875 -6.34765625 263.671875 -6.34765625 244.384765625 -5.859375 c 0,12,13
 225.09765625 -5.37109375 225.09765625 -5.37109375 203.857421875 -4.8828125 c 0,14,15
 182.6171875 -4.39453125 182.6171875 -4.39453125 162.109375 -3.41796875 c 0,16,17
 113.76953125 -1.953125 113.76953125 -1.953125 60.05859375 0 c 0,18,-1
 19.53125 0 l 0,19,-1
 19.53125 40.52734375 l 0,20,21
 52.734375 47.36328125 52.734375 47.36328125 69.091796875 55.419921875 c 0,22,23
 85.44921875 63.4765625 85.44921875 63.4765625 85.44921875 70.3125 c 0,24,-1
 85.44921875 564.453125 l 0,25,26
 66.40625 562.5 66.40625 562.5 49.560546875 560.302734375 c 0,27,28
 32.71484375 558.10546875 32.71484375 558.10546875 19.53125 555.6640625 c 0,29,-1
 12.6953125 600.5859375 l 0,30,31
 35.15625 605.95703125 35.15625 605.95703125 66.650390625 611.083984375 c 0,32,33
 98.14453125 616.2109375 98.14453125 616.2109375 132.8125 620.361328125 c 0,34,35
 167.48046875 624.51171875 167.48046875 624.51171875 202.63671875 627.197265625 c 0,36,37
 237.79296875 629.8828125 237.79296875 629.8828125 268.06640625 629.8828125 c 0,38,39
 326.171875 629.8828125 326.171875 629.8828125 372.0703125 620.849609375 c 0,40,41
 417.96875 611.81640625 417.96875 611.81640625 449.70703125 594.7265625 c 0,42,43
 481.4453125 577.63671875 481.4453125 577.63671875 498.291015625 553.22265625 c 0,44,45
 515.13671875 528.80859375 515.13671875 528.80859375 515.13671875 498.046875 c 0,46,47
 515.13671875 445.3125 515.13671875 445.3125 486.083984375 407.71484375 c 0,48,49
 457.03125 370.1171875 457.03125 370.1171875 397.94921875 353.02734375 c 0,50,51
 436.5234375 347.16796875 436.5234375 347.16796875 468.017578125 331.0546875 c 0,52,53
 499.51171875 314.94140625 499.51171875 314.94140625 521.97265625 291.259765625 c 0,54,55
 544.43359375 267.578125 544.43359375 267.578125 556.884765625 237.548828125 c 0,56,57
 569.3359375 207.51953125 569.3359375 207.51953125 569.3359375 173.828125 c 0,0,1
283.203125 310.05859375 m 0,58,59
 261.23046875 310.05859375 261.23046875 310.05859375 247.802734375 308.10546875 c 0,60,61
 234.375 306.15234375 234.375 306.15234375 222.16796875 303.7109375 c 0,62,-1
 222.16796875 65.4296875 l 0,63,64
 222.16796875 62.5 222.16796875 62.5 223.6328125 59.08203125 c 0,65,66
 237.3046875 53.22265625 237.3046875 53.22265625 251.953125 51.025390625 c 0,67,68
 266.6015625 48.828125 266.6015625 48.828125 286.62109375 48.828125 c 0,69,70
 356.93359375 48.828125 356.93359375 48.828125 391.357421875 80.322265625 c 0,71,72
 425.78125 111.81640625 425.78125 111.81640625 425.78125 166.9921875 c 0,73,74
 425.78125 193.84765625 425.78125 193.84765625 419.43359375 219.482421875 c 0,75,76
 413.0859375 245.1171875 413.0859375 245.1171875 396.97265625 265.380859375 c 0,77,78
 380.859375 285.64453125 380.859375 285.64453125 353.271484375 297.8515625 c 0,79,80
 325.68359375 310.05859375 325.68359375 310.05859375 283.203125 310.05859375 c 0,58,59
235.83984375 574.21875 m 0,81,82
 232.421875 574.21875 232.421875 574.21875 229.248046875 573.974609375 c 0,83,84
 226.07421875 573.73046875 226.07421875 573.73046875 222.16796875 573.73046875 c 0,85,-1
 222.16796875 363.76953125 l 0,86,-1
 229.00390625 363.76953125 l 0,87,88
 275.390625 363.76953125 275.390625 363.76953125 304.19921875 373.046875 c 0,89,90
 333.0078125 382.32421875 333.0078125 382.32421875 348.876953125 397.705078125 c 0,91,92
 364.74609375 413.0859375 364.74609375 413.0859375 370.361328125 433.10546875 c 0,93,94
 375.9765625 453.125 375.9765625 453.125 375.9765625 474.12109375 c 0,95,96
 375.9765625 498.53515625 375.9765625 498.53515625 369.140625 517.08984375 c 0,97,98
 362.3046875 535.64453125 362.3046875 535.64453125 345.947265625 548.33984375 c 0,99,100
 329.58984375 561.03515625 329.58984375 561.03515625 302.734375 567.626953125 c 0,101,102
 275.87890625 574.21875 275.87890625 574.21875 235.83984375 574.21875 c 0,81,82
EndSplineSet
EndChar

StartChar: C
Encoding: 38 67 38
Width: 565
VWidth: 488
Flags: W
LayerCount: 2
Fore
SplineSet
531.25 103.02734375 m 0,0,1
 468.75 40.0390625 468.75 40.0390625 407.470703125 12.6953125 c 0,2,3
 346.19140625 -14.6484375 346.19140625 -14.6484375 288.57421875 -14.6484375 c 0,4,5
 237.79296875 -14.6484375 237.79296875 -14.6484375 190.185546875 5.859375 c 0,6,7
 142.578125 26.3671875 142.578125 26.3671875 105.712890625 64.94140625 c 0,8,9
 68.84765625 103.515625 68.84765625 103.515625 46.630859375 159.423828125 c 0,10,11
 24.4140625 215.33203125 24.4140625 215.33203125 24.4140625 286.1328125 c 0,12,13
 24.4140625 364.2578125 24.4140625 364.2578125 48.583984375 427.734375 c 0,14,15
 72.75390625 491.2109375 72.75390625 491.2109375 114.990234375 536.376953125 c 0,16,17
 157.2265625 581.54296875 157.2265625 581.54296875 214.84375 605.95703125 c 0,18,19
 272.4609375 630.37109375 272.4609375 630.37109375 339.84375 629.8828125 c 0,20,21
 366.2109375 629.8828125 366.2109375 629.8828125 393.06640625 625.9765625 c 0,22,23
 419.921875 622.0703125 419.921875 622.0703125 444.3359375 615.478515625 c 0,24,25
 468.75 608.88671875 468.75 608.88671875 489.013671875 600.09765625 c 0,26,27
 509.27734375 591.30859375 509.27734375 591.30859375 521.97265625 581.0546875 c 0,28,29
 523.92578125 579.58984375 523.92578125 579.58984375 521.728515625 571.2890625 c 0,30,31
 519.53125 562.98828125 519.53125 562.98828125 514.6484375 551.025390625 c 0,32,33
 509.765625 539.0625 509.765625 539.0625 503.41796875 525.146484375 c 0,34,35
 497.0703125 511.23046875 497.0703125 511.23046875 490.478515625 498.53515625 c 0,36,37
 483.88671875 485.83984375 483.88671875 485.83984375 478.02734375 476.07421875 c 0,38,39
 472.16796875 466.30859375 472.16796875 466.30859375 468.26171875 462.40234375 c 0,40,-1
 431.640625 470.21484375 l 0,41,42
 407.2265625 519.53125 407.2265625 519.53125 375.732421875 540.771484375 c 0,43,44
 344.23828125 562.01171875 344.23828125 562.01171875 308.59375 561.5234375 c 0,45,46
 283.69140625 561.5234375 283.69140625 561.5234375 257.8125 549.8046875 c 0,47,48
 231.93359375 538.0859375 231.93359375 538.0859375 210.9375 508.7890625 c 0,49,50
 189.94140625 479.4921875 189.94140625 479.4921875 176.7578125 429.931640625 c 0,51,52
 163.57421875 380.37109375 163.57421875 380.37109375 163.57421875 304.19921875 c 0,53,54
 163.57421875 242.67578125 163.57421875 242.67578125 179.19921875 198.974609375 c 0,55,56
 194.82421875 155.2734375 194.82421875 155.2734375 219.7265625 127.44140625 c 0,57,58
 244.62890625 99.609375 244.62890625 99.609375 275.87890625 86.42578125 c 0,59,60
 307.12890625 73.2421875 307.12890625 73.2421875 338.37890625 73.2421875 c 0,61,62
 351.5625 73.2421875 351.5625 73.2421875 369.62890625 75.927734375 c 0,63,64
 387.6953125 78.61328125 387.6953125 78.61328125 408.935546875 85.9375 c 0,65,66
 430.17578125 93.26171875 430.17578125 93.26171875 454.345703125 106.201171875 c 0,67,68
 478.515625 119.140625 478.515625 119.140625 503.41796875 139.6484375 c 0,69,70
 505.859375 137.6953125 505.859375 137.6953125 510.009765625 132.32421875 c 0,71,72
 514.16015625 126.953125 514.16015625 126.953125 518.310546875 120.849609375 c 0,73,74
 522.4609375 114.74609375 522.4609375 114.74609375 526.123046875 109.619140625 c 0,75,76
 529.78515625 104.4921875 529.78515625 104.4921875 531.25 103.02734375 c 0,0,1
EndSplineSet
EndChar

StartChar: D
Encoding: 39 68 39
Width: 651
VWidth: 488
Flags: W
LayerCount: 2
Fore
SplineSet
255.37109375 574.21875 m 0,0,1
 247.55859375 574.21875 247.55859375 574.21875 239.013671875 573.974609375 c 0,2,3
 230.46875 573.73046875 230.46875 573.73046875 222.16796875 573.2421875 c 0,4,-1
 222.16796875 92.7734375 l 0,5,6
 222.16796875 84.47265625 222.16796875 84.47265625 223.14453125 77.63671875 c 0,7,8
 224.12109375 70.80078125 224.12109375 70.80078125 230.712890625 65.91796875 c 0,9,10
 237.3046875 61.03515625 237.3046875 61.03515625 251.46484375 58.349609375 c 0,11,12
 265.625 55.6640625 265.625 55.6640625 291.50390625 55.6640625 c 0,13,14
 317.87109375 55.6640625 317.87109375 55.6640625 348.388671875 69.82421875 c 0,15,16
 378.90625 83.984375 378.90625 83.984375 404.78515625 114.74609375 c 0,17,18
 430.6640625 145.5078125 430.6640625 145.5078125 447.998046875 193.84765625 c 0,19,20
 465.33203125 242.1875 465.33203125 242.1875 465.33203125 311.03515625 c 0,21,22
 465.33203125 441.40625 465.33203125 441.40625 412.109375 507.8125 c 0,23,24
 358.88671875 574.21875 358.88671875 574.21875 255.37109375 574.21875 c 0,0,1
611.81640625 330.078125 m 0,25,26
 611.81640625 269.04296875 611.81640625 269.04296875 599.365234375 220.947265625 c 0,27,28
 586.9140625 172.8515625 586.9140625 172.8515625 565.185546875 135.986328125 c 0,29,30
 543.45703125 99.12109375 543.45703125 99.12109375 514.404296875 73.486328125 c 0,31,32
 485.3515625 47.8515625 485.3515625 47.8515625 451.904296875 31.494140625 c 0,33,34
 418.45703125 15.13671875 418.45703125 15.13671875 382.568359375 7.568359375 c 0,35,36
 346.6796875 0 346.6796875 0 312.01171875 0 c 0,37,-1
 19.53125 0 l 0,38,-1
 19.53125 40.52734375 l 0,39,40
 52.734375 47.36328125 52.734375 47.36328125 69.091796875 55.419921875 c 0,41,42
 85.44921875 63.4765625 85.44921875 63.4765625 85.44921875 70.3125 c 0,43,-1
 85.44921875 560.05859375 l 0,44,-1
 19.53125 550.78125 l 0,45,-1
 12.6953125 600.5859375 l 0,46,47
 37.59765625 606.4453125 37.59765625 606.4453125 72.265625 611.81640625 c 0,48,49
 106.93359375 617.1875 106.93359375 617.1875 144.775390625 621.337890625 c 0,50,51
 182.6171875 625.48828125 182.6171875 625.48828125 220.947265625 627.685546875 c 0,52,53
 259.27734375 629.8828125 259.27734375 629.8828125 291.9921875 629.8828125 c 0,54,55
 369.140625 629.8828125 369.140625 629.8828125 428.7109375 609.619140625 c 0,56,57
 488.28125 589.35546875 488.28125 589.35546875 529.052734375 550.78125 c 0,58,59
 569.82421875 512.20703125 569.82421875 512.20703125 590.8203125 456.54296875 c 0,60,61
 611.81640625 400.87890625 611.81640625 400.87890625 611.81640625 330.078125 c 0,25,26
EndSplineSet
EndChar

StartChar: E
Encoding: 40 69 40
Width: 535
VWidth: 488
Flags: W
LayerCount: 2
Fore
SplineSet
514.6484375 158.203125 m 0,0,1
 512.6953125 137.20703125 512.6953125 137.20703125 510.25390625 112.548828125 c 0,2,3
 507.8125 87.890625 507.8125 87.890625 504.8828125 65.185546875 c 0,4,5
 501.953125 42.48046875 501.953125 42.48046875 499.267578125 24.90234375 c 0,6,7
 496.58203125 7.32421875 496.58203125 7.32421875 494.62890625 0 c 0,8,-1
 19.53125 0 l 0,9,-1
 19.53125 40.52734375 l 0,10,11
 52.734375 47.36328125 52.734375 47.36328125 69.091796875 55.419921875 c 0,12,13
 85.44921875 63.4765625 85.44921875 63.4765625 85.44921875 70.3125 c 0,14,-1
 85.44921875 544.43359375 l 0,15,16
 85.44921875 550.29296875 85.44921875 550.29296875 70.068359375 559.08203125 c 0,17,18
 54.6875 567.87109375 54.6875 567.87109375 19.53125 574.70703125 c 0,19,-1
 19.53125 615.234375 l 0,20,-1
 461.9140625 615.234375 l 0,21,-1
 482.91015625 598.14453125 l 0,22,23
 481.93359375 585.44921875 481.93359375 585.44921875 479.98046875 564.94140625 c 0,24,25
 478.02734375 544.43359375 478.02734375 544.43359375 475.09765625 522.94921875 c 0,26,27
 472.16796875 501.46484375 472.16796875 501.46484375 468.994140625 482.421875 c 0,28,29
 465.8203125 463.37890625 465.8203125 463.37890625 462.890625 454.1015625 c 0,30,-1
 421.38671875 454.1015625 l 0,31,32
 418.9453125 499.51171875 418.9453125 499.51171875 409.1796875 525.634765625 c 0,33,34
 399.4140625 551.7578125 399.4140625 551.7578125 381.34765625 551.7578125 c 0,35,-1
 222.16796875 551.7578125 l 0,36,-1
 222.16796875 358.88671875 l 0,37,-1
 415.0390625 358.88671875 l 0,38,-1
 432.6171875 340.33203125 l 0,39,40
 428.7109375 333.49609375 428.7109375 333.49609375 423.095703125 324.21875 c 0,41,42
 417.48046875 314.94140625 417.48046875 314.94140625 411.376953125 305.419921875 c 0,43,44
 405.2734375 295.8984375 405.2734375 295.8984375 399.169921875 288.0859375 c 0,45,46
 393.06640625 280.2734375 393.06640625 280.2734375 387.6953125 276.3671875 c 0,47,48
 380.37109375 283.69140625 380.37109375 283.69140625 371.826171875 288.57421875 c 0,49,50
 363.28125 293.45703125 363.28125 293.45703125 352.294921875 296.875 c 0,51,52
 341.30859375 300.29296875 341.30859375 300.29296875 326.416015625 301.7578125 c 0,53,54
 311.5234375 303.22265625 311.5234375 303.22265625 291.015625 303.22265625 c 0,55,-1
 222.16796875 303.22265625 l 0,56,-1
 222.16796875 94.7265625 l 0,57,58
 222.16796875 87.40234375 222.16796875 87.40234375 225.5859375 81.787109375 c 0,59,60
 229.00390625 76.171875 229.00390625 76.171875 239.74609375 72.021484375 c 0,61,62
 250.48828125 67.87109375 250.48828125 67.87109375 270.01953125 65.673828125 c 0,63,64
 289.55078125 63.4765625 289.55078125 63.4765625 321.77734375 63.4765625 c 0,65,-1
 365.234375 63.4765625 l 0,66,67
 387.6953125 63.4765625 387.6953125 63.4765625 403.564453125 69.580078125 c 0,68,69
 419.43359375 75.68359375 419.43359375 75.68359375 431.640625 88.8671875 c 0,70,71
 443.84765625 102.05078125 443.84765625 102.05078125 453.857421875 122.55859375 c 0,72,73
 463.8671875 143.06640625 463.8671875 143.06640625 474.12109375 171.875 c 0,74,-1
 514.6484375 158.203125 l 0,0,1
EndSplineSet
EndChar

StartChar: F
Encoding: 41 70 41
Width: 517
VWidth: 488
Flags: W
LayerCount: 2
Fore
SplineSet
19.53125 0 m 0,0,-1
 19.53125 40.52734375 l 0,1,2
 52.734375 47.36328125 52.734375 47.36328125 69.091796875 55.419921875 c 0,3,4
 85.44921875 63.4765625 85.44921875 63.4765625 85.44921875 70.3125 c 0,5,-1
 85.44921875 544.43359375 l 0,6,7
 85.44921875 550.29296875 85.44921875 550.29296875 70.068359375 559.08203125 c 0,8,9
 54.6875 567.87109375 54.6875 567.87109375 19.53125 574.70703125 c 0,10,-1
 19.53125 615.234375 l 0,11,-1
 466.796875 615.234375 l 0,12,-1
 486.81640625 598.14453125 l 0,13,14
 486.328125 585.44921875 486.328125 585.44921875 484.375 564.94140625 c 0,15,16
 482.421875 544.43359375 482.421875 544.43359375 479.736328125 522.94921875 c 0,17,18
 477.05078125 501.46484375 477.05078125 501.46484375 473.876953125 482.421875 c 0,19,20
 470.703125 463.37890625 470.703125 463.37890625 467.7734375 454.1015625 c 0,21,-1
 425.29296875 454.1015625 l 0,22,23
 423.828125 499.51171875 423.828125 499.51171875 413.818359375 525.634765625 c 0,24,25
 403.80859375 551.7578125 403.80859375 551.7578125 385.25390625 551.7578125 c 0,26,-1
 222.16796875 551.7578125 l 0,27,-1
 222.16796875 358.88671875 l 0,28,-1
 399.90234375 358.88671875 l 0,29,-1
 418.9453125 340.33203125 l 0,30,31
 414.55078125 331.54296875 414.55078125 331.54296875 408.69140625 322.021484375 c 0,32,33
 402.83203125 312.5 402.83203125 312.5 396.484375 303.7109375 c 0,34,35
 390.13671875 294.921875 390.13671875 294.921875 384.033203125 287.59765625 c 0,36,37
 377.9296875 280.2734375 377.9296875 280.2734375 373.046875 276.3671875 c 0,38,39
 365.72265625 283.69140625 365.72265625 283.69140625 357.421875 288.57421875 c 0,40,41
 349.12109375 293.45703125 349.12109375 293.45703125 338.134765625 296.875 c 0,42,43
 327.1484375 300.29296875 327.1484375 300.29296875 312.255859375 301.7578125 c 0,44,45
 297.36328125 303.22265625 297.36328125 303.22265625 276.85546875 303.22265625 c 0,46,-1
 222.16796875 303.22265625 l 0,47,-1
 222.16796875 70.3125 l 0,48,49
 222.16796875 67.3828125 222.16796875 67.3828125 225.830078125 63.96484375 c 0,50,51
 229.4921875 60.546875 229.4921875 60.546875 238.525390625 56.884765625 c 0,52,53
 247.55859375 53.22265625 247.55859375 53.22265625 263.18359375 49.072265625 c 0,54,55
 278.80859375 44.921875 278.80859375 44.921875 302.734375 40.52734375 c 0,56,-1
 302.734375 0 l 0,57,-1
 19.53125 0 l 0,0,-1
EndSplineSet
EndChar

StartChar: G
Encoding: 42 71 42
Width: 607
VWidth: 488
Flags: W
LayerCount: 2
Fore
SplineSet
542.96875 580.078125 m 0,0,1
 545.41015625 578.125 545.41015625 578.125 543.212890625 570.068359375 c 0,2,3
 541.015625 562.01171875 541.015625 562.01171875 536.1328125 550.29296875 c 0,4,5
 531.25 538.57421875 531.25 538.57421875 524.4140625 525.146484375 c 0,6,7
 517.578125 511.71875 517.578125 511.71875 510.498046875 499.51171875 c 0,8,9
 503.41796875 487.3046875 503.41796875 487.3046875 497.0703125 477.783203125 c 0,10,11
 490.72265625 468.26171875 490.72265625 468.26171875 486.328125 464.35546875 c 0,12,-1
 450.68359375 472.16796875 l 0,13,14
 434.5703125 498.53515625 434.5703125 498.53515625 418.45703125 516.6015625 c 0,15,16
 402.34375 534.66796875 402.34375 534.66796875 385.25390625 545.654296875 c 0,17,18
 368.1640625 556.640625 368.1640625 556.640625 350.09765625 561.5234375 c 0,19,20
 332.03125 566.40625 332.03125 566.40625 311.5234375 566.40625 c 0,21,22
 299.31640625 566.40625 299.31640625 566.40625 283.69140625 561.5234375 c 0,23,24
 268.06640625 556.640625 268.06640625 556.640625 251.46484375 545.166015625 c 0,25,26
 234.86328125 533.69140625 234.86328125 533.69140625 219.23828125 514.892578125 c 0,27,28
 203.61328125 496.09375 203.61328125 496.09375 191.162109375 467.529296875 c 0,29,30
 178.7109375 438.96484375 178.7109375 438.96484375 171.142578125 400.390625 c 0,31,32
 163.57421875 361.81640625 163.57421875 361.81640625 163.57421875 311.03515625 c 0,33,34
 163.57421875 246.58203125 163.57421875 246.58203125 177.734375 200.68359375 c 0,35,36
 191.89453125 154.78515625 191.89453125 154.78515625 215.8203125 125.48828125 c 0,37,38
 239.74609375 96.19140625 239.74609375 96.19140625 270.5078125 82.275390625 c 0,39,40
 301.26953125 68.359375 301.26953125 68.359375 334.9609375 68.359375 c 0,41,42
 358.3984375 68.359375 358.3984375 68.359375 376.708984375 72.265625 c 0,43,44
 395.01953125 76.171875 395.01953125 76.171875 410.15625 83.0078125 c 0,45,-1
 410.15625 227.05078125 l 0,46,47
 410.15625 232.421875 410.15625 232.421875 408.935546875 237.548828125 c 0,48,49
 407.71484375 242.67578125 407.71484375 242.67578125 401.123046875 247.55859375 c 0,50,51
 394.53125 252.44140625 394.53125 252.44140625 380.126953125 257.32421875 c 0,52,53
 365.72265625 262.20703125 365.72265625 262.20703125 338.8671875 267.08984375 c 0,54,-1
 338.8671875 307.6171875 l 0,55,-1
 588.37890625 307.6171875 l 0,56,-1
 588.37890625 267.08984375 l 0,57,58
 574.21875 263.671875 574.21875 263.671875 565.4296875 259.27734375 c 0,59,60
 556.640625 254.8828125 556.640625 254.8828125 551.26953125 249.51171875 c 0,61,62
 545.8984375 244.140625 545.8984375 244.140625 543.9453125 238.525390625 c 0,63,64
 541.9921875 232.91015625 541.9921875 232.91015625 541.9921875 227.05078125 c 0,65,-1
 541.9921875 84.9609375 l 0,66,67
 505.859375 55.17578125 505.859375 55.17578125 473.6328125 35.888671875 c 0,68,69
 441.40625 16.6015625 441.40625 16.6015625 412.841796875 5.37109375 c 0,70,71
 384.27734375 -5.859375 384.27734375 -5.859375 358.88671875 -10.25390625 c 0,72,73
 333.49609375 -14.6484375 333.49609375 -14.6484375 311.5234375 -14.6484375 c 0,74,75
 275.390625 -14.6484375 275.390625 -14.6484375 239.990234375 -6.591796875 c 0,76,77
 204.58984375 1.46484375 204.58984375 1.46484375 172.607421875 17.822265625 c 0,78,79
 140.625 34.1796875 140.625 34.1796875 113.525390625 59.08203125 c 0,80,81
 86.42578125 83.984375 86.42578125 83.984375 66.650390625 117.1875 c 0,82,83
 46.875 150.390625 46.875 150.390625 35.64453125 192.138671875 c 0,84,85
 24.4140625 233.88671875 24.4140625 233.88671875 24.4140625 284.1796875 c 0,86,87
 24.4140625 365.234375 24.4140625 365.234375 50.537109375 429.443359375 c 0,88,89
 76.66015625 493.65234375 76.66015625 493.65234375 122.802734375 538.330078125 c 0,90,91
 168.9453125 583.0078125 168.9453125 583.0078125 232.177734375 606.4453125 c 0,92,93
 295.41015625 629.8828125 295.41015625 629.8828125 369.62890625 629.8828125 c 0,94,95
 385.7421875 629.8828125 385.7421875 629.8828125 408.935546875 626.46484375 c 0,96,97
 432.12890625 623.046875 432.12890625 623.046875 456.54296875 616.69921875 c 0,98,99
 480.95703125 610.3515625 480.95703125 610.3515625 504.150390625 601.07421875 c 0,100,101
 527.34375 591.796875 527.34375 591.796875 542.96875 580.078125 c 0,0,1
EndSplineSet
EndChar

StartChar: H
Encoding: 43 72 43
Width: 692
VWidth: 488
Flags: W
LayerCount: 2
Fore
SplineSet
19.53125 0 m 0,0,-1
 19.53125 40.52734375 l 0,1,2
 52.734375 47.36328125 52.734375 47.36328125 69.091796875 55.419921875 c 0,3,4
 85.44921875 63.4765625 85.44921875 63.4765625 85.44921875 70.3125 c 0,5,-1
 85.44921875 544.43359375 l 0,6,7
 85.44921875 550.29296875 85.44921875 550.29296875 70.068359375 559.08203125 c 0,8,9
 54.6875 567.87109375 54.6875 567.87109375 19.53125 574.70703125 c 0,10,-1
 19.53125 615.234375 l 0,11,-1
 288.0859375 615.234375 l 0,12,-1
 288.0859375 574.70703125 l 0,13,14
 254.8828125 567.87109375 254.8828125 567.87109375 238.525390625 559.5703125 c 0,15,16
 222.16796875 551.26953125 222.16796875 551.26953125 222.16796875 544.43359375 c 0,17,-1
 222.16796875 354.00390625 l 0,18,-1
 461.42578125 354.00390625 l 0,19,-1
 461.42578125 544.43359375 l 0,20,21
 461.42578125 550.29296875 461.42578125 550.29296875 446.044921875 559.08203125 c 0,22,23
 430.6640625 567.87109375 430.6640625 567.87109375 395.5078125 574.70703125 c 0,24,-1
 395.5078125 615.234375 l 0,25,-1
 664.0625 615.234375 l 0,26,-1
 664.0625 574.70703125 l 0,27,28
 630.859375 567.87109375 630.859375 567.87109375 614.501953125 559.5703125 c 0,29,30
 598.14453125 551.26953125 598.14453125 551.26953125 598.14453125 544.43359375 c 0,31,-1
 598.14453125 70.3125 l 0,32,33
 598.14453125 64.453125 598.14453125 64.453125 613.525390625 55.908203125 c 0,34,35
 628.90625 47.36328125 628.90625 47.36328125 664.0625 40.52734375 c 0,36,-1
 664.0625 0 l 0,37,-1
 395.5078125 0 l 0,38,-1
 395.5078125 40.52734375 l 0,39,40
 428.7109375 47.36328125 428.7109375 47.36328125 445.068359375 55.419921875 c 0,41,42
 461.42578125 63.4765625 461.42578125 63.4765625 461.42578125 70.3125 c 0,43,-1
 461.42578125 290.52734375 l 0,44,-1
 222.16796875 290.52734375 l 0,45,-1
 222.16796875 70.3125 l 0,46,47
 222.16796875 64.453125 222.16796875 64.453125 237.3046875 55.908203125 c 0,48,49
 252.44140625 47.36328125 252.44140625 47.36328125 288.0859375 40.52734375 c 0,50,-1
 288.0859375 0 l 0,51,-1
 19.53125 0 l 0,0,-1
EndSplineSet
EndChar

StartChar: I
Encoding: 44 73 44
Width: 336
VWidth: 488
Flags: W
LayerCount: 2
Fore
SplineSet
29.296875 0 m 0,0,-1
 29.296875 40.52734375 l 0,1,2
 62.5 47.36328125 62.5 47.36328125 78.857421875 55.419921875 c 0,3,4
 95.21484375 63.4765625 95.21484375 63.4765625 95.21484375 70.3125 c 0,5,-1
 95.21484375 544.43359375 l 0,6,7
 95.21484375 550.29296875 95.21484375 550.29296875 79.833984375 559.08203125 c 0,8,9
 64.453125 567.87109375 64.453125 567.87109375 29.296875 574.70703125 c 0,10,-1
 29.296875 615.234375 l 0,11,-1
 297.8515625 615.234375 l 0,12,-1
 297.8515625 574.70703125 l 0,13,14
 264.6484375 567.87109375 264.6484375 567.87109375 248.291015625 559.5703125 c 0,15,16
 231.93359375 551.26953125 231.93359375 551.26953125 231.93359375 544.43359375 c 0,17,-1
 231.93359375 70.3125 l 0,18,19
 231.93359375 64.453125 231.93359375 64.453125 247.314453125 55.908203125 c 0,20,21
 262.6953125 47.36328125 262.6953125 47.36328125 297.8515625 40.52734375 c 0,22,-1
 297.8515625 0 l 0,23,-1
 29.296875 0 l 0,0,-1
EndSplineSet
EndChar

StartChar: J
Encoding: 45 74 45
Width: 344
VWidth: 488
Flags: W
LayerCount: 2
Fore
SplineSet
314.94140625 574.70703125 m 0,0,1
 281.73828125 567.87109375 281.73828125 567.87109375 265.380859375 559.5703125 c 0,2,3
 249.0234375 551.26953125 249.0234375 551.26953125 249.0234375 544.43359375 c 0,4,-1
 249.0234375 85.44921875 l 0,5,6
 249.0234375 33.203125 249.0234375 33.203125 237.3046875 -5.126953125 c 0,7,8
 225.5859375 -43.45703125 225.5859375 -43.45703125 207.51953125 -71.77734375 c 0,9,10
 189.453125 -100.09765625 189.453125 -100.09765625 167.96875 -119.873046875 c 0,11,12
 146.484375 -139.6484375 146.484375 -139.6484375 127.44140625 -155.2734375 c 0,13,14
 114.2578125 -166.015625 114.2578125 -166.015625 97.900390625 -175.78125 c 0,15,16
 81.54296875 -185.546875 81.54296875 -185.546875 63.232421875 -193.115234375 c 0,17,18
 44.921875 -200.68359375 44.921875 -200.68359375 25.634765625 -205.322265625 c 0,19,20
 6.34765625 -209.9609375 6.34765625 -209.9609375 -12.20703125 -209.9609375 c 0,21,22
 -36.1328125 -209.9609375 -36.1328125 -209.9609375 -59.326171875 -204.58984375 c 0,23,24
 -82.51953125 -199.21875 -82.51953125 -199.21875 -100.830078125 -191.650390625 c 0,25,26
 -119.140625 -184.08203125 -119.140625 -184.08203125 -130.37109375 -175.537109375 c 0,27,28
 -141.6015625 -166.9921875 -141.6015625 -166.9921875 -141.6015625 -161.1328125 c 0,29,30
 -141.6015625 -157.2265625 -141.6015625 -157.2265625 -136.23046875 -149.658203125 c 0,31,32
 -130.859375 -142.08984375 -130.859375 -142.08984375 -122.0703125 -132.8125 c 0,33,34
 -113.28125 -123.53515625 -113.28125 -123.53515625 -102.783203125 -113.76953125 c 0,35,36
 -92.28515625 -104.00390625 -92.28515625 -104.00390625 -82.275390625 -95.458984375 c 0,37,38
 -72.265625 -86.9140625 -72.265625 -86.9140625 -63.720703125 -80.810546875 c 0,39,40
 -55.17578125 -74.70703125 -55.17578125 -74.70703125 -50.78125 -73.2421875 c 0,41,42
 -23.4375 -98.6328125 -23.4375 -98.6328125 1.953125 -109.619140625 c 0,43,44
 27.34375 -120.60546875 27.34375 -120.60546875 45.8984375 -120.60546875 c 0,45,46
 58.59375 -120.60546875 58.59375 -120.60546875 70.556640625 -115.478515625 c 0,47,48
 82.51953125 -110.3515625 82.51953125 -110.3515625 91.796875 -92.529296875 c 0,49,50
 101.07421875 -74.70703125 101.07421875 -74.70703125 106.689453125 -40.771484375 c 0,51,52
 112.3046875 -6.8359375 112.3046875 -6.8359375 112.3046875 50.29296875 c 0,53,-1
 112.3046875 544.43359375 l 0,54,55
 112.3046875 547.36328125 112.3046875 547.36328125 109.130859375 550.78125 c 0,56,57
 105.95703125 554.19921875 105.95703125 554.19921875 96.435546875 558.10546875 c 0,58,59
 86.9140625 562.01171875 86.9140625 562.01171875 69.091796875 566.162109375 c 0,60,61
 51.26953125 570.3125 51.26953125 570.3125 21.97265625 574.70703125 c 0,62,-1
 21.97265625 615.234375 l 0,63,-1
 314.94140625 615.234375 l 0,64,-1
 314.94140625 574.70703125 l 0,0,1
EndSplineSet
EndChar

StartChar: K
Encoding: 46 75 46
Width: 631
VWidth: 488
Flags: W
LayerCount: 2
Fore
SplineSet
19.53125 0 m 0,0,-1
 19.53125 40.52734375 l 0,1,2
 52.734375 47.36328125 52.734375 47.36328125 69.091796875 55.419921875 c 0,3,4
 85.44921875 63.4765625 85.44921875 63.4765625 85.44921875 70.3125 c 0,5,-1
 85.44921875 544.43359375 l 0,6,7
 85.44921875 550.29296875 85.44921875 550.29296875 70.068359375 559.08203125 c 0,8,9
 54.6875 567.87109375 54.6875 567.87109375 19.53125 574.70703125 c 0,10,-1
 19.53125 615.234375 l 0,11,-1
 288.0859375 615.234375 l 0,12,-1
 288.0859375 574.70703125 l 0,13,14
 254.8828125 567.87109375 254.8828125 567.87109375 238.525390625 559.5703125 c 0,15,16
 222.16796875 551.26953125 222.16796875 551.26953125 222.16796875 544.43359375 c 0,17,-1
 222.16796875 324.21875 l 0,18,-1
 397.4609375 531.25 l 0,19,20
 408.69140625 544.43359375 408.69140625 544.43359375 413.818359375 552.24609375 c 0,21,22
 418.9453125 560.05859375 418.9453125 560.05859375 416.9921875 564.453125 c 0,23,24
 415.0390625 568.84765625 415.0390625 568.84765625 405.029296875 571.044921875 c 0,25,26
 395.01953125 573.2421875 395.01953125 573.2421875 375.9765625 574.70703125 c 0,27,-1
 375.9765625 615.234375 l 0,28,-1
 600.5859375 615.234375 l 0,29,-1
 600.5859375 574.70703125 l 0,30,31
 584.9609375 572.75390625 584.9609375 572.75390625 574.462890625 570.80078125 c 0,32,33
 563.96484375 568.84765625 563.96484375 568.84765625 555.908203125 565.673828125 c 0,34,35
 547.8515625 562.5 547.8515625 562.5 541.50390625 557.373046875 c 0,36,37
 535.15625 552.24609375 535.15625 552.24609375 527.34375 544.43359375 c 0,38,-1
 319.3359375 330.56640625 l 0,39,-1
 554.19921875 86.42578125 l 0,40,41
 562.01171875 78.125 562.01171875 78.125 569.82421875 73.974609375 c 0,42,43
 577.63671875 69.82421875 577.63671875 69.82421875 586.42578125 67.87109375 c 0,44,45
 595.21484375 65.91796875 595.21484375 65.91796875 605.46875 66.40625 c 0,46,47
 615.72265625 66.89453125 615.72265625 66.89453125 628.41796875 68.359375 c 0,48,-1
 631.8359375 27.83203125 l 0,49,50
 617.67578125 23.4375 617.67578125 23.4375 599.12109375 17.333984375 c 0,51,52
 580.56640625 11.23046875 580.56640625 11.23046875 561.767578125 5.859375 c 0,53,54
 542.96875 0.48828125 542.96875 0.48828125 525.87890625 -3.173828125 c 0,55,56
 508.7890625 -6.8359375 508.7890625 -6.8359375 497.0703125 -6.8359375 c 0,57,58
 482.91015625 -6.8359375 482.91015625 -6.8359375 471.923828125 -2.44140625 c 0,59,60
 460.9375 1.953125 460.9375 1.953125 451.171875 14.16015625 c 0,61,-1
 222.16796875 302.734375 l 0,62,-1
 222.16796875 70.3125 l 0,63,64
 222.16796875 64.453125 222.16796875 64.453125 237.3046875 55.908203125 c 0,65,66
 252.44140625 47.36328125 252.44140625 47.36328125 288.0859375 40.52734375 c 0,67,-1
 288.0859375 0 l 0,68,-1
 19.53125 0 l 0,0,-1
EndSplineSet
EndChar

StartChar: L
Encoding: 47 76 47
Width: 520
VWidth: 488
Flags: W
LayerCount: 2
Fore
SplineSet
509.765625 158.203125 m 0,0,1
 507.8125 137.20703125 507.8125 137.20703125 505.126953125 112.548828125 c 0,2,3
 502.44140625 87.890625 502.44140625 87.890625 499.755859375 65.185546875 c 0,4,5
 497.0703125 42.48046875 497.0703125 42.48046875 494.384765625 24.90234375 c 0,6,7
 491.69921875 7.32421875 491.69921875 7.32421875 489.74609375 0 c 0,8,-1
 19.53125 0 l 0,9,-1
 19.53125 40.52734375 l 0,10,11
 52.734375 47.36328125 52.734375 47.36328125 69.091796875 55.419921875 c 0,12,13
 85.44921875 63.4765625 85.44921875 63.4765625 85.44921875 70.3125 c 0,14,-1
 85.44921875 544.43359375 l 0,15,16
 85.44921875 550.29296875 85.44921875 550.29296875 70.068359375 559.08203125 c 0,17,18
 54.6875 567.87109375 54.6875 567.87109375 19.53125 574.70703125 c 0,19,-1
 19.53125 615.234375 l 0,20,-1
 288.0859375 615.234375 l 0,21,-1
 288.0859375 574.70703125 l 0,22,23
 254.8828125 567.87109375 254.8828125 567.87109375 238.525390625 559.5703125 c 0,24,25
 222.16796875 551.26953125 222.16796875 551.26953125 222.16796875 544.43359375 c 0,26,-1
 222.16796875 99.609375 l 0,27,28
 222.16796875 90.8203125 222.16796875 90.8203125 226.318359375 84.228515625 c 0,29,30
 230.46875 77.63671875 230.46875 77.63671875 240.72265625 72.998046875 c 0,31,32
 250.9765625 68.359375 250.9765625 68.359375 268.5546875 65.91796875 c 0,33,34
 286.1328125 63.4765625 286.1328125 63.4765625 312.98828125 63.4765625 c 0,35,-1
 363.28125 63.4765625 l 0,36,37
 385.7421875 63.4765625 385.7421875 63.4765625 401.123046875 69.580078125 c 0,38,39
 416.50390625 75.68359375 416.50390625 75.68359375 428.22265625 88.8671875 c 0,40,41
 439.94140625 102.05078125 439.94140625 102.05078125 449.462890625 122.55859375 c 0,42,43
 458.984375 143.06640625 458.984375 143.06640625 469.23828125 171.875 c 0,44,-1
 509.765625 158.203125 l 0,0,1
EndSplineSet
EndChar

StartChar: M
Encoding: 48 77 48
Width: 859
VWidth: 488
Flags: W
LayerCount: 2
Fore
SplineSet
810.546875 574.70703125 m 0,0,1
 798.828125 574.70703125 798.828125 574.70703125 782.958984375 571.533203125 c 0,2,3
 767.08984375 568.359375 767.08984375 568.359375 749.51171875 562.5 c 0,4,-1
 754.39453125 70.3125 l 0,5,6
 754.39453125 64.453125 754.39453125 64.453125 772.216796875 55.908203125 c 0,7,8
 790.0390625 47.36328125 790.0390625 47.36328125 825.1953125 40.52734375 c 0,9,-1
 825.1953125 0 l 0,10,-1
 559.08203125 0 l 0,11,-1
 559.08203125 40.52734375 l 0,12,13
 592.28515625 47.36328125 592.28515625 47.36328125 611.083984375 55.419921875 c 0,14,15
 629.8828125 63.4765625 629.8828125 63.4765625 629.8828125 70.3125 c 0,16,-1
 625.9765625 447.75390625 l 0,17,-1
 421.38671875 0 l 0,18,-1
 368.1640625 0 l 0,19,-1
 169.921875 446.77734375 l 0,20,-1
 166.015625 70.3125 l 0,21,22
 166.015625 64.453125 166.015625 64.453125 181.396484375 55.908203125 c 0,23,24
 196.77734375 47.36328125 196.77734375 47.36328125 231.93359375 40.52734375 c 0,25,-1
 231.93359375 0 l 0,26,-1
 24.4140625 0 l 0,27,-1
 24.4140625 40.52734375 l 0,28,29
 58.10546875 47.36328125 58.10546875 47.36328125 74.21875 55.419921875 c 0,30,31
 90.33203125 63.4765625 90.33203125 63.4765625 90.33203125 70.3125 c 0,32,-1
 95.21484375 558.59375 l 0,33,34
 78.125 567.87109375 78.125 567.87109375 60.791015625 571.2890625 c 0,35,36
 43.45703125 574.70703125 43.45703125 574.70703125 29.296875 574.70703125 c 0,37,-1
 29.296875 615.234375 l 0,38,-1
 208.0078125 615.234375 l 0,39,40
 212.890625 615.234375 212.890625 615.234375 217.041015625 613.76953125 c 0,41,42
 221.19140625 612.3046875 221.19140625 612.3046875 225.09765625 607.91015625 c 0,43,44
 229.00390625 603.515625 229.00390625 603.515625 233.642578125 595.458984375 c 0,45,46
 238.28125 587.40234375 238.28125 587.40234375 244.140625 574.21875 c 0,47,-1
 419.43359375 177.24609375 l 0,48,-1
 600.5859375 574.21875 l 0,49,50
 606.93359375 588.8671875 606.93359375 588.8671875 611.572265625 596.923828125 c 0,51,52
 616.2109375 604.98046875 616.2109375 604.98046875 620.361328125 609.130859375 c 0,53,54
 624.51171875 613.28125 624.51171875 613.28125 628.41796875 614.2578125 c 0,55,56
 632.32421875 615.234375 632.32421875 615.234375 636.71875 615.234375 c 0,57,-1
 810.546875 615.234375 l 0,58,-1
 810.546875 574.70703125 l 0,0,1
EndSplineSet
EndChar

StartChar: N
Encoding: 49 78 49
Width: 668
VWidth: 488
Flags: W
LayerCount: 2
Fore
SplineSet
19.53125 0 m 0,0,-1
 19.53125 40.52734375 l 0,1,2
 55.17578125 44.921875 55.17578125 44.921875 70.3125 54.19921875 c 0,3,4
 85.44921875 63.4765625 85.44921875 63.4765625 85.44921875 70.3125 c 0,5,-1
 85.44921875 538.0859375 l 0,6,7
 69.82421875 552.734375 69.82421875 552.734375 52.978515625 562.5 c 0,8,9
 36.1328125 572.265625 36.1328125 572.265625 19.53125 574.70703125 c 0,10,-1
 19.53125 615.234375 l 0,11,-1
 166.9921875 615.234375 l 0,12,13
 174.31640625 615.234375 174.31640625 615.234375 178.955078125 614.013671875 c 0,14,15
 183.59375 612.79296875 183.59375 612.79296875 188.4765625 608.88671875 c 0,16,17
 193.359375 604.98046875 193.359375 604.98046875 198.974609375 597.412109375 c 0,18,19
 204.58984375 589.84375 204.58984375 589.84375 213.8671875 577.1484375 c 0,20,-1
 505.37109375 172.36328125 l 0,21,-1
 505.37109375 544.43359375 l 0,22,23
 505.37109375 547.36328125 505.37109375 547.36328125 502.44140625 551.513671875 c 0,24,25
 499.51171875 555.6640625 499.51171875 555.6640625 491.943359375 559.814453125 c 0,26,27
 484.375 563.96484375 484.375 563.96484375 471.6796875 567.87109375 c 0,28,29
 458.984375 571.77734375 458.984375 571.77734375 439.453125 574.70703125 c 0,30,-1
 439.453125 615.234375 l 0,31,-1
 649.4140625 615.234375 l 0,32,-1
 649.4140625 574.70703125 l 0,33,34
 614.2578125 569.82421875 614.2578125 569.82421875 598.876953125 560.546875 c 0,35,36
 583.49609375 551.26953125 583.49609375 551.26953125 583.49609375 544.43359375 c 0,37,-1
 583.49609375 -14.6484375 l 0,38,39
 556.640625 -12.6953125 556.640625 -12.6953125 534.912109375 -7.080078125 c 0,40,41
 513.18359375 -1.46484375 513.18359375 -1.46484375 496.337890625 6.34765625 c 0,42,43
 479.4921875 14.16015625 479.4921875 14.16015625 467.28515625 23.92578125 c 0,44,45
 455.078125 33.69140625 455.078125 33.69140625 447.265625 44.43359375 c 0,46,-1
 163.57421875 437.01171875 l 0,47,-1
 163.57421875 70.3125 l 0,48,49
 163.57421875 67.3828125 163.57421875 67.3828125 166.748046875 63.232421875 c 0,50,51
 169.921875 59.08203125 169.921875 59.08203125 177.734375 54.931640625 c 0,52,53
 185.546875 50.78125 185.546875 50.78125 197.998046875 46.875 c 0,54,55
 210.44921875 42.96875 210.44921875 42.96875 229.4921875 40.52734375 c 0,56,-1
 229.4921875 0 l 0,57,-1
 19.53125 0 l 0,0,-1
EndSplineSet
EndChar

StartChar: O
Encoding: 50 79 50
Width: 629
VWidth: 488
Flags: W
LayerCount: 2
Fore
SplineSet
594.7265625 315.91796875 m 0,0,1
 594.7265625 271.484375 594.7265625 271.484375 583.740234375 229.98046875 c 0,2,3
 572.75390625 188.4765625 572.75390625 188.4765625 552.978515625 151.611328125 c 0,4,5
 533.203125 114.74609375 533.203125 114.74609375 505.859375 84.228515625 c 0,6,7
 478.515625 53.7109375 478.515625 53.7109375 445.068359375 31.73828125 c 0,8,9
 411.62109375 9.765625 411.62109375 9.765625 373.779296875 -2.44140625 c 0,10,11
 335.9375 -14.6484375 335.9375 -14.6484375 295.41015625 -14.6484375 c 0,12,13
 232.91015625 -14.6484375 232.91015625 -14.6484375 182.6171875 11.23046875 c 0,14,15
 132.32421875 37.109375 132.32421875 37.109375 97.16796875 80.56640625 c 0,16,17
 62.01171875 124.0234375 62.01171875 124.0234375 43.212890625 180.6640625 c 0,18,19
 24.4140625 237.3046875 24.4140625 237.3046875 24.4140625 298.828125 c 0,20,21
 24.4140625 365.234375 24.4140625 365.234375 46.142578125 425.29296875 c 0,22,23
 67.87109375 485.3515625 67.87109375 485.3515625 107.421875 530.76171875 c 0,24,25
 146.97265625 576.171875 146.97265625 576.171875 201.904296875 603.02734375 c 0,26,27
 256.8359375 629.8828125 256.8359375 629.8828125 323.73046875 629.8828125 c 0,28,29
 389.6484375 629.8828125 389.6484375 629.8828125 440.185546875 603.271484375 c 0,30,31
 490.72265625 576.66015625 490.72265625 576.66015625 525.146484375 532.71484375 c 0,32,33
 559.5703125 488.76953125 559.5703125 488.76953125 577.1484375 432.12890625 c 0,34,35
 594.7265625 375.48828125 594.7265625 375.48828125 594.7265625 315.91796875 c 0,0,1
455.56640625 307.12890625 m 0,36,37
 455.56640625 357.421875 455.56640625 357.421875 444.091796875 404.052734375 c 0,38,39
 432.6171875 450.68359375 432.6171875 450.68359375 411.376953125 486.083984375 c 0,40,41
 390.13671875 521.484375 390.13671875 521.484375 360.595703125 542.724609375 c 0,42,43
 331.0546875 563.96484375 331.0546875 563.96484375 294.921875 563.96484375 c 0,44,45
 262.6953125 563.96484375 262.6953125 563.96484375 238.037109375 547.119140625 c 0,46,47
 213.37890625 530.2734375 213.37890625 530.2734375 196.77734375 498.046875 c 0,48,49
 180.17578125 465.8203125 180.17578125 465.8203125 171.875 419.189453125 c 0,50,51
 163.57421875 372.55859375 163.57421875 372.55859375 163.57421875 312.98828125 c 0,52,53
 163.57421875 258.30078125 163.57421875 258.30078125 175.78125 210.9375 c 0,54,55
 187.98828125 163.57421875 187.98828125 163.57421875 209.228515625 128.662109375 c 0,56,57
 230.46875 93.75 230.46875 93.75 258.7890625 73.73046875 c 0,58,59
 287.109375 53.7109375 287.109375 53.7109375 319.3359375 53.7109375 c 0,60,61
 348.6328125 53.7109375 348.6328125 53.7109375 373.779296875 69.091796875 c 0,62,63
 398.92578125 84.47265625 398.92578125 84.47265625 416.9921875 115.72265625 c 0,64,65
 435.05859375 146.97265625 435.05859375 146.97265625 445.3125 194.82421875 c 0,66,67
 455.56640625 242.67578125 455.56640625 242.67578125 455.56640625 307.12890625 c 0,36,37
EndSplineSet
EndChar

StartChar: P
Encoding: 51 80 51
Width: 581
VWidth: 488
Flags: W
LayerCount: 2
Fore
SplineSet
19.53125 0 m 0,0,-1
 19.53125 40.52734375 l 0,1,2
 52.734375 47.36328125 52.734375 47.36328125 69.091796875 55.419921875 c 0,3,4
 85.44921875 63.4765625 85.44921875 63.4765625 85.44921875 70.3125 c 0,5,-1
 85.44921875 560.546875 l 0,6,7
 48.33984375 556.15234375 48.33984375 556.15234375 19.53125 550.78125 c 0,8,-1
 12.6953125 600.5859375 l 0,9,10
 40.0390625 606.93359375 40.0390625 606.93359375 73.974609375 612.3046875 c 0,11,12
 107.91015625 617.67578125 107.91015625 617.67578125 144.287109375 621.58203125 c 0,13,14
 180.6640625 625.48828125 180.6640625 625.48828125 217.7734375 627.685546875 c 0,15,16
 254.8828125 629.8828125 254.8828125 629.8828125 288.0859375 629.8828125 c 0,17,18
 346.19140625 629.8828125 346.19140625 629.8828125 394.04296875 618.65234375 c 0,19,20
 441.89453125 607.421875 441.89453125 607.421875 476.07421875 585.44921875 c 0,21,22
 510.25390625 563.4765625 510.25390625 563.4765625 529.052734375 531.25 c 0,23,24
 547.8515625 499.0234375 547.8515625 499.0234375 547.8515625 457.03125 c 0,25,26
 547.8515625 406.25 547.8515625 406.25 527.83203125 367.67578125 c 0,27,28
 507.8125 329.1015625 507.8125 329.1015625 476.806640625 303.22265625 c 0,29,30
 445.80078125 277.34375 445.80078125 277.34375 408.935546875 264.404296875 c 0,31,32
 372.0703125 251.46484375 372.0703125 251.46484375 338.37890625 251.46484375 c 0,33,34
 315.91796875 251.46484375 315.91796875 251.46484375 293.701171875 255.126953125 c 0,35,36
 271.484375 258.7890625 271.484375 258.7890625 254.8828125 266.11328125 c 0,37,-1
 238.76953125 322.265625 l 0,38,39
 258.7890625 312.98828125 258.7890625 312.98828125 272.94921875 310.302734375 c 0,40,41
 287.109375 307.6171875 287.109375 307.6171875 304.19921875 307.6171875 c 0,42,43
 324.70703125 307.6171875 324.70703125 307.6171875 343.75 314.94140625 c 0,44,45
 362.79296875 322.265625 362.79296875 322.265625 377.197265625 337.890625 c 0,46,47
 391.6015625 353.515625 391.6015625 353.515625 400.146484375 377.9296875 c 0,48,49
 408.69140625 402.34375 408.69140625 402.34375 408.69140625 437.01171875 c 0,50,51
 408.69140625 469.7265625 408.69140625 469.7265625 398.193359375 495.361328125 c 0,52,53
 387.6953125 520.99609375 387.6953125 520.99609375 368.408203125 538.57421875 c 0,54,55
 349.12109375 556.15234375 349.12109375 556.15234375 321.77734375 565.185546875 c 0,56,57
 294.43359375 574.21875 294.43359375 574.21875 260.25390625 574.21875 c 0,58,59
 251.46484375 574.21875 251.46484375 574.21875 241.69921875 573.974609375 c 0,60,61
 231.93359375 573.73046875 231.93359375 573.73046875 222.16796875 573.2421875 c 0,62,-1
 222.16796875 70.3125 l 0,63,64
 222.16796875 67.3828125 222.16796875 67.3828125 225.09765625 63.96484375 c 0,65,66
 228.02734375 60.546875 228.02734375 60.546875 236.81640625 56.640625 c 0,67,68
 245.60546875 52.734375 245.60546875 52.734375 261.474609375 48.828125 c 0,69,70
 277.34375 44.921875 277.34375 44.921875 302.734375 40.52734375 c 0,71,-1
 302.734375 0 l 0,72,-1
 19.53125 0 l 0,0,-1
EndSplineSet
EndChar

StartChar: Q
Encoding: 52 81 52
Width: 629
VWidth: 488
Flags: W
LayerCount: 2
Fore
SplineSet
713.8671875 -62.01171875 m 0,0,1
 702.1484375 -83.49609375 702.1484375 -83.49609375 688.232421875 -101.806640625 c 0,2,3
 674.31640625 -120.1171875 674.31640625 -120.1171875 660.888671875 -134.033203125 c 0,4,5
 647.4609375 -147.94921875 647.4609375 -147.94921875 635.498046875 -155.76171875 c 0,6,7
 623.53515625 -163.57421875 623.53515625 -163.57421875 616.2109375 -163.57421875 c 0,8,9
 592.7734375 -163.57421875 592.7734375 -163.57421875 568.84765625 -155.76171875 c 0,10,11
 544.921875 -147.94921875 544.921875 -147.94921875 520.751953125 -135.25390625 c 0,12,13
 496.58203125 -122.55859375 496.58203125 -122.55859375 472.16796875 -106.201171875 c 0,14,15
 447.75390625 -89.84375 447.75390625 -89.84375 423.33984375 -72.998046875 c 0,16,17
 398.92578125 -56.15234375 398.92578125 -56.15234375 374.51171875 -40.283203125 c 0,18,19
 350.09765625 -24.4140625 350.09765625 -24.4140625 325.68359375 -12.6953125 c 0,20,21
 318.359375 -13.671875 318.359375 -13.671875 310.791015625 -14.16015625 c 0,22,23
 303.22265625 -14.6484375 303.22265625 -14.6484375 295.41015625 -14.6484375 c 0,24,25
 232.91015625 -14.6484375 232.91015625 -14.6484375 182.6171875 11.23046875 c 0,26,27
 132.32421875 37.109375 132.32421875 37.109375 97.16796875 80.56640625 c 0,28,29
 62.01171875 124.0234375 62.01171875 124.0234375 43.212890625 180.6640625 c 0,30,31
 24.4140625 237.3046875 24.4140625 237.3046875 24.4140625 298.828125 c 0,32,33
 24.4140625 365.234375 24.4140625 365.234375 46.142578125 425.29296875 c 0,34,35
 67.87109375 485.3515625 67.87109375 485.3515625 107.421875 530.76171875 c 0,36,37
 146.97265625 576.171875 146.97265625 576.171875 201.904296875 603.02734375 c 0,38,39
 256.8359375 629.8828125 256.8359375 629.8828125 323.73046875 629.8828125 c 0,40,41
 389.6484375 629.8828125 389.6484375 629.8828125 440.185546875 603.271484375 c 0,42,43
 490.72265625 576.66015625 490.72265625 576.66015625 525.146484375 532.71484375 c 0,44,45
 559.5703125 488.76953125 559.5703125 488.76953125 577.1484375 432.12890625 c 0,46,47
 594.7265625 375.48828125 594.7265625 375.48828125 594.7265625 315.91796875 c 0,48,49
 594.7265625 267.08984375 594.7265625 267.08984375 581.54296875 221.435546875 c 0,50,51
 568.359375 175.78125 568.359375 175.78125 544.43359375 136.474609375 c 0,52,53
 520.5078125 97.16796875 520.5078125 97.16796875 487.79296875 65.91796875 c 0,54,55
 455.078125 34.66796875 455.078125 34.66796875 416.015625 14.6484375 c 0,56,57
 445.3125 5.37109375 445.3125 5.37109375 472.16796875 -7.32421875 c 0,58,59
 499.0234375 -20.01953125 499.0234375 -20.01953125 523.92578125 -31.25 c 0,60,61
 548.828125 -42.48046875 548.828125 -42.48046875 572.509765625 -50.537109375 c 0,62,63
 596.19140625 -58.59375 596.19140625 -58.59375 619.140625 -58.59375 c 0,64,65
 625 -58.59375 625 -58.59375 630.859375 -57.373046875 c 0,66,67
 636.71875 -56.15234375 636.71875 -56.15234375 644.04296875 -52.734375 c 0,68,69
 651.3671875 -49.31640625 651.3671875 -49.31640625 661.376953125 -42.724609375 c 0,70,71
 671.38671875 -36.1328125 671.38671875 -36.1328125 686.03515625 -25.390625 c 0,72,-1
 713.8671875 -62.01171875 l 0,0,1
455.56640625 307.12890625 m 0,73,74
 455.56640625 357.421875 455.56640625 357.421875 444.091796875 404.052734375 c 0,75,76
 432.6171875 450.68359375 432.6171875 450.68359375 411.376953125 486.083984375 c 0,77,78
 390.13671875 521.484375 390.13671875 521.484375 360.595703125 542.724609375 c 0,79,80
 331.0546875 563.96484375 331.0546875 563.96484375 294.921875 563.96484375 c 0,81,82
 262.6953125 563.96484375 262.6953125 563.96484375 238.037109375 547.119140625 c 0,83,84
 213.37890625 530.2734375 213.37890625 530.2734375 196.77734375 498.046875 c 0,85,86
 180.17578125 465.8203125 180.17578125 465.8203125 171.875 419.189453125 c 0,87,88
 163.57421875 372.55859375 163.57421875 372.55859375 163.57421875 312.98828125 c 0,89,90
 163.57421875 258.30078125 163.57421875 258.30078125 175.78125 210.9375 c 0,91,92
 187.98828125 163.57421875 187.98828125 163.57421875 209.228515625 128.662109375 c 0,93,94
 230.46875 93.75 230.46875 93.75 258.7890625 73.73046875 c 0,95,96
 287.109375 53.7109375 287.109375 53.7109375 319.3359375 53.7109375 c 0,97,98
 348.6328125 53.7109375 348.6328125 53.7109375 373.779296875 69.091796875 c 0,99,100
 398.92578125 84.47265625 398.92578125 84.47265625 416.9921875 115.72265625 c 0,101,102
 435.05859375 146.97265625 435.05859375 146.97265625 445.3125 194.82421875 c 0,103,104
 455.56640625 242.67578125 455.56640625 242.67578125 455.56640625 307.12890625 c 0,73,74
EndSplineSet
EndChar

StartChar: R
Encoding: 53 82 53
Width: 619
VWidth: 488
Flags: W
LayerCount: 2
Fore
SplineSet
245.1171875 574.21875 m 0,0,1
 239.74609375 574.21875 239.74609375 574.21875 234.130859375 573.974609375 c 0,2,3
 228.515625 573.73046875 228.515625 573.73046875 222.16796875 573.73046875 c 0,4,-1
 222.16796875 347.16796875 l 0,5,6
 235.3515625 344.7265625 235.3515625 344.7265625 245.1171875 344.23828125 c 0,7,8
 254.8828125 343.75 254.8828125 343.75 265.625 343.75 c 0,9,10
 296.875 343.75 296.875 343.75 318.84765625 352.294921875 c 0,11,12
 340.8203125 360.83984375 340.8203125 360.83984375 354.736328125 376.708984375 c 0,13,14
 368.65234375 392.578125 368.65234375 392.578125 375.244140625 415.283203125 c 0,15,16
 381.8359375 437.98828125 381.8359375 437.98828125 381.8359375 466.796875 c 0,17,18
 381.8359375 487.79296875 381.8359375 487.79296875 376.220703125 507.32421875 c 0,19,20
 370.60546875 526.85546875 370.60546875 526.85546875 355.224609375 541.748046875 c 0,21,22
 339.84375 556.640625 339.84375 556.640625 313.232421875 565.4296875 c 0,23,24
 286.62109375 574.21875 286.62109375 574.21875 245.1171875 574.21875 c 0,0,1
19.53125 0 m 0,25,-1
 19.53125 40.52734375 l 0,26,27
 52.734375 47.36328125 52.734375 47.36328125 69.091796875 55.419921875 c 0,28,29
 85.44921875 63.4765625 85.44921875 63.4765625 85.44921875 70.3125 c 0,30,-1
 85.44921875 560.05859375 l 0,31,-1
 19.53125 550.78125 l 0,32,-1
 12.6953125 600.5859375 l 0,33,34
 65.91796875 611.81640625 65.91796875 611.81640625 130.859375 620.849609375 c 0,35,36
 195.80078125 629.8828125 195.80078125 629.8828125 268.06640625 629.8828125 c 0,37,38
 337.40234375 629.8828125 337.40234375 629.8828125 385.7421875 618.65234375 c 0,39,40
 434.08203125 607.421875 434.08203125 607.421875 464.111328125 587.40234375 c 0,41,42
 494.140625 567.3828125 494.140625 567.3828125 507.568359375 540.283203125 c 0,43,44
 520.99609375 513.18359375 520.99609375 513.18359375 520.99609375 481.93359375 c 0,45,46
 520.99609375 448.73046875 520.99609375 448.73046875 510.986328125 420.654296875 c 0,47,48
 500.9765625 392.578125 500.9765625 392.578125 483.154296875 369.873046875 c 0,49,50
 465.33203125 347.16796875 465.33203125 347.16796875 440.185546875 329.833984375 c 0,51,52
 415.0390625 312.5 415.0390625 312.5 384.765625 301.7578125 c 0,53,-1
 541.015625 97.16796875 l 0,54,55
 548.828125 86.9140625 548.828125 86.9140625 555.419921875 80.56640625 c 0,56,57
 562.01171875 74.21875 562.01171875 74.21875 570.068359375 71.044921875 c 0,58,59
 578.125 67.87109375 578.125 67.87109375 589.111328125 67.3828125 c 0,60,61
 600.09765625 66.89453125 600.09765625 66.89453125 616.69921875 68.359375 c 0,62,-1
 624.51171875 27.83203125 l 0,63,64
 608.3984375 22.4609375 608.3984375 22.4609375 586.669921875 16.357421875 c 0,65,66
 564.94140625 10.25390625 564.94140625 10.25390625 543.701171875 5.126953125 c 0,67,68
 522.4609375 0 522.4609375 0 503.90625 -3.41796875 c 0,69,70
 485.3515625 -6.8359375 485.3515625 -6.8359375 476.07421875 -6.8359375 c 0,71,72
 461.9140625 -6.8359375 461.9140625 -6.8359375 448.486328125 0.9765625 c 0,73,74
 435.05859375 8.7890625 435.05859375 8.7890625 428.22265625 20.01953125 c 0,75,-1
 290.52734375 283.69140625 l 0,76,77
 286.62109375 283.203125 286.62109375 283.203125 282.2265625 283.203125 c 0,78,-1
 273.92578125 283.203125 l 0,79,80
 261.23046875 283.203125 261.23046875 283.203125 248.53515625 284.423828125 c 0,81,82
 235.83984375 285.64453125 235.83984375 285.64453125 222.16796875 288.57421875 c 0,83,-1
 222.16796875 70.3125 l 0,84,85
 222.16796875 64.453125 222.16796875 64.453125 237.3046875 55.908203125 c 0,86,87
 252.44140625 47.36328125 252.44140625 47.36328125 288.0859375 40.52734375 c 0,88,-1
 288.0859375 0 l 0,89,-1
 19.53125 0 l 0,25,-1
EndSplineSet
EndChar

StartChar: S
Encoding: 54 83 54
Width: 524
VWidth: 488
Flags: W
LayerCount: 2
Fore
SplineSet
485.83984375 184.08203125 m 0,0,1
 485.83984375 162.109375 485.83984375 162.109375 479.00390625 139.16015625 c 0,2,3
 472.16796875 116.2109375 472.16796875 116.2109375 458.740234375 93.994140625 c 0,4,5
 445.3125 71.77734375 445.3125 71.77734375 424.560546875 52.001953125 c 0,6,7
 403.80859375 32.2265625 403.80859375 32.2265625 375.732421875 17.578125 c 0,8,9
 347.65625 2.9296875 347.65625 2.9296875 312.5 -5.859375 c 0,10,11
 277.34375 -14.6484375 277.34375 -14.6484375 234.375 -14.6484375 c 0,12,13
 216.30859375 -14.6484375 216.30859375 -14.6484375 192.3828125 -11.23046875 c 0,14,15
 168.45703125 -7.8125 168.45703125 -7.8125 143.5546875 -1.708984375 c 0,16,17
 118.65234375 4.39453125 118.65234375 4.39453125 94.970703125 13.18359375 c 0,18,19
 71.2890625 21.97265625 71.2890625 21.97265625 54.19921875 33.203125 c 0,20,21
 51.7578125 34.1796875 51.7578125 34.1796875 50.29296875 43.212890625 c 0,22,23
 48.828125 52.24609375 48.828125 52.24609375 48.33984375 65.91796875 c 0,24,25
 47.8515625 79.58984375 47.8515625 79.58984375 47.8515625 96.6796875 c 0,26,27
 47.8515625 113.76953125 47.8515625 113.76953125 49.31640625 131.591796875 c 0,28,29
 50.78125 149.4140625 50.78125 149.4140625 53.22265625 166.50390625 c 0,30,31
 55.6640625 183.59375 55.6640625 183.59375 59.08203125 197.265625 c 0,32,-1
 98.6328125 194.82421875 l 0,33,34
 109.86328125 166.015625 109.86328125 166.015625 125.732421875 141.11328125 c 0,35,36
 141.6015625 116.2109375 141.6015625 116.2109375 161.376953125 97.900390625 c 0,37,38
 181.15234375 79.58984375 181.15234375 79.58984375 204.1015625 69.091796875 c 0,39,40
 227.05078125 58.59375 227.05078125 58.59375 251.953125 58.59375 c 0,41,42
 273.92578125 58.59375 273.92578125 58.59375 293.701171875 63.96484375 c 0,43,44
 313.4765625 69.3359375 313.4765625 69.3359375 328.61328125 80.322265625 c 0,45,46
 343.75 91.30859375 343.75 91.30859375 352.5390625 108.154296875 c 0,47,48
 361.328125 125 361.328125 125 361.328125 148.4375 c 0,49,50
 361.328125 178.22265625 361.328125 178.22265625 348.14453125 199.951171875 c 0,51,52
 334.9609375 221.6796875 334.9609375 221.6796875 313.232421875 238.525390625 c 0,53,54
 291.50390625 255.37109375 291.50390625 255.37109375 263.671875 269.04296875 c 0,55,56
 235.83984375 282.71484375 235.83984375 282.71484375 206.787109375 296.38671875 c 0,57,58
 177.734375 310.05859375 177.734375 310.05859375 149.90234375 325.1953125 c 0,59,60
 122.0703125 340.33203125 122.0703125 340.33203125 100.341796875 360.107421875 c 0,61,62
 78.61328125 379.8828125 78.61328125 379.8828125 65.4296875 405.76171875 c 0,63,64
 52.24609375 431.640625 52.24609375 431.640625 52.24609375 467.28515625 c 0,65,66
 52.24609375 482.421875 52.24609375 482.421875 58.349609375 500.48828125 c 0,67,68
 64.453125 518.5546875 64.453125 518.5546875 76.904296875 536.62109375 c 0,69,70
 89.35546875 554.6875 89.35546875 554.6875 108.3984375 571.533203125 c 0,71,72
 127.44140625 588.37890625 127.44140625 588.37890625 153.3203125 601.318359375 c 0,73,74
 179.19921875 614.2578125 179.19921875 614.2578125 212.40234375 622.0703125 c 0,75,76
 245.60546875 629.8828125 245.60546875 629.8828125 286.1328125 629.8828125 c 0,77,78
 313.96484375 629.8828125 313.96484375 629.8828125 340.33203125 626.46484375 c 0,79,80
 366.69921875 623.046875 366.69921875 623.046875 389.404296875 617.1875 c 0,81,82
 412.109375 611.328125 412.109375 611.328125 429.443359375 603.02734375 c 0,83,84
 446.77734375 594.7265625 446.77734375 594.7265625 455.56640625 584.9609375 c 0,85,86
 458.0078125 583.0078125 458.0078125 583.0078125 456.787109375 575.439453125 c 0,87,88
 455.56640625 567.87109375 455.56640625 567.87109375 452.1484375 557.6171875 c 0,89,90
 448.73046875 547.36328125 448.73046875 547.36328125 443.603515625 535.400390625 c 0,91,92
 438.4765625 523.4375 438.4765625 523.4375 432.861328125 512.451171875 c 0,93,94
 427.24609375 501.46484375 427.24609375 501.46484375 421.875 492.919921875 c 0,95,96
 416.50390625 484.375 416.50390625 484.375 412.59765625 480.95703125 c 0,97,-1
 375.48828125 483.88671875 l 0,98,99
 365.72265625 508.7890625 365.72265625 508.7890625 352.05078125 525.634765625 c 0,100,101
 338.37890625 542.48046875 338.37890625 542.48046875 322.998046875 552.734375 c 0,102,103
 307.6171875 562.98828125 307.6171875 562.98828125 291.748046875 567.138671875 c 0,104,105
 275.87890625 571.2890625 275.87890625 571.2890625 262.20703125 571.2890625 c 0,106,107
 238.76953125 571.2890625 238.76953125 571.2890625 222.16796875 565.4296875 c 0,108,109
 205.56640625 559.5703125 205.56640625 559.5703125 194.82421875 549.560546875 c 0,110,111
 184.08203125 539.55078125 184.08203125 539.55078125 179.19921875 526.611328125 c 0,112,113
 174.31640625 513.671875 174.31640625 513.671875 174.31640625 500 c 0,114,115
 174.31640625 477.05078125 174.31640625 477.05078125 187.744140625 458.984375 c 0,116,117
 201.171875 440.91796875 201.171875 440.91796875 223.14453125 425.78125 c 0,118,119
 245.1171875 410.64453125 245.1171875 410.64453125 272.94921875 396.484375 c 0,120,-1
 330.078125 368.1640625 l 0,121,122
 359.375 353.515625 359.375 353.515625 387.20703125 336.42578125 c 0,123,124
 415.0390625 319.3359375 415.0390625 319.3359375 437.01171875 297.607421875 c 0,125,126
 458.984375 275.87890625 458.984375 275.87890625 472.412109375 248.046875 c 0,127,128
 485.83984375 220.21484375 485.83984375 220.21484375 485.83984375 184.08203125 c 0,0,1
EndSplineSet
EndChar

StartChar: T
Encoding: 55 84 55
Width: 589
VWidth: 488
Flags: W
LayerCount: 2
Fore
SplineSet
145.01953125 0 m 0,0,-1
 145.01953125 40.52734375 l 0,1,2
 167.48046875 44.921875 167.48046875 44.921875 182.12890625 49.8046875 c 0,3,4
 196.77734375 54.6875 196.77734375 54.6875 205.078125 59.326171875 c 0,5,6
 213.37890625 63.96484375 213.37890625 63.96484375 216.796875 68.115234375 c 0,7,8
 220.21484375 72.265625 220.21484375 72.265625 220.21484375 75.68359375 c 0,9,-1
 220.21484375 551.7578125 l 0,10,-1
 103.515625 551.7578125 l 0,11,12
 96.19140625 551.7578125 96.19140625 551.7578125 89.35546875 545.654296875 c 0,13,14
 82.51953125 539.55078125 82.51953125 539.55078125 75.439453125 526.611328125 c 0,15,16
 68.359375 513.671875 68.359375 513.671875 59.814453125 493.1640625 c 0,17,18
 51.26953125 472.65625 51.26953125 472.65625 40.52734375 444.3359375 c 0,19,-1
 0 458.49609375 l 0,20,21
 0.9765625 472.65625 0.9765625 472.65625 3.41796875 494.140625 c 0,22,23
 5.859375 515.625 5.859375 515.625 9.033203125 538.330078125 c 0,24,25
 12.20703125 561.03515625 12.20703125 561.03515625 15.380859375 581.787109375 c 0,26,27
 18.5546875 602.5390625 18.5546875 602.5390625 20.99609375 615.234375 c 0,28,-1
 553.22265625 615.234375 l 0,29,-1
 572.75390625 598.14453125 l 0,30,31
 572.265625 585.44921875 572.265625 585.44921875 570.3125 566.40625 c 0,32,33
 568.359375 547.36328125 568.359375 547.36328125 565.4296875 526.611328125 c 0,34,35
 562.5 505.859375 562.5 505.859375 559.326171875 485.107421875 c 0,36,37
 556.15234375 464.35546875 556.15234375 464.35546875 553.22265625 449.21875 c 0,38,-1
 511.71875 449.21875 l 0,39,40
 506.8359375 471.6796875 506.8359375 471.6796875 503.90625 490.72265625 c 0,41,42
 500.9765625 509.765625 500.9765625 509.765625 497.0703125 523.193359375 c 0,43,44
 493.1640625 536.62109375 493.1640625 536.62109375 487.3046875 544.189453125 c 0,45,46
 481.4453125 551.7578125 481.4453125 551.7578125 471.19140625 551.7578125 c 0,47,-1
 356.93359375 551.7578125 l 0,48,-1
 356.93359375 75.68359375 l 0,49,50
 356.93359375 72.75390625 356.93359375 72.75390625 360.3515625 68.603515625 c 0,51,52
 363.76953125 64.453125 363.76953125 64.453125 372.0703125 59.5703125 c 0,53,54
 380.37109375 54.6875 380.37109375 54.6875 395.01953125 49.8046875 c 0,55,56
 409.66796875 44.921875 409.66796875 44.921875 432.12890625 40.52734375 c 0,57,-1
 432.12890625 0 l 0,58,-1
 145.01953125 0 l 0,0,-1
EndSplineSet
EndChar

StartChar: U
Encoding: 56 85 56
Width: 673
VWidth: 488
Flags: W
LayerCount: 2
Fore
SplineSet
646.97265625 574.70703125 m 0,0,1
 613.76953125 567.87109375 613.76953125 567.87109375 597.412109375 559.5703125 c 0,2,3
 581.0546875 551.26953125 581.0546875 551.26953125 581.0546875 544.43359375 c 0,4,-1
 581.0546875 255.859375 l 0,5,6
 581.0546875 191.89453125 581.0546875 191.89453125 562.255859375 141.6015625 c 0,7,8
 543.45703125 91.30859375 543.45703125 91.30859375 510.498046875 56.640625 c 0,9,10
 477.5390625 21.97265625 477.5390625 21.97265625 432.6171875 3.662109375 c 0,11,12
 387.6953125 -14.6484375 387.6953125 -14.6484375 334.9609375 -14.6484375 c 0,13,14
 284.66796875 -14.6484375 284.66796875 -14.6484375 239.2578125 -0.732421875 c 0,15,16
 193.84765625 13.18359375 193.84765625 13.18359375 159.66796875 41.748046875 c 0,17,18
 125.48828125 70.3125 125.48828125 70.3125 105.46875 113.76953125 c 0,19,20
 85.44921875 157.2265625 85.44921875 157.2265625 85.44921875 216.796875 c 0,21,-1
 85.44921875 544.43359375 l 0,22,23
 85.44921875 550.29296875 85.44921875 550.29296875 70.068359375 559.08203125 c 0,24,25
 54.6875 567.87109375 54.6875 567.87109375 19.53125 574.70703125 c 0,26,-1
 19.53125 615.234375 l 0,27,-1
 288.0859375 615.234375 l 0,28,-1
 288.0859375 574.70703125 l 0,29,30
 254.8828125 567.87109375 254.8828125 567.87109375 238.525390625 559.5703125 c 0,31,32
 222.16796875 551.26953125 222.16796875 551.26953125 222.16796875 544.43359375 c 0,33,-1
 222.16796875 250.9765625 l 0,34,35
 222.16796875 204.1015625 222.16796875 204.1015625 229.4921875 168.45703125 c 0,36,37
 236.81640625 132.8125 236.81640625 132.8125 253.662109375 109.130859375 c 0,38,39
 270.5078125 85.44921875 270.5078125 85.44921875 298.583984375 73.2421875 c 0,40,41
 326.66015625 61.03515625 326.66015625 61.03515625 368.65234375 61.03515625 c 0,42,43
 403.3203125 61.03515625 403.3203125 61.03515625 426.513671875 76.171875 c 0,44,45
 449.70703125 91.30859375 449.70703125 91.30859375 463.37890625 116.943359375 c 0,46,47
 477.05078125 142.578125 477.05078125 142.578125 482.666015625 176.025390625 c 0,48,49
 488.28125 209.47265625 488.28125 209.47265625 488.28125 245.60546875 c 0,50,-1
 488.28125 544.43359375 l 0,51,52
 488.28125 550.29296875 488.28125 550.29296875 472.900390625 559.08203125 c 0,53,54
 457.51953125 567.87109375 457.51953125 567.87109375 422.36328125 574.70703125 c 0,55,-1
 422.36328125 615.234375 l 0,56,-1
 646.97265625 615.234375 l 0,57,-1
 646.97265625 574.70703125 l 0,0,1
EndSplineSet
EndChar

StartChar: V
Encoding: 57 86 57
Width: 669
VWidth: 488
Flags: W
LayerCount: 2
Fore
SplineSet
654.296875 574.70703125 m 0,0,1
 621.09375 568.359375 621.09375 568.359375 602.294921875 562.255859375 c 0,2,3
 583.49609375 556.15234375 583.49609375 556.15234375 578.61328125 542.48046875 c 0,4,-1
 396.484375 43.45703125 l 0,5,6
 392.578125 32.71484375 392.578125 32.71484375 381.34765625 23.4375 c 0,7,8
 370.1171875 14.16015625 370.1171875 14.16015625 355.224609375 6.8359375 c 0,9,10
 340.33203125 -0.48828125 340.33203125 -0.48828125 323.974609375 -5.859375 c 0,11,12
 307.6171875 -11.23046875 307.6171875 -11.23046875 293.9453125 -14.6484375 c 0,13,-1
 69.3359375 542.48046875 l 0,14,15
 63.96484375 555.17578125 63.96484375 555.17578125 49.8046875 562.98828125 c 0,16,17
 35.64453125 570.80078125 35.64453125 570.80078125 4.8828125 574.70703125 c 0,18,-1
 4.8828125 615.234375 l 0,19,-1
 266.11328125 615.234375 l 0,20,-1
 266.11328125 574.70703125 l 0,21,22
 246.58203125 573.2421875 246.58203125 573.2421875 234.130859375 570.80078125 c 0,23,24
 221.6796875 568.359375 221.6796875 568.359375 215.087890625 564.697265625 c 0,25,26
 208.49609375 561.03515625 208.49609375 561.03515625 207.03125 555.6640625 c 0,27,28
 205.56640625 550.29296875 205.56640625 550.29296875 208.49609375 543.45703125 c 0,29,-1
 362.3046875 152.83203125 l 0,30,-1
 500.9765625 542.48046875 l 0,31,32
 503.41796875 549.8046875 503.41796875 549.8046875 501.953125 554.6875 c 0,33,34
 500.48828125 559.5703125 500.48828125 559.5703125 493.65234375 563.232421875 c 0,35,36
 486.81640625 566.89453125 486.81640625 566.89453125 474.12109375 569.580078125 c 0,37,38
 461.42578125 572.265625 461.42578125 572.265625 441.40625 574.70703125 c 0,39,-1
 441.40625 615.234375 l 0,40,-1
 654.296875 615.234375 l 0,41,-1
 654.296875 574.70703125 l 0,0,1
EndSplineSet
EndChar

StartChar: W
Encoding: 58 87 58
Width: 850
VWidth: 488
Flags: W
LayerCount: 2
Fore
SplineSet
850.5859375 574.70703125 m 0,0,1
 829.1015625 570.3125 829.1015625 570.3125 814.94140625 566.40625 c 0,2,3
 800.78125 562.5 800.78125 562.5 792.48046875 558.837890625 c 0,4,5
 784.1796875 555.17578125 784.1796875 555.17578125 780.517578125 551.7578125 c 0,6,7
 776.85546875 548.33984375 776.85546875 548.33984375 776.3671875 544.43359375 c 0,8,-1
 664.55078125 28.80859375 l 0,9,10
 662.109375 18.5546875 662.109375 18.5546875 653.3203125 10.986328125 c 0,11,12
 644.53125 3.41796875 644.53125 3.41796875 633.30078125 -1.708984375 c 0,13,14
 622.0703125 -6.8359375 622.0703125 -6.8359375 610.595703125 -10.009765625 c 0,15,16
 599.12109375 -13.18359375 599.12109375 -13.18359375 591.796875 -14.6484375 c 0,17,-1
 422.8515625 416.9921875 l 0,18,-1
 282.71484375 28.80859375 l 0,19,20
 279.296875 18.5546875 279.296875 18.5546875 270.263671875 11.23046875 c 0,21,22
 261.23046875 3.90625 261.23046875 3.90625 249.755859375 -1.220703125 c 0,23,24
 238.28125 -6.34765625 238.28125 -6.34765625 226.07421875 -9.521484375 c 0,25,26
 213.8671875 -12.6953125 213.8671875 -12.6953125 204.1015625 -14.6484375 c 0,27,-1
 77.1484375 540.52734375 l 0,28,29
 74.70703125 552.734375 74.70703125 552.734375 59.5703125 560.546875 c 0,30,31
 44.43359375 568.359375 44.43359375 568.359375 9.765625 574.70703125 c 0,32,-1
 9.765625 615.234375 l 0,33,-1
 258.30078125 615.234375 l 0,34,-1
 258.30078125 574.70703125 l 0,35,36
 234.375 572.265625 234.375 572.265625 221.435546875 568.603515625 c 0,37,38
 208.49609375 564.94140625 208.49609375 564.94140625 202.63671875 560.546875 c 0,39,40
 196.77734375 556.15234375 196.77734375 556.15234375 196.2890625 551.025390625 c 0,41,42
 195.80078125 545.8984375 195.80078125 545.8984375 196.77734375 540.52734375 c 0,43,-1
 275.87890625 209.9609375 l 0,44,-1
 413.0859375 615.234375 l 0,45,-1
 469.23828125 615.234375 l 0,46,-1
 629.8828125 209.9609375 l 0,47,-1
 704.1015625 544.43359375 l 0,48,49
 705.078125 550.29296875 705.078125 550.29296875 699.70703125 554.6875 c 0,50,51
 694.3359375 559.08203125 694.3359375 559.08203125 684.08203125 562.5 c 0,52,53
 673.828125 565.91796875 673.828125 565.91796875 659.66796875 568.84765625 c 0,54,55
 645.5078125 571.77734375 645.5078125 571.77734375 628.90625 574.70703125 c 0,56,-1
 628.90625 615.234375 l 0,57,-1
 850.5859375 615.234375 l 0,58,-1
 850.5859375 574.70703125 l 0,0,1
EndSplineSet
EndChar

StartChar: X
Encoding: 59 88 59
Width: 634
VWidth: 488
Flags: W
LayerCount: 2
Fore
SplineSet
350.5859375 0 m 0,0,-1
 350.5859375 40.52734375 l 0,1,2
 372.0703125 42.48046875 372.0703125 42.48046875 385.25390625 45.654296875 c 0,3,4
 398.4375 48.828125 398.4375 48.828125 404.296875 53.466796875 c 0,5,6
 410.15625 58.10546875 410.15625 58.10546875 409.423828125 64.94140625 c 0,7,8
 408.69140625 71.77734375 408.69140625 71.77734375 401.85546875 81.54296875 c 0,9,-1
 293.45703125 239.2578125 l 0,10,-1
 186.5234375 81.54296875 l 0,11,12
 179.19921875 70.80078125 179.19921875 70.80078125 176.7578125 63.720703125 c 0,13,14
 174.31640625 56.640625 174.31640625 56.640625 178.7109375 52.001953125 c 0,15,16
 183.10546875 47.36328125 183.10546875 47.36328125 195.3125 44.677734375 c 0,17,18
 207.51953125 41.9921875 207.51953125 41.9921875 229.98046875 40.52734375 c 0,19,-1
 229.98046875 0 l 0,20,-1
 10.25390625 0 l 0,21,-1
 10.25390625 40.52734375 l 0,22,23
 41.9921875 42.96875 41.9921875 42.96875 63.96484375 52.490234375 c 0,24,25
 85.9375 62.01171875 85.9375 62.01171875 99.12109375 81.54296875 c 0,26,-1
 248.53515625 304.19921875 l 0,27,-1
 91.30859375 533.69140625 l 0,28,29
 83.984375 544.43359375 83.984375 544.43359375 77.1484375 551.26953125 c 0,30,31
 70.3125 558.10546875 70.3125 558.10546875 61.767578125 562.5 c 0,32,33
 53.22265625 566.89453125 53.22265625 566.89453125 42.236328125 569.580078125 c 0,34,35
 31.25 572.265625 31.25 572.265625 15.13671875 574.70703125 c 0,36,-1
 15.13671875 615.234375 l 0,37,-1
 293.9453125 615.234375 l 0,38,-1
 293.9453125 574.70703125 l 0,39,40
 252.44140625 570.80078125 252.44140625 570.80078125 239.74609375 562.744140625 c 0,41,42
 227.05078125 554.6875 227.05078125 554.6875 241.69921875 533.69140625 c 0,43,-1
 336.42578125 395.5078125 l 0,44,-1
 423.828125 533.69140625 l 0,45,46
 430.6640625 544.921875 430.6640625 544.921875 432.861328125 552.001953125 c 0,47,48
 435.05859375 559.08203125 435.05859375 559.08203125 430.419921875 563.720703125 c 0,49,50
 425.78125 568.359375 425.78125 568.359375 413.57421875 570.80078125 c 0,51,52
 401.3671875 573.2421875 401.3671875 573.2421875 379.39453125 574.70703125 c 0,53,-1
 379.39453125 615.234375 l 0,54,-1
 600.5859375 615.234375 l 0,55,-1
 600.5859375 574.70703125 l 0,56,57
 583.0078125 572.75390625 583.0078125 572.75390625 569.091796875 569.82421875 c 0,58,59
 555.17578125 566.89453125 555.17578125 566.89453125 544.677734375 562.255859375 c 0,60,61
 534.1796875 557.6171875 534.1796875 557.6171875 525.87890625 550.78125 c 0,62,63
 517.578125 543.9453125 517.578125 543.9453125 511.23046875 533.69140625 c 0,64,-1
 380.859375 331.0546875 l 0,65,-1
 552.24609375 81.54296875 l 0,66,67
 559.5703125 71.2890625 559.5703125 71.2890625 566.40625 64.208984375 c 0,68,69
 573.2421875 57.12890625 573.2421875 57.12890625 581.298828125 52.490234375 c 0,70,71
 589.35546875 47.8515625 589.35546875 47.8515625 599.853515625 45.166015625 c 0,72,73
 610.3515625 42.48046875 610.3515625 42.48046875 624.51171875 40.52734375 c 0,74,-1
 624.51171875 0 l 0,75,-1
 350.5859375 0 l 0,0,-1
EndSplineSet
EndChar

StartChar: Y
Encoding: 60 89 60
Width: 618
VWidth: 488
Flags: W
LayerCount: 2
Fore
SplineSet
166.015625 0 m 0,0,-1
 166.015625 40.52734375 l 0,1,2
 187.98828125 44.921875 187.98828125 44.921875 202.63671875 49.8046875 c 0,3,4
 217.28515625 54.6875 217.28515625 54.6875 225.830078125 59.326171875 c 0,5,6
 234.375 63.96484375 234.375 63.96484375 237.79296875 68.115234375 c 0,7,8
 241.2109375 72.265625 241.2109375 72.265625 241.2109375 75.68359375 c 0,9,-1
 241.2109375 257.32421875 l 0,10,11
 223.6328125 295.8984375 223.6328125 295.8984375 202.1484375 336.9140625 c 0,12,13
 180.6640625 377.9296875 180.6640625 377.9296875 158.69140625 416.015625 c 0,14,15
 136.71875 454.1015625 136.71875 454.1015625 115.478515625 486.81640625 c 0,16,17
 94.23828125 519.53125 94.23828125 519.53125 77.1484375 542.48046875 c 0,18,19
 72.75390625 547.8515625 72.75390625 547.8515625 68.115234375 552.001953125 c 0,20,21
 63.4765625 556.15234375 63.4765625 556.15234375 55.6640625 558.837890625 c 0,22,23
 47.8515625 561.5234375 47.8515625 561.5234375 35.15625 562.98828125 c 0,24,25
 22.4609375 564.453125 22.4609375 564.453125 1.953125 564.453125 c 0,26,-1
 0 604.98046875 l 0,27,28
 14.16015625 606.93359375 14.16015625 606.93359375 33.447265625 609.619140625 c 0,29,30
 52.734375 612.3046875 52.734375 612.3046875 72.265625 614.501953125 c 0,31,32
 91.796875 616.69921875 91.796875 616.69921875 108.88671875 618.408203125 c 0,33,34
 125.9765625 620.1171875 125.9765625 620.1171875 136.23046875 620.1171875 c 0,35,36
 150.390625 620.1171875 150.390625 620.1171875 165.52734375 613.76953125 c 0,37,38
 180.6640625 607.421875 180.6640625 607.421875 188.96484375 596.19140625 c 0,39,40
 207.03125 571.77734375 207.03125 571.77734375 226.5625 540.52734375 c 0,41,42
 246.09375 509.27734375 246.09375 509.27734375 265.869140625 474.609375 c 0,43,44
 285.64453125 439.94140625 285.64453125 439.94140625 304.931640625 403.076171875 c 0,45,46
 324.21875 366.2109375 324.21875 366.2109375 341.30859375 331.0546875 c 0,47,-1
 449.70703125 542.48046875 l 0,48,49
 457.03125 555.17578125 457.03125 555.17578125 445.068359375 562.5 c 0,50,51
 433.10546875 569.82421875 433.10546875 569.82421875 395.5078125 574.70703125 c 0,52,-1
 395.5078125 615.234375 l 0,53,-1
 603.515625 615.234375 l 0,54,-1
 603.515625 574.70703125 l 0,55,56
 586.9140625 571.77734375 586.9140625 571.77734375 574.951171875 568.603515625 c 0,57,58
 562.98828125 565.4296875 562.98828125 565.4296875 554.6875 561.767578125 c 0,59,60
 546.38671875 558.10546875 546.38671875 558.10546875 541.015625 553.466796875 c 0,61,62
 535.64453125 548.828125 535.64453125 548.828125 532.2265625 542.48046875 c 0,63,-1
 377.9296875 251.46484375 l 0,64,-1
 377.9296875 75.68359375 l 0,65,66
 377.9296875 72.75390625 377.9296875 72.75390625 381.34765625 68.603515625 c 0,67,68
 384.765625 64.453125 384.765625 64.453125 393.310546875 59.5703125 c 0,69,70
 401.85546875 54.6875 401.85546875 54.6875 416.50390625 49.8046875 c 0,71,72
 431.15234375 44.921875 431.15234375 44.921875 454.1015625 40.52734375 c 0,73,-1
 454.1015625 0 l 0,74,-1
 166.015625 0 l 0,0,-1
EndSplineSet
EndChar

StartChar: Z
Encoding: 61 90 61
Width: 552
VWidth: 488
Flags: W
LayerCount: 2
Fore
SplineSet
518.06640625 182.12890625 m 0,0,1
 517.08984375 166.50390625 517.08984375 166.50390625 516.357421875 141.357421875 c 0,2,3
 515.625 116.2109375 515.625 116.2109375 514.892578125 89.599609375 c 0,4,5
 514.16015625 62.98828125 514.16015625 62.98828125 513.427734375 38.57421875 c 0,6,7
 512.6953125 14.16015625 512.6953125 14.16015625 512.20703125 0 c 0,8,-1
 42.96875 0 l 0,9,-1
 23.92578125 26.85546875 l 0,10,-1
 346.6796875 546.875 l 0,11,-1
 166.50390625 546.875 l 0,12,13
 158.69140625 546.875 158.69140625 546.875 148.681640625 537.59765625 c 0,14,15
 138.671875 528.3203125 138.671875 528.3203125 128.90625 511.962890625 c 0,16,17
 119.140625 495.60546875 119.140625 495.60546875 110.595703125 473.6328125 c 0,18,19
 102.05078125 451.66015625 102.05078125 451.66015625 96.6796875 426.26953125 c 0,20,-1
 49.31640625 437.01171875 l 0,21,-1
 68.359375 623.046875 l 0,22,23
 81.54296875 620.1171875 81.54296875 620.1171875 92.529296875 618.408203125 c 0,24,25
 103.515625 616.69921875 103.515625 616.69921875 114.013671875 615.966796875 c 0,26,27
 124.51171875 615.234375 124.51171875 615.234375 135.7421875 615.234375 c 0,28,-1
 496.09375 615.234375 l 0,29,-1
 513.18359375 589.35546875 l 0,30,-1
 193.359375 68.359375 l 0,31,-1
 404.78515625 68.359375 l 0,32,33
 415.0390625 68.359375 415.0390625 68.359375 423.33984375 76.66015625 c 0,34,35
 431.640625 84.9609375 431.640625 84.9609375 439.208984375 101.07421875 c 0,36,37
 446.77734375 117.1875 446.77734375 117.1875 454.58984375 140.380859375 c 0,38,39
 462.40234375 163.57421875 462.40234375 163.57421875 471.6796875 193.84765625 c 0,40,-1
 518.06640625 182.12890625 l 0,0,1
EndSplineSet
EndChar

StartChar: bracketleft
Encoding: 62 91 62
Width: 347
VWidth: 488
Flags: W
LayerCount: 2
Fore
SplineSet
337.40234375 -106.93359375 m 0,0,1
 336.42578125 -111.81640625 336.42578125 -111.81640625 333.984375 -119.62890625 c 0,2,3
 331.54296875 -127.44140625 331.54296875 -127.44140625 328.61328125 -135.7421875 c 0,4,5
 325.68359375 -144.04296875 325.68359375 -144.04296875 322.998046875 -151.611328125 c 0,6,7
 320.3125 -159.1796875 320.3125 -159.1796875 318.359375 -163.57421875 c 0,8,-1
 58.59375 -163.57421875 l 0,9,-1
 58.59375 781.25 l 0,10,-1
 315.4296875 781.25 l 0,11,-1
 336.42578125 763.671875 l 0,12,13
 335.44921875 757.8125 335.44921875 757.8125 333.0078125 749.0234375 c 0,14,15
 330.56640625 740.234375 330.56640625 740.234375 327.880859375 731.4453125 c 0,16,17
 325.1953125 722.65625 325.1953125 722.65625 322.509765625 715.576171875 c 0,18,19
 319.82421875 708.49609375 319.82421875 708.49609375 318.359375 705.56640625 c 0,20,-1
 185.546875 705.56640625 l 0,21,-1
 185.546875 -87.890625 l 0,22,-1
 315.4296875 -87.890625 l 0,23,-1
 337.40234375 -106.93359375 l 0,0,1
EndSplineSet
EndChar

StartChar: backslash
Encoding: 63 92 63
Width: 468
VWidth: 488
Flags: W
LayerCount: 2
Fore
SplineSet
429.6875 -163.57421875 m 0,0,1
 423.828125 -161.62109375 423.828125 -161.62109375 412.109375 -157.958984375 c 0,2,3
 400.390625 -154.296875 400.390625 -154.296875 387.939453125 -150.146484375 c 0,4,5
 375.48828125 -145.99609375 375.48828125 -145.99609375 364.74609375 -141.6015625 c 0,6,7
 354.00390625 -137.20703125 354.00390625 -137.20703125 349.609375 -133.7890625 c 0,8,-1
 17.08984375 765.625 l 0,9,-1
 40.0390625 781.25 l 0,10,11
 47.36328125 779.296875 47.36328125 779.296875 58.10546875 776.123046875 c 0,12,13
 68.84765625 772.94921875 68.84765625 772.94921875 80.322265625 769.04296875 c 0,14,15
 91.796875 765.13671875 91.796875 765.13671875 102.294921875 760.986328125 c 0,16,17
 112.79296875 756.8359375 112.79296875 756.8359375 119.62890625 752.44140625 c 0,18,-1
 451.66015625 -146.484375 l 0,19,-1
 429.6875 -163.57421875 l 0,0,1
EndSplineSet
EndChar

StartChar: bracketright
Encoding: 64 93 64
Width: 347
VWidth: 488
Flags: W
LayerCount: 2
Fore
SplineSet
31.73828125 -163.57421875 m 0,0,-1
 10.7421875 -145.99609375 l 0,1,2
 11.71875 -140.13671875 11.71875 -140.13671875 14.16015625 -131.34765625 c 0,3,4
 16.6015625 -122.55859375 16.6015625 -122.55859375 19.287109375 -113.76953125 c 0,5,6
 21.97265625 -104.98046875 21.97265625 -104.98046875 24.658203125 -97.900390625 c 0,7,8
 27.34375 -90.8203125 27.34375 -90.8203125 28.80859375 -87.890625 c 0,9,-1
 161.1328125 -87.890625 l 0,10,-1
 161.1328125 705.56640625 l 0,11,-1
 31.73828125 705.56640625 l 0,12,-1
 9.765625 724.609375 l 0,13,14
 10.7421875 729.4921875 10.7421875 729.4921875 13.18359375 737.3046875 c 0,15,16
 15.625 745.1171875 15.625 745.1171875 18.5546875 753.41796875 c 0,17,18
 21.484375 761.71875 21.484375 761.71875 24.169921875 769.287109375 c 0,19,20
 26.85546875 776.85546875 26.85546875 776.85546875 28.80859375 781.25 c 0,21,-1
 288.0859375 781.25 l 0,22,-1
 288.0859375 -163.57421875 l 0,23,-1
 31.73828125 -163.57421875 l 0,0,-1
EndSplineSet
EndChar

StartChar: asciicircum
Encoding: 65 94 65
Width: 492
VWidth: 488
Flags: W
LayerCount: 2
Fore
SplineSet
442.87109375 310.05859375 m 0,0,1
 430.6640625 298.828125 430.6640625 298.828125 419.189453125 291.259765625 c 0,2,3
 407.71484375 283.69140625 407.71484375 283.69140625 391.11328125 275.87890625 c 0,4,-1
 373.046875 289.0625 l 0,5,-1
 234.86328125 642.08984375 l 0,6,-1
 112.79296875 310.05859375 l 0,7,8
 107.421875 305.17578125 107.421875 305.17578125 100.5859375 300.048828125 c 0,9,10
 93.75 294.921875 93.75 294.921875 86.42578125 290.283203125 c 0,11,12
 79.1015625 285.64453125 79.1015625 285.64453125 72.021484375 281.982421875 c 0,13,14
 64.94140625 278.3203125 64.94140625 278.3203125 60.05859375 275.87890625 c 0,15,-1
 48.828125 289.0625 l 0,16,-1
 206.0546875 713.8671875 l 0,17,18
 211.9140625 719.7265625 211.9140625 719.7265625 220.458984375 725.830078125 c 0,19,20
 229.00390625 731.93359375 229.00390625 731.93359375 237.79296875 737.79296875 c 0,21,22
 246.58203125 743.65234375 246.58203125 743.65234375 255.37109375 748.53515625 c 0,23,24
 264.16015625 753.41796875 264.16015625 753.41796875 270.99609375 756.8359375 c 0,25,-1
 442.87109375 310.05859375 l 0,0,1
EndSplineSet
EndChar

StartChar: underscore
Encoding: 66 95 66
Width: 488
VWidth: 488
Flags: W
LayerCount: 2
Fore
SplineSet
463.8671875 -80.078125 m 0,0,1
 462.40234375 -85.44921875 462.40234375 -85.44921875 458.984375 -93.75 c 0,2,3
 455.56640625 -102.05078125 455.56640625 -102.05078125 451.66015625 -110.83984375 c 0,4,5
 447.75390625 -119.62890625 447.75390625 -119.62890625 444.3359375 -127.44140625 c 0,6,7
 440.91796875 -135.25390625 440.91796875 -135.25390625 438.96484375 -139.16015625 c 0,8,-1
 41.50390625 -139.16015625 l 0,9,-1
 24.4140625 -122.55859375 l 0,10,11
 25.87890625 -117.1875 25.87890625 -117.1875 29.052734375 -109.130859375 c 0,12,13
 32.2265625 -101.07421875 32.2265625 -101.07421875 35.888671875 -92.529296875 c 0,14,15
 39.55078125 -83.984375 39.55078125 -83.984375 43.212890625 -76.171875 c 0,16,17
 46.875 -68.359375 46.875 -68.359375 49.31640625 -63.4765625 c 0,18,-1
 446.77734375 -63.4765625 l 0,19,-1
 463.8671875 -80.078125 l 0,0,1
EndSplineSet
EndChar

StartChar: grave
Encoding: 67 96 67
Width: 318
VWidth: 488
Flags: W
LayerCount: 2
Fore
SplineSet
222.65625 531.25 m 0,0,1
 219.7265625 528.3203125 219.7265625 528.3203125 213.37890625 524.658203125 c 0,2,3
 207.03125 520.99609375 207.03125 520.99609375 200.1953125 517.333984375 c 0,4,5
 193.359375 513.671875 193.359375 513.671875 186.767578125 510.7421875 c 0,6,7
 180.17578125 507.8125 180.17578125 507.8125 175.78125 506.34765625 c 0,8,-1
 -15.625 690.4296875 l 0,9,-1
 0 720.21484375 l 0,10,11
 2.9296875 721.19140625 2.9296875 721.19140625 11.962890625 722.900390625 c 0,12,13
 20.99609375 724.609375 20.99609375 724.609375 33.203125 727.05078125 c 0,14,15
 45.41015625 729.4921875 45.41015625 729.4921875 58.837890625 731.93359375 c 0,16,17
 72.265625 734.375 72.265625 734.375 84.47265625 736.572265625 c 0,18,19
 96.6796875 738.76953125 96.6796875 738.76953125 106.4453125 739.74609375 c 0,20,-1
 120.1171875 741.69921875 l 0,21,-1
 222.65625 531.25 l 0,0,1
EndSplineSet
EndChar

StartChar: a
Encoding: 68 97 68
Width: 512
VWidth: 488
Flags: W
LayerCount: 2
Fore
SplineSet
510.7421875 59.5703125 m 0,0,1
 490.234375 45.41015625 490.234375 45.41015625 466.552734375 31.982421875 c 0,2,3
 442.87109375 18.5546875 442.87109375 18.5546875 420.654296875 8.30078125 c 0,4,5
 398.4375 -1.953125 398.4375 -1.953125 380.37109375 -8.30078125 c 0,6,7
 362.3046875 -14.6484375 362.3046875 -14.6484375 352.5390625 -14.6484375 c 0,8,9
 333.984375 -14.6484375 333.984375 -14.6484375 320.80078125 5.615234375 c 0,10,11
 307.6171875 25.87890625 307.6171875 25.87890625 304.6875 61.03515625 c 0,12,13
 282.71484375 39.0625 282.71484375 39.0625 260.498046875 24.4140625 c 0,14,15
 238.28125 9.765625 238.28125 9.765625 217.529296875 0.9765625 c 0,16,17
 196.77734375 -7.8125 196.77734375 -7.8125 177.734375 -11.23046875 c 0,18,19
 158.69140625 -14.6484375 158.69140625 -14.6484375 143.06640625 -14.6484375 c 0,20,21
 121.58203125 -14.6484375 121.58203125 -14.6484375 101.318359375 -7.32421875 c 0,22,23
 81.0546875 0 81.0546875 0 64.94140625 14.6484375 c 0,24,25
 48.828125 29.296875 48.828125 29.296875 39.0625 50.78125 c 0,26,27
 29.296875 72.265625 29.296875 72.265625 29.296875 100.5859375 c 0,28,29
 29.296875 132.32421875 29.296875 132.32421875 41.015625 155.029296875 c 0,30,31
 52.734375 177.734375 52.734375 177.734375 70.80078125 195.80078125 c 0,32,33
 82.51953125 207.51953125 82.51953125 207.51953125 97.900390625 218.505859375 c 0,34,35
 113.28125 229.4921875 113.28125 229.4921875 139.16015625 239.74609375 c 0,36,37
 165.0390625 250 165.0390625 250 204.58984375 259.765625 c 0,38,39
 244.140625 269.53125 244.140625 269.53125 304.19921875 278.80859375 c 0,40,-1
 304.19921875 333.0078125 l 0,41,42
 304.19921875 347.65625 304.19921875 347.65625 301.513671875 360.107421875 c 0,43,44
 298.828125 372.55859375 298.828125 372.55859375 292.236328125 381.34765625 c 0,45,46
 285.64453125 390.13671875 285.64453125 390.13671875 274.4140625 395.263671875 c 0,47,48
 263.18359375 400.390625 263.18359375 400.390625 246.58203125 400.390625 c 0,49,50
 236.328125 400.390625 236.328125 400.390625 225.830078125 396.240234375 c 0,51,52
 215.33203125 392.08984375 215.33203125 392.08984375 207.275390625 384.27734375 c 0,53,54
 199.21875 376.46484375 199.21875 376.46484375 194.580078125 364.990234375 c 0,55,56
 189.94140625 353.515625 189.94140625 353.515625 191.40625 338.8671875 c 0,57,58
 191.89453125 335.9375 191.89453125 335.9375 182.6171875 331.298828125 c 0,59,60
 173.33984375 326.66015625 173.33984375 326.66015625 158.935546875 321.533203125 c 0,61,62
 144.53125 316.40625 144.53125 316.40625 127.197265625 311.5234375 c 0,63,64
 109.86328125 306.640625 109.86328125 306.640625 93.994140625 302.978515625 c 0,65,66
 78.125 299.31640625 78.125 299.31640625 65.91796875 297.36328125 c 0,67,68
 53.7109375 295.41015625 53.7109375 295.41015625 49.8046875 296.38671875 c 0,69,-1
 38.0859375 325.1953125 l 0,70,71
 50.29296875 355.95703125 50.29296875 355.95703125 76.171875 382.080078125 c 0,72,73
 102.05078125 408.203125 102.05078125 408.203125 137.20703125 427.490234375 c 0,74,75
 172.36328125 446.77734375 172.36328125 446.77734375 214.111328125 457.763671875 c 0,76,77
 255.859375 468.75 255.859375 468.75 299.8046875 468.75 c 0,78,79
 335.44921875 468.75 335.44921875 468.75 361.328125 459.228515625 c 0,80,81
 387.20703125 449.70703125 387.20703125 449.70703125 403.80859375 433.349609375 c 0,82,83
 420.41015625 416.9921875 420.41015625 416.9921875 428.22265625 394.775390625 c 0,84,85
 436.03515625 372.55859375 436.03515625 372.55859375 436.03515625 347.65625 c 0,86,-1
 436.03515625 125.9765625 l 0,87,88
 436.03515625 105.46875 436.03515625 105.46875 441.40625 96.6796875 c 0,89,90
 446.77734375 87.890625 446.77734375 87.890625 455.56640625 87.890625 c 0,91,92
 458.984375 87.890625 458.984375 87.890625 462.40234375 88.37890625 c 0,93,94
 465.8203125 88.8671875 465.8203125 88.8671875 470.703125 90.33203125 c 0,95,96
 475.5859375 91.796875 475.5859375 91.796875 482.177734375 94.482421875 c 0,97,98
 488.76953125 97.16796875 488.76953125 97.16796875 498.53515625 101.07421875 c 0,99,-1
 510.7421875 59.5703125 l 0,0,1
210.9375 78.125 m 0,100,101
 218.26171875 78.125 218.26171875 78.125 227.05078125 79.58984375 c 0,102,103
 235.83984375 81.0546875 235.83984375 81.0546875 246.826171875 86.181640625 c 0,104,105
 257.8125 91.30859375 257.8125 91.30859375 271.97265625 100.5859375 c 0,106,107
 286.1328125 109.86328125 286.1328125 109.86328125 304.19921875 125.48828125 c 0,108,-1
 304.19921875 227.5390625 l 0,109,110
 278.3203125 223.14453125 278.3203125 223.14453125 260.498046875 219.23828125 c 0,111,112
 242.67578125 215.33203125 242.67578125 215.33203125 230.46875 211.181640625 c 0,113,114
 218.26171875 207.03125 218.26171875 207.03125 210.205078125 202.1484375 c 0,115,116
 202.1484375 197.265625 202.1484375 197.265625 196.2890625 191.40625 c 0,117,118
 183.59375 178.7109375 183.59375 178.7109375 175.78125 165.0390625 c 0,119,120
 167.96875 151.3671875 167.96875 151.3671875 167.96875 131.34765625 c 0,121,122
 167.96875 115.72265625 167.96875 115.72265625 172.36328125 105.46875 c 0,123,124
 176.7578125 95.21484375 176.7578125 95.21484375 183.10546875 89.111328125 c 0,125,126
 189.453125 83.0078125 189.453125 83.0078125 197.021484375 80.56640625 c 0,127,128
 204.58984375 78.125 204.58984375 78.125 210.9375 78.125 c 0,100,101
EndSplineSet
EndChar

StartChar: b
Encoding: 69 98 69
Width: 546
VWidth: 488
Flags: W
LayerCount: 2
Fore
SplineSet
512.6953125 250 m 0,0,1
 512.6953125 221.6796875 512.6953125 221.6796875 501.46484375 191.162109375 c 0,2,3
 490.234375 160.64453125 490.234375 160.64453125 470.703125 131.103515625 c 0,4,5
 451.171875 101.5625 451.171875 101.5625 425.29296875 75.1953125 c 0,6,7
 399.4140625 48.828125 399.4140625 48.828125 370.1171875 28.80859375 c 0,8,9
 340.8203125 8.7890625 340.8203125 8.7890625 309.5703125 -2.9296875 c 0,10,11
 278.3203125 -14.6484375 278.3203125 -14.6484375 248.53515625 -14.6484375 c 0,12,13
 233.88671875 -14.6484375 233.88671875 -14.6484375 212.158203125 -9.765625 c 0,14,15
 190.4296875 -4.8828125 190.4296875 -4.8828125 165.0390625 3.41796875 c 0,16,17
 139.6484375 11.71875 139.6484375 11.71875 112.3046875 22.94921875 c 0,18,19
 84.9609375 34.1796875 84.9609375 34.1796875 58.59375 46.875 c 0,20,-1
 58.59375 613.28125 l 0,21,22
 58.59375 635.7421875 58.59375 635.7421875 56.884765625 647.94921875 c 0,23,24
 55.17578125 660.15625 55.17578125 660.15625 49.31640625 666.259765625 c 0,25,26
 43.45703125 672.36328125 43.45703125 672.36328125 31.73828125 674.31640625 c 0,27,28
 20.01953125 676.26953125 20.01953125 676.26953125 0 678.7109375 c 0,29,-1
 0 717.7734375 l 0,30,31
 25.390625 721.6796875 25.390625 721.6796875 47.36328125 725.341796875 c 0,32,33
 69.3359375 729.00390625 69.3359375 729.00390625 89.599609375 733.642578125 c 0,34,35
 109.86328125 738.28125 109.86328125 738.28125 128.90625 743.896484375 c 0,36,37
 147.94921875 749.51171875 147.94921875 749.51171875 167.48046875 756.8359375 c 0,38,39
 169.43359375 754.8828125 169.43359375 754.8828125 173.095703125 751.46484375 c 0,40,41
 176.7578125 748.046875 176.7578125 748.046875 180.6640625 744.140625 c 0,42,43
 185.05859375 739.74609375 185.05859375 739.74609375 190.4296875 735.3515625 c 0,44,-1
 190.4296875 403.80859375 l 0,45,46
 214.84375 421.875 214.84375 421.875 238.28125 434.326171875 c 0,47,48
 261.71875 446.77734375 261.71875 446.77734375 282.958984375 454.58984375 c 0,49,50
 304.19921875 462.40234375 304.19921875 462.40234375 322.509765625 465.576171875 c 0,51,52
 340.8203125 468.75 340.8203125 468.75 354.98046875 468.75 c 0,53,54
 392.08984375 468.75 392.08984375 468.75 421.38671875 453.125 c 0,55,56
 450.68359375 437.5 450.68359375 437.5 470.947265625 408.935546875 c 0,57,58
 491.2109375 380.37109375 491.2109375 380.37109375 501.953125 340.087890625 c 0,59,60
 512.6953125 299.8046875 512.6953125 299.8046875 512.6953125 250 c 0,0,1
390.625 204.1015625 m 0,61,62
 390.625 252.9296875 390.625 252.9296875 382.568359375 286.1328125 c 0,63,64
 374.51171875 319.3359375 374.51171875 319.3359375 360.3515625 339.84375 c 0,65,66
 346.19140625 360.3515625 346.19140625 360.3515625 327.392578125 369.384765625 c 0,67,68
 308.59375 378.41796875 308.59375 378.41796875 286.62109375 378.41796875 c 0,69,70
 269.53125 378.41796875 269.53125 378.41796875 246.826171875 370.361328125 c 0,71,72
 224.12109375 362.3046875 224.12109375 362.3046875 190.4296875 341.796875 c 0,73,-1
 190.4296875 108.88671875 l 0,74,75
 229.4921875 90.33203125 229.4921875 90.33203125 256.103515625 81.787109375 c 0,76,77
 282.71484375 73.2421875 282.71484375 73.2421875 296.38671875 73.2421875 c 0,78,79
 320.3125 73.2421875 320.3125 73.2421875 338.134765625 83.0078125 c 0,80,81
 355.95703125 92.7734375 355.95703125 92.7734375 367.67578125 110.3515625 c 0,82,83
 379.39453125 127.9296875 379.39453125 127.9296875 385.009765625 151.85546875 c 0,84,85
 390.625 175.78125 390.625 175.78125 390.625 204.1015625 c 0,61,62
EndSplineSet
EndChar

StartChar: c
Encoding: 70 99 70
Width: 461
VWidth: 488
Flags: W
LayerCount: 2
Fore
SplineSet
444.3359375 92.7734375 m 0,0,1
 412.59765625 57.12890625 412.59765625 57.12890625 384.765625 35.888671875 c 0,2,3
 356.93359375 14.6484375 356.93359375 14.6484375 331.54296875 3.41796875 c 0,4,5
 306.15234375 -7.8125 306.15234375 -7.8125 282.958984375 -11.23046875 c 0,6,7
 259.765625 -14.6484375 259.765625 -14.6484375 236.81640625 -14.6484375 c 0,8,9
 195.80078125 -14.6484375 195.80078125 -14.6484375 158.203125 1.220703125 c 0,10,11
 120.60546875 17.08984375 120.60546875 17.08984375 92.041015625 46.875 c 0,12,13
 63.4765625 76.66015625 63.4765625 76.66015625 46.38671875 119.62890625 c 0,14,15
 29.296875 162.59765625 29.296875 162.59765625 29.296875 216.796875 c 0,16,17
 29.296875 269.53125 29.296875 269.53125 48.828125 315.4296875 c 0,18,19
 68.359375 361.328125 68.359375 361.328125 103.759765625 395.263671875 c 0,20,21
 139.16015625 429.19921875 139.16015625 429.19921875 188.4765625 448.974609375 c 0,22,23
 237.79296875 468.75 237.79296875 468.75 297.8515625 468.75 c 0,24,25
 313.96484375 468.75 313.96484375 468.75 335.44921875 466.064453125 c 0,26,27
 356.93359375 463.37890625 356.93359375 463.37890625 377.685546875 458.251953125 c 0,28,29
 398.4375 453.125 398.4375 453.125 416.015625 446.044921875 c 0,30,31
 433.59375 438.96484375 433.59375 438.96484375 441.89453125 430.17578125 c 0,32,33
 442.3828125 426.26953125 442.3828125 426.26953125 440.4296875 415.283203125 c 0,34,35
 438.4765625 404.296875 438.4765625 404.296875 434.814453125 389.892578125 c 0,36,37
 431.15234375 375.48828125 431.15234375 375.48828125 426.26953125 359.130859375 c 0,38,39
 421.38671875 342.7734375 421.38671875 342.7734375 416.50390625 328.125 c 0,40,41
 411.62109375 313.4765625 411.62109375 313.4765625 406.982421875 302.24609375 c 0,42,43
 402.34375 291.015625 402.34375 291.015625 399.4140625 286.62109375 c 0,44,-1
 361.81640625 291.50390625 l 0,45,46
 352.5390625 320.80078125 352.5390625 320.80078125 342.7734375 342.041015625 c 0,47,48
 333.0078125 363.28125 333.0078125 363.28125 321.2890625 377.44140625 c 0,49,50
 309.5703125 391.6015625 309.5703125 391.6015625 295.41015625 398.4375 c 0,51,52
 281.25 405.2734375 281.25 405.2734375 263.671875 405.2734375 c 0,53,54
 243.65234375 405.2734375 243.65234375 405.2734375 225.09765625 395.99609375 c 0,55,56
 206.54296875 386.71875 206.54296875 386.71875 192.3828125 366.2109375 c 0,57,58
 178.22265625 345.703125 178.22265625 345.703125 169.677734375 312.744140625 c 0,59,60
 161.1328125 279.78515625 161.1328125 279.78515625 161.1328125 231.93359375 c 0,61,62
 161.1328125 193.84765625 161.1328125 193.84765625 170.166015625 164.306640625 c 0,63,64
 179.19921875 134.765625 179.19921875 134.765625 195.556640625 114.501953125 c 0,65,66
 211.9140625 94.23828125 211.9140625 94.23828125 233.88671875 83.740234375 c 0,67,68
 255.859375 73.2421875 255.859375 73.2421875 281.73828125 73.2421875 c 0,69,70
 295.41015625 73.2421875 295.41015625 73.2421875 308.59375 74.951171875 c 0,71,72
 321.77734375 76.66015625 321.77734375 76.66015625 337.158203125 82.51953125 c 0,73,74
 352.5390625 88.37890625 352.5390625 88.37890625 371.337890625 99.12109375 c 0,75,76
 390.13671875 109.86328125 390.13671875 109.86328125 415.52734375 127.44140625 c 0,77,-1
 444.3359375 92.7734375 l 0,0,1
EndSplineSet
EndChar

StartChar: d
Encoding: 71 100 71
Width: 573
VWidth: 488
Flags: W
LayerCount: 2
Fore
SplineSet
363.76953125 132.8125 m 0,0,-1
 363.76953125 340.8203125 l 0,1,2
 345.21484375 369.140625 345.21484375 369.140625 320.556640625 384.765625 c 0,3,4
 295.8984375 400.390625 295.8984375 400.390625 263.671875 400.390625 c 0,5,6
 241.69921875 400.390625 241.69921875 400.390625 222.900390625 391.845703125 c 0,7,8
 204.1015625 383.30078125 204.1015625 383.30078125 190.4296875 364.74609375 c 0,9,10
 176.7578125 346.19140625 176.7578125 346.19140625 168.9453125 316.89453125 c 0,11,12
 161.1328125 287.59765625 161.1328125 287.59765625 161.1328125 246.58203125 c 0,13,14
 161.1328125 208.984375 161.1328125 208.984375 170.166015625 179.443359375 c 0,15,16
 179.19921875 149.90234375 179.19921875 149.90234375 194.091796875 129.638671875 c 0,17,18
 208.984375 109.375 208.984375 109.375 228.02734375 98.6328125 c 0,19,20
 247.0703125 87.890625 247.0703125 87.890625 267.08984375 87.890625 c 0,21,22
 279.296875 87.890625 279.296875 87.890625 290.52734375 90.087890625 c 0,23,24
 301.7578125 92.28515625 301.7578125 92.28515625 313.232421875 97.412109375 c 0,25,26
 324.70703125 102.5390625 324.70703125 102.5390625 337.158203125 111.328125 c 0,27,28
 349.609375 120.1171875 349.609375 120.1171875 363.76953125 132.8125 c 0,0,-1
571.77734375 60.546875 m 0,29,30
 549.31640625 45.41015625 549.31640625 45.41015625 524.4140625 31.73828125 c 0,31,32
 499.51171875 18.06640625 499.51171875 18.06640625 477.294921875 7.8125 c 0,33,34
 455.078125 -2.44140625 455.078125 -2.44140625 438.232421875 -8.544921875 c 0,35,36
 421.38671875 -14.6484375 421.38671875 -14.6484375 414.55078125 -14.6484375 c 0,37,38
 395.99609375 -14.6484375 395.99609375 -14.6484375 384.765625 6.103515625 c 0,39,40
 373.53515625 26.85546875 373.53515625 26.85546875 368.1640625 66.40625 c 0,41,42
 344.23828125 43.45703125 344.23828125 43.45703125 325.1953125 27.83203125 c 0,43,44
 306.15234375 12.20703125 306.15234375 12.20703125 288.57421875 2.685546875 c 0,45,46
 270.99609375 -6.8359375 270.99609375 -6.8359375 252.9296875 -10.7421875 c 0,47,48
 234.86328125 -14.6484375 234.86328125 -14.6484375 212.890625 -14.6484375 c 0,49,50
 178.22265625 -14.6484375 178.22265625 -14.6484375 145.263671875 1.220703125 c 0,51,52
 112.3046875 17.08984375 112.3046875 17.08984375 86.669921875 46.875 c 0,53,54
 61.03515625 76.66015625 61.03515625 76.66015625 45.166015625 119.62890625 c 0,55,56
 29.296875 162.59765625 29.296875 162.59765625 29.296875 216.796875 c 0,57,58
 29.296875 268.06640625 29.296875 268.06640625 46.875 313.720703125 c 0,59,60
 64.453125 359.375 64.453125 359.375 96.19140625 393.798828125 c 0,61,62
 127.9296875 428.22265625 127.9296875 428.22265625 172.119140625 448.486328125 c 0,63,64
 216.30859375 468.75 216.30859375 468.75 269.04296875 468.75 c 0,65,66
 291.9921875 468.75 291.9921875 468.75 314.697265625 463.37890625 c 0,67,68
 337.40234375 458.0078125 337.40234375 458.0078125 363.76953125 440.4296875 c 0,69,-1
 363.76953125 602.5390625 l 0,70,71
 363.76953125 629.39453125 363.76953125 629.39453125 363.037109375 645.263671875 c 0,72,73
 362.3046875 661.1328125 362.3046875 661.1328125 356.4453125 669.677734375 c 0,74,75
 350.5859375 678.22265625 350.5859375 678.22265625 337.158203125 681.396484375 c 0,76,77
 323.73046875 684.5703125 323.73046875 684.5703125 297.8515625 686.5234375 c 0,78,-1
 297.8515625 725.09765625 l 0,79,80
 327.1484375 727.5390625 327.1484375 727.5390625 353.759765625 731.4453125 c 0,81,82
 380.37109375 735.3515625 380.37109375 735.3515625 403.3203125 739.501953125 c 0,83,84
 426.26953125 743.65234375 426.26953125 743.65234375 444.580078125 748.291015625 c 0,85,86
 462.890625 752.9296875 462.890625 752.9296875 475.5859375 756.8359375 c 0,87,-1
 495.60546875 737.3046875 l 0,88,-1
 495.60546875 153.3203125 l 0,89,90
 495.60546875 136.23046875 495.60546875 136.23046875 496.337890625 124.755859375 c 0,91,92
 497.0703125 113.28125 497.0703125 113.28125 498.291015625 106.201171875 c 0,93,94
 499.51171875 99.12109375 499.51171875 99.12109375 501.708984375 95.703125 c 0,95,96
 503.90625 92.28515625 503.90625 92.28515625 506.8359375 90.8203125 c 0,97,98
 509.765625 89.35546875 509.765625 89.35546875 512.939453125 88.623046875 c 0,99,100
 516.11328125 87.890625 516.11328125 87.890625 521.240234375 88.8671875 c 0,101,102
 526.3671875 89.84375 526.3671875 89.84375 534.66796875 92.529296875 c 0,103,104
 542.96875 95.21484375 542.96875 95.21484375 555.6640625 101.07421875 c 0,105,-1
 571.77734375 60.546875 l 0,29,30
EndSplineSet
EndChar

StartChar: e
Encoding: 72 101 72
Width: 491
VWidth: 488
Flags: W
LayerCount: 2
Fore
SplineSet
461.9140625 267.08984375 m 0,0,1
 457.51953125 262.20703125 457.51953125 262.20703125 448.486328125 256.103515625 c 0,2,3
 439.453125 250 439.453125 250 428.7109375 244.140625 c 0,4,5
 417.96875 238.28125 417.96875 238.28125 407.2265625 232.91015625 c 0,6,7
 396.484375 227.5390625 396.484375 227.5390625 388.671875 224.609375 c 0,8,-1
 166.015625 224.609375 l 0,9,10
 167.48046875 190.91796875 167.48046875 190.91796875 175.537109375 162.841796875 c 0,11,12
 183.59375 134.765625 183.59375 134.765625 197.998046875 114.990234375 c 0,13,14
 212.40234375 95.21484375 212.40234375 95.21484375 233.3984375 84.228515625 c 0,15,16
 254.39453125 73.2421875 254.39453125 73.2421875 281.25 73.2421875 c 0,17,18
 296.38671875 73.2421875 296.38671875 73.2421875 311.03515625 74.951171875 c 0,19,20
 325.68359375 76.66015625 325.68359375 76.66015625 342.529296875 82.51953125 c 0,21,22
 359.375 88.37890625 359.375 88.37890625 380.615234375 99.609375 c 0,23,24
 401.85546875 110.83984375 401.85546875 110.83984375 431.15234375 129.8828125 c 0,25,26
 434.08203125 128.41796875 434.08203125 128.41796875 438.4765625 123.291015625 c 0,27,28
 442.87109375 118.1640625 442.87109375 118.1640625 447.021484375 112.548828125 c 0,29,30
 451.171875 106.93359375 451.171875 106.93359375 454.58984375 102.05078125 c 0,31,32
 458.0078125 97.16796875 458.0078125 97.16796875 458.984375 95.21484375 c 0,33,34
 424.31640625 61.5234375 424.31640625 61.5234375 396.97265625 40.0390625 c 0,35,36
 369.62890625 18.5546875 369.62890625 18.5546875 344.23828125 6.34765625 c 0,37,38
 318.84765625 -5.859375 318.84765625 -5.859375 293.212890625 -10.25390625 c 0,39,40
 267.578125 -14.6484375 267.578125 -14.6484375 236.81640625 -14.6484375 c 0,41,42
 193.84765625 -14.6484375 193.84765625 -14.6484375 156.005859375 2.197265625 c 0,43,44
 118.1640625 19.04296875 118.1640625 19.04296875 90.087890625 49.560546875 c 0,45,46
 62.01171875 80.078125 62.01171875 80.078125 45.654296875 122.55859375 c 0,47,48
 29.296875 165.0390625 29.296875 165.0390625 29.296875 216.796875 c 0,49,50
 29.296875 283.203125 29.296875 283.203125 53.466796875 333.251953125 c 0,51,52
 77.63671875 383.30078125 77.63671875 383.30078125 127.44140625 420.41015625 c 0,53,54
 154.78515625 440.91796875 154.78515625 440.91796875 192.138671875 454.833984375 c 0,55,56
 229.4921875 468.75 229.4921875 468.75 270.5078125 468.75 c 0,57,58
 318.359375 468.75 318.359375 468.75 354.248046875 453.125 c 0,59,60
 390.13671875 437.5 390.13671875 437.5 414.0625 410.15625 c 0,61,62
 437.98828125 382.8125 437.98828125 382.8125 449.951171875 345.947265625 c 0,63,64
 461.9140625 309.08203125 461.9140625 309.08203125 461.9140625 267.08984375 c 0,0,1
251.953125 407.71484375 m 0,65,66
 229.98046875 407.71484375 229.98046875 407.71484375 214.84375 399.169921875 c 0,67,68
 199.70703125 390.625 199.70703125 390.625 189.697265625 374.51171875 c 0,69,70
 179.6875 358.3984375 179.6875 358.3984375 174.31640625 335.44921875 c 0,71,72
 168.9453125 312.5 168.9453125 312.5 166.9921875 283.203125 c 0,73,-1
 314.453125 283.203125 l 0,74,75
 325.68359375 283.203125 325.68359375 283.203125 329.345703125 286.865234375 c 0,76,77
 333.0078125 290.52734375 333.0078125 290.52734375 333.0078125 300.78125 c 0,78,79
 333.0078125 315.91796875 333.0078125 315.91796875 328.857421875 334.47265625 c 0,80,81
 324.70703125 353.02734375 324.70703125 353.02734375 315.185546875 369.384765625 c 0,82,83
 305.6640625 385.7421875 305.6640625 385.7421875 290.0390625 396.728515625 c 0,84,85
 274.4140625 407.71484375 274.4140625 407.71484375 251.953125 407.71484375 c 0,65,66
EndSplineSet
EndChar

